<ttFont>
<head>
    <!-- Most of this table will be recalculated by the compiler -->
    <tableVersion value="1.0"/>
    <fontRevision value="1.301"/>
    <checkSumAdjustment value="0xa9740385"/>
    <magicNumber value="0x5f0f3cf5"/>
    <flags value="00000000 00001011"/>
    <unitsPerEm value="1000"/>
    <created value="Thu Dec  2 04:30:07 2010"/>
    <modified value="Thu Mar  6 17:44:10 2014"/>
    <xMin value="-180"/>
    <yMin value="-318"/>
    <xMax value="1405"/>
    <yMax value="1080"/>
    <macStyle value="00000000 00000000"/>
    <lowestRecPPEM value="9"/>
    <fontDirectionHint value="2"/>
    <indexToLocFormat value="0"/>
    <glyphDataFormat value="0"/>
  </head>
    <TTGlyph name=".notdef" xMin="0" yMin="-200" xMax="500" yMax="800">
      <contour>
        <pt x="0" y="800" on="1"/>
        <pt x="500" y="800" on="1"/>
        <pt x="500" y="-200" on="1"/>
        <pt x="0" y="-200" on="1"/>
      </contour>
      <contour>
        <pt x="250" y="360" on="1"/>
        <pt x="429" y="750" on="1"/>
        <pt x="71" y="750" on="1"/>
      </contour>
      <contour>
        <pt x="222" y="300" on="1"/>
        <pt x="50" y="676" on="1"/>
        <pt x="50" y="-76" on="1"/>
      </contour>
      <contour>
        <pt x="278" y="300" on="1"/>
        <pt x="450" y="-76" on="1"/>
        <pt x="450" y="676" on="1"/>
      </contour>
      <contour>
        <pt x="71" y="-150" on="1"/>
        <pt x="429" y="-150" on="1"/>
        <pt x="250" y="240" on="1"/>
      </contour>
    </TTGlyph>
    <TTGlyph name="A" xMin="-2" yMin="-6" xMax="734" yMax="705">
      <contour>
        <pt x="734" y="8" on="1"/>
        <pt x="734" y="-6" on="0"/>
        <pt x="726" y="-6" on="1"/>
        <pt x="701" y="-6" on="0"/>
        <pt x="666" y="-4" on="0"/>
        <pt x="636" y="-2" on="0"/>
        <pt x="605" y="0" on="0"/>
        <pt x="584" y="0" on="1"/>
        <pt x="561" y="0" on="0"/>
        <pt x="524" y="-2" on="0"/>
        <pt x="490" y="-4" on="0"/>
        <pt x="452" y="-6" on="0"/>
        <pt x="427" y="-6" on="1"/>
        <pt x="419" y="-6" on="0"/>
        <pt x="419" y="8" on="1"/>
        <pt x="419" y="22" on="0"/>
        <pt x="425" y="22" on="1"/>
        <pt x="474" y="24" on="0"/>
        <pt x="509" y="45" on="0"/>
        <pt x="509" y="64" on="1"/>
        <pt x="509" y="73" on="0"/>
        <pt x="504" y="94" on="0"/>
        <pt x="500" y="106" on="1"/>
        <pt x="442" y="273" on="1"/>
        <pt x="236" y="273" on="1"/>
        <pt x="179" y="118" on="1"/>
        <pt x="174" y="105" on="0"/>
        <pt x="168" y="81" on="0"/>
        <pt x="168" y="70" on="1"/>
        <pt x="168" y="50" on="0"/>
        <pt x="202" y="24" on="0"/>
        <pt x="249" y="22" on="1"/>
        <pt x="255" y="22" on="0"/>
        <pt x="255" y="8" on="1"/>
        <pt x="255" y="-6" on="0"/>
        <pt x="247" y="-6" on="1"/>
        <pt x="225" y="-6" on="0"/>
        <pt x="195" y="-4" on="0"/>
        <pt x="168" y="-2" on="0"/>
        <pt x="140" y="0" on="0"/>
        <pt x="119" y="0" on="1"/>
        <pt x="102" y="0" on="0"/>
        <pt x="77" y="-2" on="0"/>
        <pt x="52" y="-4" on="0"/>
        <pt x="25" y="-6" on="0"/>
        <pt x="7" y="-6" on="1"/>
        <pt x="-2" y="-6" on="0"/>
        <pt x="0" y="8" on="1"/>
        <pt x="0" y="14" on="0"/>
        <pt x="8" y="21" on="0"/>
        <pt x="11" y="22" on="1"/>
        <pt x="37" y="24" on="0"/>
        <pt x="73" y="39" on="0"/>
        <pt x="98" y="65" on="0"/>
        <pt x="117" y="100" on="0"/>
        <pt x="127" y="122" on="1"/>
        <pt x="361" y="697" on="1"/>
        <pt x="364" y="705" on="0"/>
        <pt x="375" y="705" on="1"/>
        <pt x="387" y="705" on="0"/>
        <pt x="389" y="697" on="1"/>
        <pt x="597" y="122" on="1"/>
        <pt x="604" y="103" on="0"/>
        <pt x="623" y="69" on="0"/>
        <pt x="652" y="43" on="0"/>
        <pt x="694" y="25" on="0"/>
        <pt x="724" y="22" on="1"/>
        <pt x="727" y="21" on="0"/>
        <pt x="734" y="14" on="0"/>
      </contour>
      <contour>
        <pt x="343" y="561" on="1"/>
        <pt x="248" y="305" on="1"/>
        <pt x="431" y="305" on="1"/>
      </contour>
    </TTGlyph>
    <TTGlyph name="A.sc" xMin="0" yMin="-6" xMax="499" yMax="469">
      <component glyphName="a.sc" x="0" y="0" flags="0x204"/>
    </TTGlyph>
    <TTGlyph name="AE" xMin="0" yMin="-6" xMax="1034" yMax="690">
      <contour>
        <pt x="1032" y="159" on="1"/>
        <pt x="1012" y="117" on="0"/>
        <pt x="981" y="41" on="0"/>
        <pt x="966" y="-6" on="1"/>
        <pt x="942" y="-5" on="0"/>
        <pt x="871" y="-3" on="0"/>
        <pt x="794" y="-1" on="0"/>
        <pt x="722" y="0" on="0"/>
        <pt x="697" y="0" on="1"/>
        <pt x="672" y="0" on="0"/>
        <pt x="600" y="-1" on="0"/>
        <pt x="523" y="-3" on="0"/>
        <pt x="452" y="-5" on="0"/>
        <pt x="428" y="-6" on="1"/>
        <pt x="420" y="-6" on="0"/>
        <pt x="420" y="8" on="1"/>
        <pt x="420" y="20" on="0"/>
        <pt x="428" y="22" on="1"/>
        <pt x="464" y="26" on="0"/>
        <pt x="506" y="39" on="0"/>
        <pt x="527" y="59" on="0"/>
        <pt x="532" y="87" on="0"/>
        <pt x="532" y="106" on="1"/>
        <pt x="532" y="273" on="1"/>
        <pt x="310" y="273" on="1"/>
        <pt x="210" y="118" on="1"/>
        <pt x="184" y="77" on="0"/>
        <pt x="184" y="58" on="1"/>
        <pt x="184" y="40" on="0"/>
        <pt x="222" y="26" on="0"/>
        <pt x="257" y="22" on="1"/>
        <pt x="263" y="20" on="0"/>
        <pt x="263" y="8" on="1"/>
        <pt x="263" y="-6" on="0"/>
        <pt x="255" y="-6" on="1"/>
        <pt x="233" y="-6" on="0"/>
        <pt x="200" y="-4" on="0"/>
        <pt x="171" y="-2" on="0"/>
        <pt x="140" y="0" on="0"/>
        <pt x="119" y="0" on="1"/>
        <pt x="102" y="0" on="0"/>
        <pt x="76" y="-2" on="0"/>
        <pt x="51" y="-4" on="0"/>
        <pt x="24" y="-6" on="0"/>
        <pt x="6" y="-6" on="1"/>
        <pt x="0" y="-6" on="0"/>
        <pt x="0" y="8" on="1"/>
        <pt x="0" y="14" on="0"/>
        <pt x="7" y="21" on="0"/>
        <pt x="11" y="22" on="1"/>
        <pt x="38" y="25" on="0"/>
        <pt x="77" y="39" on="0"/>
        <pt x="109" y="64" on="0"/>
        <pt x="137" y="99" on="0"/>
        <pt x="153" y="122" on="1"/>
        <pt x="460" y="565" on="1"/>
        <pt x="474" y="585" on="0"/>
        <pt x="484" y="619" on="0"/>
        <pt x="470" y="645" on="0"/>
        <pt x="430" y="660" on="0"/>
        <pt x="394" y="662" on="1"/>
        <pt x="388" y="662" on="0"/>
        <pt x="388" y="676" on="1"/>
        <pt x="388" y="690" on="0"/>
        <pt x="396" y="690" on="1"/>
        <pt x="418" y="690" on="0"/>
        <pt x="478" y="688" on="0"/>
        <pt x="541" y="686" on="0"/>
        <pt x="599" y="684" on="0"/>
        <pt x="619" y="684" on="1"/>
        <pt x="644" y="684" on="0"/>
        <pt x="735" y="685" on="0"/>
        <pt x="833" y="687" on="0"/>
        <pt x="922" y="689" on="0"/>
        <pt x="946" y="690" on="1"/>
        <pt x="952" y="648" on="0"/>
        <pt x="967" y="580" on="0"/>
        <pt x="979" y="539" on="1"/>
        <pt x="981" y="534" on="0"/>
        <pt x="969" y="527" on="0"/>
        <pt x="961" y="527" on="1"/>
        <pt x="953" y="527" on="0"/>
        <pt x="951" y="534" on="1"/>
        <pt x="940" y="569" on="0"/>
        <pt x="906" y="614" on="0"/>
        <pt x="864" y="641" on="0"/>
        <pt x="816" y="652" on="0"/>
        <pt x="792" y="652" on="1"/>
        <pt x="692" y="652" on="1"/>
        <pt x="682" y="652" on="0"/>
        <pt x="662" y="647" on="0"/>
        <pt x="645" y="634" on="0"/>
        <pt x="634" y="610" on="0"/>
        <pt x="634" y="592" on="1"/>
        <pt x="634" y="369" on="1"/>
        <pt x="760" y="369" on="1"/>
        <pt x="779" y="369" on="0"/>
        <pt x="810" y="375" on="0"/>
        <pt x="832" y="396" on="0"/>
        <pt x="848" y="438" on="0"/>
        <pt x="852" y="474" on="1"/>
        <pt x="854" y="482" on="0"/>
        <pt x="867" y="482" on="1"/>
        <pt x="872" y="482" on="0"/>
        <pt x="881" y="478" on="0"/>
        <pt x="881" y="474" on="1"/>
        <pt x="881" y="455" on="0"/>
        <pt x="879" y="425" on="0"/>
        <pt x="877" y="397" on="0"/>
        <pt x="875" y="369" on="0"/>
        <pt x="875" y="351" on="1"/>
        <pt x="875" y="316" on="0"/>
        <pt x="881" y="264" on="0"/>
        <pt x="881" y="227" on="1"/>
        <pt x="881" y="224" on="0"/>
        <pt x="872" y="219" on="0"/>
        <pt x="867" y="219" on="1"/>
        <pt x="854" y="219" on="0"/>
        <pt x="852" y="227" on="1"/>
        <pt x="848" y="263" on="0"/>
        <pt x="832" y="307" on="0"/>
        <pt x="810" y="330" on="0"/>
        <pt x="779" y="337" on="0"/>
        <pt x="760" y="337" on="1"/>
        <pt x="634" y="337" on="1"/>
        <pt x="634" y="91" on="1"/>
        <pt x="634" y="73" on="0"/>
        <pt x="645" y="50" on="0"/>
        <pt x="662" y="37" on="0"/>
        <pt x="682" y="32" on="0"/>
        <pt x="692" y="32" on="1"/>
        <pt x="800" y="32" on="1"/>
        <pt x="830" y="32" on="0"/>
        <pt x="891" y="52" on="0"/>
        <pt x="946" y="88" on="0"/>
        <pt x="991" y="138" on="0"/>
        <pt x="1005" y="168" on="1"/>
        <pt x="1006" y="172" on="0"/>
        <pt x="1014" y="172" on="1"/>
        <pt x="1022" y="172" on="0"/>
        <pt x="1034" y="163" on="0"/>
      </contour>
      <contour>
        <pt x="532" y="609" on="1"/>
        <pt x="331" y="305" on="1"/>
        <pt x="532" y="305" on="1"/>
      </contour>
    </TTGlyph>
    <TTGlyph name="AE.sc" xMin="0" yMin="-6" xMax="720" yMax="456">
      <component glyphName="ae.sc" x="0" y="0" flags="0x204"/>
    </TTGlyph>
    <TTGlyph name="AEacute" xMin="0" yMin="-6" xMax="1034" yMax="924">
      <component glyphName="AE" x="0" y="0" flags="0x204"/>
      <component glyphName="acute.cap" x="522" y="0" flags="0x4"/>
    </TTGlyph>
    <TTGlyph name="AEacute.sc" xMin="0" yMin="-6" xMax="720" yMax="691">
      <component glyphName="acute" x="357" y="15" flags="0x4"/>
      <component glyphName="ae.sc" x="0" y="0" flags="0x4"/>
    </TTGlyph>
    <TTGlyph name="Aacute" xMin="-2" yMin="-6" xMax="734" yMax="939">
      <component glyphName="A" x="0" y="0" flags="0x204"/>
      <component glyphName="acute.cap" x="253" y="15" flags="0x4"/>
    </TTGlyph>
    <TTGlyph name="Aacute.sc" xMin="0" yMin="-6" xMax="499" yMax="696">
      <component glyphName="a.sc" x="0" y="0" flags="0x204"/>
      <component glyphName="acute" x="145" y="20" flags="0x4"/>
    </TTGlyph>
    <TTGlyph name="Abreve" xMin="-2" yMin="-6" xMax="734" yMax="922">
      <component glyphName="A" x="0" y="0" flags="0x204"/>
      <component glyphName="breve.cap" x="200" y="15" flags="0x4"/>
    </TTGlyph>
    <TTGlyph name="Abreve.sc" xMin="0" yMin="-6" xMax="499" yMax="686">
      <component glyphName="a.sc" x="0" y="0" flags="0x204"/>
      <component glyphName="breve" x="82" y="20" flags="0x4"/>
    </TTGlyph>
    <TTGlyph name="Acircumflex" xMin="-2" yMin="-6" xMax="734" yMax="906">
      <component glyphName="A" x="0" y="0" flags="0x204"/>
      <component glyphName="circumflex.cap" x="200" y="-4" flags="0x4"/>
    </TTGlyph>
    <TTGlyph name="Acircumflex.sc" xMin="0" yMin="-6" xMax="499" yMax="700">
      <component glyphName="a.sc" x="0" y="0" flags="0x204"/>
      <component glyphName="circumflex" x="82" y="20" flags="0x4"/>
    </TTGlyph>
    <TTGlyph name="Adieresis" xMin="-2" yMin="-6" xMax="734" yMax="883">
      <component glyphName="A" x="0" y="0" flags="0x204"/>
      <component glyphName="dieresis.cap" x="201" y="15" flags="0x4"/>
    </TTGlyph>
    <TTGlyph name="Adieresis.sc" xMin="0" yMin="-6" xMax="499" yMax="649">
      <component glyphName="a.sc" x="0" y="0" flags="0x204"/>
      <component glyphName="dieresis" x="82" y="20" flags="0x4"/>
    </TTGlyph>
    <TTGlyph name="Agrave" xMin="-2" yMin="-6" xMax="734" yMax="939">
      <component glyphName="A" x="0" y="0" flags="0x204"/>
      <component glyphName="grave.cap" x="136" y="15" flags="0x4"/>
    </TTGlyph>
    <TTGlyph name="Agrave.sc" xMin="0" yMin="-6" xMax="499" yMax="696">
      <component glyphName="a.sc" x="0" y="0" flags="0x204"/>
      <component glyphName="grave" x="10" y="20" flags="0x4"/>
    </TTGlyph>
    <TTGlyph name="Amacron" xMin="-2" yMin="-6" xMax="734" yMax="859">
      <component glyphName="A" x="0" y="0" flags="0x204"/>
      <component glyphName="macron.cap" x="199" y="15" flags="0x4"/>
    </TTGlyph>
    <TTGlyph name="Amacron.sc" xMin="0" yMin="-6" xMax="499" yMax="617">
      <component glyphName="a.sc" x="0" y="0" flags="0x204"/>
      <component glyphName="macron" x="74" y="20" flags="0x4"/>
    </TTGlyph>
    <TTGlyph name="Aogonek" xMin="-2" yMin="-225" xMax="734" yMax="705">
      <contour>
        <pt x="691" y="-179" on="1"/>
        <pt x="675" y="-201" on="0"/>
        <pt x="626" y="-225" on="0"/>
        <pt x="590" y="-225" on="1"/>
        <pt x="567" y="-225" on="0"/>
        <pt x="535" y="-211" on="0"/>
        <pt x="514" y="-188" on="0"/>
        <pt x="504" y="-159" on="0"/>
        <pt x="504" y="-144" on="1"/>
        <pt x="504" y="-76" on="0"/>
        <pt x="588" y="0" on="1"/>
        <pt x="584" y="0" on="1"/>
        <pt x="561" y="0" on="0"/>
        <pt x="524" y="-2" on="0"/>
        <pt x="490" y="-4" on="0"/>
        <pt x="452" y="-6" on="0"/>
        <pt x="427" y="-6" on="1"/>
        <pt x="419" y="-6" on="0"/>
        <pt x="419" y="8" on="1"/>
        <pt x="419" y="22" on="0"/>
        <pt x="425" y="22" on="1"/>
        <pt x="474" y="24" on="0"/>
        <pt x="509" y="45" on="0"/>
        <pt x="509" y="64" on="1"/>
        <pt x="509" y="73" on="0"/>
        <pt x="504" y="94" on="0"/>
        <pt x="500" y="106" on="1"/>
        <pt x="442" y="273" on="1"/>
        <pt x="236" y="273" on="1"/>
        <pt x="179" y="118" on="1"/>
        <pt x="174" y="105" on="0"/>
        <pt x="168" y="81" on="0"/>
        <pt x="168" y="70" on="1"/>
        <pt x="168" y="50" on="0"/>
        <pt x="202" y="24" on="0"/>
        <pt x="249" y="22" on="1"/>
        <pt x="255" y="22" on="0"/>
        <pt x="255" y="8" on="1"/>
        <pt x="255" y="-6" on="0"/>
        <pt x="247" y="-6" on="1"/>
        <pt x="225" y="-6" on="0"/>
        <pt x="195" y="-4" on="0"/>
        <pt x="168" y="-2" on="0"/>
        <pt x="140" y="0" on="0"/>
        <pt x="119" y="0" on="1"/>
        <pt x="102" y="0" on="0"/>
        <pt x="77" y="-2" on="0"/>
        <pt x="52" y="-4" on="0"/>
        <pt x="25" y="-6" on="0"/>
        <pt x="7" y="-6" on="1"/>
        <pt x="-2" y="-6" on="0"/>
        <pt x="0" y="8" on="1"/>
        <pt x="0" y="14" on="0"/>
        <pt x="8" y="21" on="0"/>
        <pt x="11" y="22" on="1"/>
        <pt x="37" y="24" on="0"/>
        <pt x="73" y="39" on="0"/>
        <pt x="98" y="65" on="0"/>
        <pt x="117" y="100" on="0"/>
        <pt x="127" y="122" on="1"/>
        <pt x="361" y="697" on="1"/>
        <pt x="364" y="705" on="0"/>
        <pt x="375" y="705" on="1"/>
        <pt x="387" y="705" on="0"/>
        <pt x="389" y="697" on="1"/>
        <pt x="597" y="122" on="1"/>
        <pt x="604" y="103" on="0"/>
        <pt x="623" y="69" on="0"/>
        <pt x="652" y="43" on="0"/>
        <pt x="694" y="25" on="0"/>
        <pt x="724" y="22" on="1"/>
        <pt x="727" y="21" on="0"/>
        <pt x="734" y="14" on="0"/>
        <pt x="734" y="8" on="1"/>
        <pt x="734" y="-6" on="0"/>
        <pt x="726" y="-6" on="1"/>
        <pt x="693" y="-6" on="0"/>
        <pt x="651" y="-3" on="0"/>
        <pt x="630" y="-1" on="1"/>
        <pt x="601" y="-31" on="0"/>
        <pt x="571" y="-93" on="0"/>
        <pt x="571" y="-122" on="1"/>
        <pt x="571" y="-174" on="0"/>
        <pt x="628" y="-174" on="1"/>
        <pt x="642" y="-174" on="0"/>
        <pt x="665" y="-162" on="0"/>
        <pt x="676" y="-155" on="1"/>
        <pt x="679" y="-153" on="0"/>
        <pt x="687" y="-158" on="0"/>
        <pt x="690" y="-163" on="1"/>
        <pt x="695" y="-172" on="0"/>
      </contour>
      <contour>
        <pt x="343" y="561" on="1"/>
        <pt x="248" y="305" on="1"/>
        <pt x="431" y="305" on="1"/>
      </contour>
    </TTGlyph>
    <TTGlyph name="Aogonek.sc" xMin="0" yMin="-225" xMax="504" yMax="469">
      <component glyphName="aogonek.sc" x="0" y="0" flags="0x204"/>
    </TTGlyph>
    <TTGlyph name="Aring" xMin="-2" yMin="-6" xMax="734" yMax="887">
      <contour>
        <pt x="734" y="8" on="1"/>
        <pt x="734" y="-6" on="0"/>
        <pt x="726" y="-6" on="1"/>
        <pt x="701" y="-6" on="0"/>
        <pt x="666" y="-4" on="0"/>
        <pt x="636" y="-2" on="0"/>
        <pt x="605" y="0" on="0"/>
        <pt x="584" y="0" on="1"/>
        <pt x="561" y="0" on="0"/>
        <pt x="524" y="-2" on="0"/>
        <pt x="490" y="-4" on="0"/>
        <pt x="452" y="-6" on="0"/>
        <pt x="427" y="-6" on="1"/>
        <pt x="419" y="-6" on="0"/>
        <pt x="419" y="8" on="1"/>
        <pt x="419" y="22" on="0"/>
        <pt x="425" y="22" on="1"/>
        <pt x="474" y="24" on="0"/>
        <pt x="509" y="45" on="0"/>
        <pt x="509" y="64" on="1"/>
        <pt x="509" y="73" on="0"/>
        <pt x="504" y="94" on="0"/>
        <pt x="500" y="106" on="1"/>
        <pt x="442" y="273" on="1"/>
        <pt x="236" y="273" on="1"/>
        <pt x="179" y="118" on="1"/>
        <pt x="174" y="105" on="0"/>
        <pt x="168" y="81" on="0"/>
        <pt x="168" y="70" on="1"/>
        <pt x="168" y="50" on="0"/>
        <pt x="202" y="24" on="0"/>
        <pt x="249" y="22" on="1"/>
        <pt x="255" y="22" on="0"/>
        <pt x="255" y="8" on="1"/>
        <pt x="255" y="-6" on="0"/>
        <pt x="247" y="-6" on="1"/>
        <pt x="225" y="-6" on="0"/>
        <pt x="195" y="-4" on="0"/>
        <pt x="168" y="-2" on="0"/>
        <pt x="140" y="0" on="0"/>
        <pt x="119" y="0" on="1"/>
        <pt x="102" y="0" on="0"/>
        <pt x="77" y="-2" on="0"/>
        <pt x="52" y="-4" on="0"/>
        <pt x="25" y="-6" on="0"/>
        <pt x="7" y="-6" on="1"/>
        <pt x="-2" y="-6" on="0"/>
        <pt x="0" y="8" on="1"/>
        <pt x="0" y="14" on="0"/>
        <pt x="8" y="21" on="0"/>
        <pt x="11" y="22" on="1"/>
        <pt x="37" y="24" on="0"/>
        <pt x="73" y="39" on="0"/>
        <pt x="98" y="65" on="0"/>
        <pt x="117" y="100" on="0"/>
        <pt x="127" y="122" on="1"/>
        <pt x="359" y="691" on="1"/>
        <pt x="319" y="697" on="0"/>
        <pt x="271" y="754" on="0"/>
        <pt x="271" y="789" on="1"/>
        <pt x="271" y="808" on="0"/>
        <pt x="286" y="844" on="0"/>
        <pt x="314" y="871" on="0"/>
        <pt x="352" y="887" on="0"/>
        <pt x="375" y="887" on="1"/>
        <pt x="398" y="887" on="0"/>
        <pt x="436" y="871" on="0"/>
        <pt x="464" y="844" on="0"/>
        <pt x="479" y="808" on="0"/>
        <pt x="479" y="789" on="1"/>
        <pt x="479" y="754" on="0"/>
        <pt x="430" y="697" on="0"/>
        <pt x="391" y="691" on="1"/>
        <pt x="597" y="122" on="1"/>
        <pt x="604" y="103" on="0"/>
        <pt x="623" y="69" on="0"/>
        <pt x="652" y="43" on="0"/>
        <pt x="694" y="25" on="0"/>
        <pt x="724" y="22" on="1"/>
        <pt x="727" y="21" on="0"/>
        <pt x="734" y="14" on="0"/>
      </contour>
      <contour>
        <pt x="435" y="789" on="1"/>
        <pt x="435" y="817" on="0"/>
        <pt x="401" y="855" on="0"/>
        <pt x="375" y="855" on="1"/>
        <pt x="349" y="855" on="0"/>
        <pt x="315" y="817" on="0"/>
        <pt x="315" y="789" on="1"/>
        <pt x="315" y="760" on="0"/>
        <pt x="349" y="722" on="0"/>
        <pt x="375" y="722" on="1"/>
        <pt x="401" y="722" on="0"/>
        <pt x="435" y="760" on="0"/>
      </contour>
      <contour>
        <pt x="343" y="561" on="1"/>
        <pt x="248" y="305" on="1"/>
        <pt x="431" y="305" on="1"/>
      </contour>
    </TTGlyph>
    <TTGlyph name="Aring.sc" xMin="0" yMin="-6" xMax="499" yMax="643">
      <component glyphName="aring.sc" x="0" y="0" flags="0x204"/>
    </TTGlyph>
    <TTGlyph name="Aringacute" xMin="-2" yMin="-6" xMax="734" yMax="1080">
      <component glyphName="Aring" x="0" y="0" flags="0x204"/>
      <component glyphName="acute" x="285" y="404" flags="0x4"/>
    </TTGlyph>
    <TTGlyph name="Aringacute.sc" xMin="236" yMin="661" xMax="436" yMax="832">
      <component glyphName="acute" x="164" y="156" flags="0x4"/>
    </TTGlyph>
    <TTGlyph name="Atilde" xMin="-2" yMin="-6" xMax="734" yMax="934">
      <component glyphName="A" x="0" y="0" flags="0x204"/>
      <component glyphName="tilde.cap" x="216" y="15" flags="0x4"/>
    </TTGlyph>
    <TTGlyph name="Atilde.sc" xMin="0" yMin="-6" xMax="499" yMax="678">
      <component glyphName="a.sc" x="0" y="0" flags="0x204"/>
      <component glyphName="tilde" x="101" y="20" flags="0x4"/>
    </TTGlyph>
    <TTGlyph name="B" xMin="28" yMin="-6" xMax="616" yMax="690">
      <contour>
        <pt x="616" y="198" on="1"/>
        <pt x="616" y="151" on="0"/>
        <pt x="583" y="76" on="0"/>
        <pt x="524" y="23" on="0"/>
        <pt x="440" y="-6" on="0"/>
        <pt x="389" y="-6" on="1"/>
        <pt x="339" y="-6" on="0"/>
        <pt x="252" y="0" on="0"/>
        <pt x="205" y="0" on="1"/>
        <pt x="182" y="0" on="0"/>
        <pt x="142" y="-2" on="0"/>
        <pt x="102" y="-4" on="0"/>
        <pt x="61" y="-6" on="0"/>
        <pt x="36" y="-6" on="1"/>
        <pt x="28" y="-6" on="0"/>
        <pt x="28" y="8" on="1"/>
        <pt x="28" y="20" on="0"/>
        <pt x="36" y="22" on="1"/>
        <pt x="72" y="26" on="0"/>
        <pt x="114" y="39" on="0"/>
        <pt x="135" y="59" on="0"/>
        <pt x="140" y="87" on="0"/>
        <pt x="140" y="106" on="1"/>
        <pt x="140" y="577" on="1"/>
        <pt x="140" y="596" on="0"/>
        <pt x="135" y="625" on="0"/>
        <pt x="114" y="644" on="0"/>
        <pt x="72" y="657" on="0"/>
        <pt x="36" y="662" on="1"/>
        <pt x="28" y="662" on="0"/>
        <pt x="28" y="676" on="1"/>
        <pt x="28" y="681" on="0"/>
        <pt x="33" y="690" on="0"/>
        <pt x="36" y="690" on="1"/>
        <pt x="61" y="690" on="0"/>
        <pt x="99" y="688" on="0"/>
        <pt x="135" y="686" on="0"/>
        <pt x="172" y="684" on="0"/>
        <pt x="195" y="684" on="1"/>
        <pt x="218" y="684" on="0"/>
        <pt x="257" y="686" on="0"/>
        <pt x="296" y="688" on="0"/>
        <pt x="336" y="690" on="0"/>
        <pt x="361" y="690" on="1"/>
        <pt x="408" y="690" on="0"/>
        <pt x="485" y="667" on="0"/>
        <pt x="540" y="624" on="0"/>
        <pt x="570" y="564" on="0"/>
        <pt x="570" y="528" on="1"/>
        <pt x="570" y="502" on="0"/>
        <pt x="547" y="453" on="0"/>
        <pt x="507" y="412" on="0"/>
        <pt x="453" y="381" on="0"/>
        <pt x="422" y="374" on="1"/>
        <pt x="462" y="366" on="0"/>
        <pt x="533" y="335" on="0"/>
        <pt x="586" y="291" on="0"/>
        <pt x="616" y="233" on="0"/>
      </contour>
      <contour>
        <pt x="459" y="528" on="1"/>
        <pt x="459" y="591" on="0"/>
        <pt x="397" y="656" on="0"/>
        <pt x="325" y="656" on="1"/>
        <pt x="305" y="656" on="1"/>
        <pt x="270" y="656" on="0"/>
        <pt x="242" y="627" on="0"/>
        <pt x="242" y="602" on="1"/>
        <pt x="242" y="384" on="1"/>
        <pt x="314" y="384" on="1"/>
        <pt x="394" y="384" on="0"/>
        <pt x="459" y="455" on="0"/>
      </contour>
      <contour>
        <pt x="506" y="198" on="1"/>
        <pt x="506" y="269" on="0"/>
        <pt x="426" y="352" on="0"/>
        <pt x="351" y="352" on="1"/>
        <pt x="242" y="352" on="1"/>
        <pt x="242" y="106" on="1"/>
        <pt x="242" y="87" on="0"/>
        <pt x="251" y="57" on="0"/>
        <pt x="276" y="37" on="0"/>
        <pt x="321" y="27" on="0"/>
        <pt x="357" y="27" on="1"/>
        <pt x="388" y="27" on="0"/>
        <pt x="443" y="51" on="0"/>
        <pt x="483" y="95" on="0"/>
        <pt x="506" y="158" on="0"/>
      </contour>
    </TTGlyph>
    <TTGlyph name="B.sc" xMin="41" yMin="-6" xMax="468" yMax="456">
      <component glyphName="b.sc" x="0" y="0" flags="0x204"/>
    </TTGlyph>
    <TTGlyph name="C" xMin="45" yMin="-22" xMax="708" yMax="705">
      <contour>
        <pt x="708" y="179" on="1"/>
        <pt x="700" y="143" on="0"/>
        <pt x="681" y="50" on="0"/>
        <pt x="673" y="9" on="1"/>
        <pt x="650" y="9" on="0"/>
        <pt x="591" y="-1" on="0"/>
        <pt x="527" y="-12" on="0"/>
        <pt x="459" y="-22" on="0"/>
        <pt x="427" y="-22" on="1"/>
        <pt x="331" y="-22" on="0"/>
        <pt x="188" y="38" on="0"/>
        <pt x="92" y="139" on="0"/>
        <pt x="45" y="269" on="0"/>
        <pt x="45" y="338" on="1"/>
        <pt x="45" y="411" on="0"/>
        <pt x="100" y="544" on="0"/>
        <pt x="201" y="645" on="0"/>
        <pt x="346" y="705" on="0"/>
        <pt x="436" y="705" on="1"/>
        <pt x="469" y="705" on="0"/>
        <pt x="527" y="699" on="0"/>
        <pt x="580" y="693" on="0"/>
        <pt x="629" y="687" on="0"/>
        <pt x="652" y="687" on="1"/>
        <pt x="656" y="645" on="0"/>
        <pt x="668" y="558" on="0"/>
        <pt x="675" y="517" on="1"/>
        <pt x="675" y="513" on="0"/>
        <pt x="665" y="509" on="0"/>
        <pt x="659" y="509" on="1"/>
        <pt x="649" y="509" on="0"/>
        <pt x="647" y="517" on="1"/>
        <pt x="639" y="548" on="0"/>
        <pt x="601" y="604" on="0"/>
        <pt x="546" y="647" on="0"/>
        <pt x="474" y="673" on="0"/>
        <pt x="432" y="673" on="1"/>
        <pt x="372" y="673" on="0"/>
        <pt x="271" y="620" on="0"/>
        <pt x="197" y="529" on="0"/>
        <pt x="155" y="407" on="0"/>
        <pt x="155" y="338" on="1"/>
        <pt x="155" y="270" on="0"/>
        <pt x="197" y="151" on="0"/>
        <pt x="270" y="62" on="0"/>
        <pt x="370" y="10" on="0"/>
        <pt x="427" y="10" on="1"/>
        <pt x="523" y="10" on="0"/>
        <pt x="646" y="102" on="0"/>
        <pt x="680" y="179" on="1"/>
        <pt x="684" y="187" on="0"/>
        <pt x="694" y="187" on="1"/>
        <pt x="708" y="187" on="0"/>
      </contour>
    </TTGlyph>
    <TTGlyph name="C.sc" xMin="35" yMin="-21" xMax="505" yMax="471">
      <component glyphName="c.sc" x="0" y="0" flags="0x204"/>
    </TTGlyph>
    <TTGlyph name="Cacute" xMin="45" yMin="-22" xMax="708" yMax="939">
      <component glyphName="C" x="0" y="0" flags="0x204"/>
      <component glyphName="acute.cap" x="303" y="15" flags="0x4"/>
    </TTGlyph>
    <TTGlyph name="Cacute.sc" xMin="35" yMin="-21" xMax="505" yMax="696">
      <component glyphName="c.sc" x="0" y="0" flags="0x204"/>
      <component glyphName="acute" x="192" y="20" flags="0x4"/>
    </TTGlyph>
    <TTGlyph name="Ccaron" xMin="45" yMin="-22" xMax="708" yMax="933">
      <component glyphName="C" x="0" y="0" flags="0x204"/>
      <component glyphName="caron.cap" x="250" y="15" flags="0x4"/>
    </TTGlyph>
    <TTGlyph name="Ccaron.sc" xMin="35" yMin="-21" xMax="505" yMax="706">
      <component glyphName="c.sc" x="0" y="0" flags="0x204"/>
      <component glyphName="caron" x="129" y="20" flags="0x4"/>
    </TTGlyph>
    <TTGlyph name="Ccedilla" xMin="45" yMin="-225" xMax="708" yMax="705">
      <contour>
        <pt x="708" y="179" on="1"/>
        <pt x="700" y="143" on="0"/>
        <pt x="681" y="50" on="0"/>
        <pt x="673" y="9" on="1"/>
        <pt x="650" y="9" on="0"/>
        <pt x="594" y="0" on="0"/>
        <pt x="531" y="-11" on="0"/>
        <pt x="465" y="-21" on="0"/>
        <pt x="434" y="-22" on="1"/>
        <pt x="426" y="-35" on="1"/>
        <pt x="423" y="-40" on="0"/>
        <pt x="423" y="-44" on="1"/>
        <pt x="423" y="-52" on="0"/>
        <pt x="433" y="-59" on="1"/>
        <pt x="455" y="-73" on="0"/>
        <pt x="485" y="-111" on="0"/>
        <pt x="485" y="-134" on="1"/>
        <pt x="485" y="-152" on="0"/>
        <pt x="469" y="-184" on="0"/>
        <pt x="440" y="-210" on="0"/>
        <pt x="398" y="-225" on="0"/>
        <pt x="373" y="-225" on="1"/>
        <pt x="344" y="-225" on="0"/>
        <pt x="313" y="-204" on="0"/>
        <pt x="313" y="-189" on="1"/>
        <pt x="313" y="-180" on="0"/>
        <pt x="326" y="-162" on="0"/>
        <pt x="339" y="-162" on="1"/>
        <pt x="349" y="-162" on="0"/>
        <pt x="365" y="-171" on="0"/>
        <pt x="379" y="-183" on="0"/>
        <pt x="393" y="-192" on="0"/>
        <pt x="402" y="-192" on="1"/>
        <pt x="413" y="-192" on="0"/>
        <pt x="429" y="-177" on="0"/>
        <pt x="429" y="-160" on="1"/>
        <pt x="429" y="-142" on="0"/>
        <pt x="392" y="-108" on="0"/>
        <pt x="370" y="-97" on="1"/>
        <pt x="360" y="-92" on="0"/>
        <pt x="360" y="-82" on="1"/>
        <pt x="360" y="-78" on="0"/>
        <pt x="363" y="-73" on="1"/>
        <pt x="396" y="-21" on="1"/>
        <pt x="308" y="-16" on="0"/>
        <pt x="176" y="47" on="0"/>
        <pt x="89" y="146" on="0"/>
        <pt x="45" y="272" on="0"/>
        <pt x="45" y="338" on="1"/>
        <pt x="45" y="411" on="0"/>
        <pt x="100" y="544" on="0"/>
        <pt x="201" y="645" on="0"/>
        <pt x="346" y="705" on="0"/>
        <pt x="436" y="705" on="1"/>
        <pt x="469" y="705" on="0"/>
        <pt x="527" y="699" on="0"/>
        <pt x="580" y="693" on="0"/>
        <pt x="629" y="687" on="0"/>
        <pt x="652" y="687" on="1"/>
        <pt x="656" y="645" on="0"/>
        <pt x="668" y="558" on="0"/>
        <pt x="675" y="517" on="1"/>
        <pt x="675" y="513" on="0"/>
        <pt x="665" y="509" on="0"/>
        <pt x="659" y="509" on="1"/>
        <pt x="649" y="509" on="0"/>
        <pt x="647" y="517" on="1"/>
        <pt x="639" y="548" on="0"/>
        <pt x="601" y="604" on="0"/>
        <pt x="546" y="647" on="0"/>
        <pt x="474" y="673" on="0"/>
        <pt x="432" y="673" on="1"/>
        <pt x="372" y="673" on="0"/>
        <pt x="271" y="620" on="0"/>
        <pt x="197" y="529" on="0"/>
        <pt x="155" y="407" on="0"/>
        <pt x="155" y="338" on="1"/>
        <pt x="155" y="270" on="0"/>
        <pt x="197" y="151" on="0"/>
        <pt x="270" y="62" on="0"/>
        <pt x="370" y="10" on="0"/>
        <pt x="427" y="10" on="1"/>
        <pt x="523" y="10" on="0"/>
        <pt x="646" y="102" on="0"/>
        <pt x="680" y="179" on="1"/>
        <pt x="684" y="187" on="0"/>
        <pt x="694" y="187" on="1"/>
        <pt x="708" y="187" on="0"/>
      </contour>
    </TTGlyph>
    <TTGlyph name="Ccedilla.sc" xMin="35" yMin="-225" xMax="505" yMax="471">
      <component glyphName="ccedilla.sc" x="0" y="0" flags="0x204"/>
    </TTGlyph>
    <TTGlyph name="Cdotaccent" xMin="45" yMin="-22" xMax="708" yMax="883">
      <component glyphName="C" x="0" y="0" flags="0x204"/>
      <component glyphName="dotaccent.cap" x="250" y="15" flags="0x4"/>
    </TTGlyph>
    <TTGlyph name="Cdotaccent.sc" xMin="35" yMin="-21" xMax="505" yMax="650">
      <component glyphName="c.sc" x="0" y="0" flags="0x204"/>
      <component glyphName="dotaccent" x="129" y="20" flags="0x4"/>
    </TTGlyph>
    <TTGlyph name="D" xMin="29" yMin="-6" xMax="781" yMax="688">
      <contour>
        <pt x="781" y="337" on="1"/>
        <pt x="781" y="268" on="0"/>
        <pt x="734" y="143" on="0"/>
        <pt x="638" y="49" on="0"/>
        <pt x="495" y="-6" on="0"/>
        <pt x="399" y="-6" on="1"/>
        <pt x="382" y="-6" on="0"/>
        <pt x="335" y="-5" on="0"/>
        <pt x="284" y="-3" on="0"/>
        <pt x="235" y="-2" on="0"/>
        <pt x="218" y="-2" on="1"/>
        <pt x="200" y="-2" on="0"/>
        <pt x="152" y="-3" on="0"/>
        <pt x="101" y="-4" on="0"/>
        <pt x="53" y="-5" on="0"/>
        <pt x="37" y="-6" on="1"/>
        <pt x="29" y="-6" on="0"/>
        <pt x="29" y="8" on="1"/>
        <pt x="29" y="20" on="0"/>
        <pt x="37" y="22" on="1"/>
        <pt x="73" y="26" on="0"/>
        <pt x="115" y="39" on="0"/>
        <pt x="135" y="59" on="0"/>
        <pt x="140" y="87" on="0"/>
        <pt x="140" y="106" on="1"/>
        <pt x="140" y="575" on="1"/>
        <pt x="140" y="594" on="0"/>
        <pt x="135" y="623" on="0"/>
        <pt x="115" y="642" on="0"/>
        <pt x="73" y="655" on="0"/>
        <pt x="37" y="660" on="1"/>
        <pt x="29" y="660" on="0"/>
        <pt x="29" y="674" on="1"/>
        <pt x="29" y="679" on="0"/>
        <pt x="33" y="688" on="0"/>
        <pt x="37" y="688" on="1"/>
        <pt x="53" y="687" on="0"/>
        <pt x="101" y="685" on="0"/>
        <pt x="152" y="684" on="0"/>
        <pt x="200" y="684" on="0"/>
        <pt x="218" y="684" on="1"/>
        <pt x="235" y="684" on="0"/>
        <pt x="284" y="685" on="0"/>
        <pt x="335" y="686" on="0"/>
        <pt x="382" y="687" on="0"/>
        <pt x="399" y="687" on="1"/>
        <pt x="489" y="687" on="0"/>
        <pt x="631" y="632" on="0"/>
        <pt x="729" y="538" on="0"/>
        <pt x="781" y="410" on="0"/>
      </contour>
      <contour>
        <pt x="671" y="337" on="1"/>
        <pt x="671" y="406" on="0"/>
        <pt x="629" y="523" on="0"/>
        <pt x="554" y="608" on="0"/>
        <pt x="453" y="655" on="0"/>
        <pt x="395" y="654" on="1"/>
        <pt x="301" y="652" on="1"/>
        <pt x="290" y="652" on="0"/>
        <pt x="269" y="647" on="0"/>
        <pt x="253" y="635" on="0"/>
        <pt x="242" y="612" on="0"/>
        <pt x="242" y="594" on="1"/>
        <pt x="242" y="87" on="1"/>
        <pt x="242" y="69" on="0"/>
        <pt x="253" y="46" on="0"/>
        <pt x="269" y="34" on="0"/>
        <pt x="290" y="30" on="0"/>
        <pt x="301" y="30" on="1"/>
        <pt x="395" y="27" on="1"/>
        <pt x="452" y="27" on="0"/>
        <pt x="553" y="73" on="0"/>
        <pt x="628" y="156" on="0"/>
        <pt x="671" y="269" on="0"/>
      </contour>
    </TTGlyph>
    <TTGlyph name="D.sc" xMin="41" yMin="-5" xMax="577" yMax="456">
      <component glyphName="d.sc" x="0" y="0" flags="0x204"/>
    </TTGlyph>
    <TTGlyph name="Dcaron" xMin="29" yMin="-6" xMax="781" yMax="918">
      <component glyphName="D" x="0" y="0" flags="0x204"/>
      <component glyphName="caron.cap" x="220" y="0" flags="0x4"/>
    </TTGlyph>
    <TTGlyph name="Dcaron.sc" xMin="41" yMin="-5" xMax="577" yMax="701">
      <component glyphName="d.sc" x="0" y="0" flags="0x204"/>
      <component glyphName="caron" x="133" y="15" flags="0x4"/>
    </TTGlyph>
    <TTGlyph name="Dcroat" xMin="9" yMin="-9" xMax="782" yMax="687">
      <contour>
        <pt x="782" y="335" on="1"/>
        <pt x="782" y="266" on="0"/>
        <pt x="734" y="141" on="0"/>
        <pt x="639" y="47" on="0"/>
        <pt x="495" y="-9" on="0"/>
        <pt x="399" y="-9" on="1"/>
        <pt x="382" y="-9" on="0"/>
        <pt x="335" y="-8" on="0"/>
        <pt x="284" y="-6" on="0"/>
        <pt x="236" y="-5" on="0"/>
        <pt x="218" y="-5" on="1"/>
        <pt x="201" y="-5" on="0"/>
        <pt x="152" y="-5" on="0"/>
        <pt x="101" y="-6" on="0"/>
        <pt x="53" y="-8" on="0"/>
        <pt x="37" y="-9" on="1"/>
        <pt x="29" y="-9" on="0"/>
        <pt x="29" y="5" on="1"/>
        <pt x="29" y="19" on="0"/>
        <pt x="37" y="19" on="1"/>
        <pt x="73" y="23" on="0"/>
        <pt x="115" y="37" on="0"/>
        <pt x="136" y="56" on="0"/>
        <pt x="141" y="84" on="0"/>
        <pt x="141" y="104" on="1"/>
        <pt x="141" y="312" on="1"/>
        <pt x="21" y="308" on="1"/>
        <pt x="15" y="308" on="0"/>
        <pt x="9" y="323" on="0"/>
        <pt x="9" y="335" on="1"/>
        <pt x="9" y="346" on="0"/>
        <pt x="16" y="362" on="0"/>
        <pt x="21" y="362" on="1"/>
        <pt x="141" y="362" on="1"/>
        <pt x="141" y="574" on="1"/>
        <pt x="141" y="593" on="0"/>
        <pt x="136" y="622" on="0"/>
        <pt x="115" y="642" on="0"/>
        <pt x="73" y="655" on="0"/>
        <pt x="37" y="659" on="1"/>
        <pt x="29" y="661" on="0"/>
        <pt x="29" y="673" on="1"/>
        <pt x="29" y="687" on="0"/>
        <pt x="37" y="687" on="1"/>
        <pt x="53" y="686" on="0"/>
        <pt x="101" y="685" on="0"/>
        <pt x="152" y="684" on="0"/>
        <pt x="201" y="683" on="0"/>
        <pt x="218" y="683" on="1"/>
        <pt x="236" y="683" on="0"/>
        <pt x="284" y="684" on="0"/>
        <pt x="335" y="686" on="0"/>
        <pt x="382" y="687" on="0"/>
        <pt x="399" y="687" on="1"/>
        <pt x="489" y="687" on="0"/>
        <pt x="631" y="632" on="0"/>
        <pt x="730" y="536" on="0"/>
        <pt x="782" y="408" on="0"/>
      </contour>
      <contour>
        <pt x="672" y="335" on="1"/>
        <pt x="672" y="404" on="0"/>
        <pt x="630" y="522" on="0"/>
        <pt x="555" y="607" on="0"/>
        <pt x="454" y="654" on="0"/>
        <pt x="395" y="653" on="1"/>
        <pt x="301" y="651" on="1"/>
        <pt x="291" y="651" on="0"/>
        <pt x="270" y="647" on="0"/>
        <pt x="253" y="634" on="0"/>
        <pt x="242" y="612" on="0"/>
        <pt x="242" y="594" on="1"/>
        <pt x="242" y="362" on="1"/>
        <pt x="370" y="362" on="1"/>
        <pt x="376" y="362" on="0"/>
        <pt x="383" y="346" on="0"/>
        <pt x="383" y="335" on="1"/>
        <pt x="383" y="323" on="0"/>
        <pt x="376" y="308" on="0"/>
        <pt x="370" y="308" on="1"/>
        <pt x="243" y="312" on="1"/>
        <pt x="242" y="85" on="1"/>
        <pt x="242" y="67" on="0"/>
        <pt x="253" y="44" on="0"/>
        <pt x="270" y="32" on="0"/>
        <pt x="291" y="27" on="0"/>
        <pt x="301" y="27" on="1"/>
        <pt x="395" y="25" on="1"/>
        <pt x="452" y="25" on="0"/>
        <pt x="553" y="71" on="0"/>
        <pt x="628" y="153" on="0"/>
        <pt x="672" y="267" on="0"/>
      </contour>
    </TTGlyph>
    <TTGlyph name="Dcroat.sc" xMin="29" yMin="-6" xMax="577" yMax="456">
      <component glyphName="dcroat.sc" x="0" y="0" flags="0x204"/>
    </TTGlyph>
    <TTGlyph name="Deltagreek" xMin="20" yMin="-8" xMax="689" yMax="705">
      <contour>
        <pt x="689" y="9" on="1"/>
        <pt x="689" y="3" on="0"/>
        <pt x="682" y="-7" on="0"/>
        <pt x="675" y="-6" on="1"/>
        <pt x="663" y="-5" on="0"/>
        <pt x="597" y="-2" on="0"/>
        <pt x="502" y="-1" on="0"/>
        <pt x="387" y="0" on="0"/>
        <pt x="327" y="0" on="1"/>
        <pt x="206" y="0" on="0"/>
        <pt x="59" y="-3" on="0"/>
        <pt x="36" y="-6" on="1"/>
        <pt x="20" y="-8" on="0"/>
        <pt x="20" y="6" on="1"/>
        <pt x="20" y="10" on="0"/>
        <pt x="23" y="16" on="1"/>
        <pt x="363" y="695" on="1"/>
        <pt x="368" y="705" on="0"/>
        <pt x="378" y="705" on="1"/>
        <pt x="388" y="705" on="0"/>
        <pt x="393" y="695" on="1"/>
        <pt x="688" y="16" on="1"/>
        <pt x="689" y="14" on="0"/>
      </contour>
      <contour>
        <pt x="344" y="566" on="1"/>
        <pt x="104" y="80" on="1"/>
        <pt x="557" y="80" on="1"/>
      </contour>
    </TTGlyph>
    <TTGlyph name="E" xMin="29" yMin="-6" xMax="642" yMax="690">
      <contour>
        <pt x="640" y="159" on="1"/>
        <pt x="620" y="117" on="0"/>
        <pt x="589" y="41" on="0"/>
        <pt x="574" y="-6" on="1"/>
        <pt x="550" y="-5" on="0"/>
        <pt x="479" y="-3" on="0"/>
        <pt x="403" y="-1" on="0"/>
        <pt x="330" y="0" on="0"/>
        <pt x="305" y="0" on="1"/>
        <pt x="280" y="0" on="0"/>
        <pt x="208" y="-1" on="0"/>
        <pt x="132" y="-3" on="0"/>
        <pt x="61" y="-5" on="0"/>
        <pt x="37" y="-6" on="1"/>
        <pt x="29" y="-6" on="0"/>
        <pt x="29" y="8" on="1"/>
        <pt x="29" y="20" on="0"/>
        <pt x="37" y="22" on="1"/>
        <pt x="73" y="26" on="0"/>
        <pt x="115" y="39" on="0"/>
        <pt x="135" y="59" on="0"/>
        <pt x="140" y="87" on="0"/>
        <pt x="140" y="106" on="1"/>
        <pt x="140" y="577" on="1"/>
        <pt x="140" y="596" on="0"/>
        <pt x="135" y="625" on="0"/>
        <pt x="115" y="644" on="0"/>
        <pt x="73" y="657" on="0"/>
        <pt x="37" y="662" on="1"/>
        <pt x="29" y="662" on="0"/>
        <pt x="29" y="676" on="1"/>
        <pt x="29" y="681" on="0"/>
        <pt x="33" y="690" on="0"/>
        <pt x="37" y="690" on="1"/>
        <pt x="61" y="689" on="0"/>
        <pt x="129" y="687" on="0"/>
        <pt x="201" y="685" on="0"/>
        <pt x="270" y="684" on="0"/>
        <pt x="295" y="684" on="1"/>
        <pt x="320" y="684" on="0"/>
        <pt x="390" y="685" on="0"/>
        <pt x="462" y="687" on="0"/>
        <pt x="530" y="689" on="0"/>
        <pt x="554" y="690" on="1"/>
        <pt x="560" y="648" on="0"/>
        <pt x="575" y="580" on="0"/>
        <pt x="587" y="539" on="1"/>
        <pt x="589" y="534" on="0"/>
        <pt x="578" y="527" on="0"/>
        <pt x="570" y="527" on="1"/>
        <pt x="561" y="527" on="0"/>
        <pt x="559" y="534" on="1"/>
        <pt x="548" y="569" on="0"/>
        <pt x="514" y="614" on="0"/>
        <pt x="472" y="641" on="0"/>
        <pt x="425" y="652" on="0"/>
        <pt x="401" y="652" on="1"/>
        <pt x="300" y="652" on="1"/>
        <pt x="290" y="652" on="0"/>
        <pt x="270" y="647" on="0"/>
        <pt x="253" y="634" on="0"/>
        <pt x="242" y="610" on="0"/>
        <pt x="242" y="592" on="1"/>
        <pt x="242" y="369" on="1"/>
        <pt x="368" y="369" on="1"/>
        <pt x="387" y="369" on="0"/>
        <pt x="418" y="375" on="0"/>
        <pt x="441" y="396" on="0"/>
        <pt x="456" y="438" on="0"/>
        <pt x="461" y="474" on="1"/>
        <pt x="461" y="482" on="0"/>
        <pt x="475" y="482" on="1"/>
        <pt x="480" y="482" on="0"/>
        <pt x="489" y="478" on="0"/>
        <pt x="489" y="474" on="1"/>
        <pt x="489" y="455" on="0"/>
        <pt x="487" y="425" on="0"/>
        <pt x="485" y="397" on="0"/>
        <pt x="483" y="369" on="0"/>
        <pt x="483" y="351" on="1"/>
        <pt x="483" y="316" on="0"/>
        <pt x="489" y="264" on="0"/>
        <pt x="489" y="227" on="1"/>
        <pt x="489" y="224" on="0"/>
        <pt x="480" y="219" on="0"/>
        <pt x="475" y="219" on="1"/>
        <pt x="461" y="219" on="0"/>
        <pt x="461" y="227" on="1"/>
        <pt x="456" y="263" on="0"/>
        <pt x="441" y="307" on="0"/>
        <pt x="418" y="330" on="0"/>
        <pt x="387" y="337" on="0"/>
        <pt x="368" y="337" on="1"/>
        <pt x="242" y="337" on="1"/>
        <pt x="242" y="91" on="1"/>
        <pt x="242" y="73" on="0"/>
        <pt x="253" y="50" on="0"/>
        <pt x="270" y="37" on="0"/>
        <pt x="290" y="32" on="0"/>
        <pt x="300" y="32" on="1"/>
        <pt x="409" y="32" on="1"/>
        <pt x="439" y="32" on="0"/>
        <pt x="499" y="52" on="0"/>
        <pt x="554" y="88" on="0"/>
        <pt x="599" y="138" on="0"/>
        <pt x="613" y="168" on="1"/>
        <pt x="616" y="172" on="0"/>
        <pt x="622" y="172" on="1"/>
        <pt x="630" y="172" on="0"/>
        <pt x="642" y="163" on="0"/>
      </contour>
    </TTGlyph>
    <TTGlyph name="E.sc" xMin="41" yMin="-6" xMax="479" yMax="456">
      <component glyphName="e.sc" x="0" y="0" flags="0x204"/>
    </TTGlyph>
    <TTGlyph name="Eacute" xMin="29" yMin="-6" xMax="642" yMax="924">
      <component glyphName="E" x="0" y="0" flags="0x204"/>
      <component glyphName="acute.cap" x="202" y="0" flags="0x4"/>
    </TTGlyph>
    <TTGlyph name="Eacute.sc" xMin="41" yMin="-6" xMax="479" yMax="691">
      <component glyphName="e.sc" x="0" y="0" flags="0x204"/>
      <component glyphName="acute" x="136" y="15" flags="0x4"/>
    </TTGlyph>
    <TTGlyph name="Ebreve" xMin="29" yMin="-6" xMax="642" yMax="907">
      <component glyphName="E" x="0" y="0" flags="0x204"/>
      <component glyphName="breve.cap" x="149" y="0" flags="0x4"/>
    </TTGlyph>
    <TTGlyph name="Ebreve.sc" xMin="41" yMin="-6" xMax="479" yMax="681">
      <component glyphName="e.sc" x="0" y="0" flags="0x204"/>
      <component glyphName="breve" x="73" y="15" flags="0x4"/>
    </TTGlyph>
    <TTGlyph name="Ecaron" xMin="29" yMin="-6" xMax="642" yMax="918">
      <component glyphName="E" x="0" y="0" flags="0x204"/>
      <component glyphName="caron.cap" x="149" y="0" flags="0x4"/>
    </TTGlyph>
    <TTGlyph name="Ecaron.sc" xMin="41" yMin="-6" xMax="479" yMax="701">
      <component glyphName="e.sc" x="0" y="0" flags="0x204"/>
      <component glyphName="caron" x="73" y="15" flags="0x4"/>
    </TTGlyph>
    <TTGlyph name="Ecircumflex" xMin="29" yMin="-6" xMax="642" yMax="910">
      <component glyphName="E" x="0" y="0" flags="0x204"/>
      <component glyphName="circumflex.cap" x="149" y="0" flags="0x4"/>
    </TTGlyph>
    <TTGlyph name="Ecircumflex.sc" xMin="41" yMin="-6" xMax="479" yMax="695">
      <component glyphName="e.sc" x="0" y="0" flags="0x204"/>
      <component glyphName="circumflex" x="73" y="15" flags="0x4"/>
    </TTGlyph>
    <TTGlyph name="Edieresis" xMin="29" yMin="-6" xMax="642" yMax="868">
      <component glyphName="E" x="0" y="0" flags="0x204"/>
      <component glyphName="dieresis.cap" x="150" y="0" flags="0x4"/>
    </TTGlyph>
    <TTGlyph name="Edieresis.sc" xMin="41" yMin="-6" xMax="479" yMax="644">
      <component glyphName="e.sc" x="0" y="0" flags="0x204"/>
      <component glyphName="dieresis" x="73" y="15" flags="0x4"/>
    </TTGlyph>
    <TTGlyph name="Edotaccent" xMin="29" yMin="-6" xMax="642" yMax="868">
      <component glyphName="E" x="0" y="0" flags="0x204"/>
      <component glyphName="dotaccent.cap" x="149" y="0" flags="0x4"/>
    </TTGlyph>
    <TTGlyph name="Edotaccent.sc" xMin="41" yMin="-6" xMax="479" yMax="645">
      <component glyphName="e.sc" x="0" y="0" flags="0x204"/>
      <component glyphName="dotaccent" x="73" y="15" flags="0x4"/>
    </TTGlyph>
    <TTGlyph name="Egrave" xMin="29" yMin="-6" xMax="642" yMax="924">
      <component glyphName="E" x="0" y="0" flags="0x204"/>
      <component glyphName="grave.cap" x="85" y="0" flags="0x4"/>
    </TTGlyph>
    <TTGlyph name="Egrave.sc" xMin="41" yMin="-6" xMax="479" yMax="691">
      <component glyphName="e.sc" x="0" y="0" flags="0x204"/>
      <component glyphName="grave" x="1" y="15" flags="0x4"/>
    </TTGlyph>
    <TTGlyph name="Emacron" xMin="29" yMin="-6" xMax="642" yMax="844">
      <component glyphName="E" x="0" y="0" flags="0x204"/>
      <component glyphName="macron.cap" x="148" y="0" flags="0x4"/>
    </TTGlyph>
    <TTGlyph name="Emacron.sc" xMin="41" yMin="-6" xMax="479" yMax="612">
      <component glyphName="e.sc" x="0" y="0" flags="0x204"/>
      <component glyphName="macron" x="65" y="15" flags="0x4"/>
    </TTGlyph>
    <TTGlyph name="Eogonek" xMin="29" yMin="-225" xMax="642" yMax="690">
      <contour>
        <pt x="571" y="-179" on="1"/>
        <pt x="555" y="-201" on="0"/>
        <pt x="506" y="-225" on="0"/>
        <pt x="470" y="-225" on="1"/>
        <pt x="447" y="-225" on="0"/>
        <pt x="415" y="-211" on="0"/>
        <pt x="394" y="-188" on="0"/>
        <pt x="384" y="-159" on="0"/>
        <pt x="384" y="-144" on="1"/>
        <pt x="384" y="-78" on="0"/>
        <pt x="465" y="-2" on="1"/>
        <pt x="420" y="-1" on="0"/>
        <pt x="334" y="0" on="0"/>
        <pt x="305" y="0" on="1"/>
        <pt x="280" y="0" on="0"/>
        <pt x="208" y="-1" on="0"/>
        <pt x="132" y="-3" on="0"/>
        <pt x="61" y="-5" on="0"/>
        <pt x="37" y="-6" on="1"/>
        <pt x="29" y="-6" on="0"/>
        <pt x="29" y="8" on="1"/>
        <pt x="29" y="20" on="0"/>
        <pt x="37" y="22" on="1"/>
        <pt x="73" y="26" on="0"/>
        <pt x="115" y="39" on="0"/>
        <pt x="135" y="59" on="0"/>
        <pt x="140" y="87" on="0"/>
        <pt x="140" y="106" on="1"/>
        <pt x="140" y="577" on="1"/>
        <pt x="140" y="596" on="0"/>
        <pt x="135" y="625" on="0"/>
        <pt x="115" y="644" on="0"/>
        <pt x="73" y="657" on="0"/>
        <pt x="37" y="662" on="1"/>
        <pt x="29" y="662" on="0"/>
        <pt x="29" y="676" on="1"/>
        <pt x="29" y="681" on="0"/>
        <pt x="33" y="690" on="0"/>
        <pt x="37" y="690" on="1"/>
        <pt x="61" y="689" on="0"/>
        <pt x="129" y="687" on="0"/>
        <pt x="201" y="685" on="0"/>
        <pt x="270" y="684" on="0"/>
        <pt x="295" y="684" on="1"/>
        <pt x="320" y="684" on="0"/>
        <pt x="390" y="685" on="0"/>
        <pt x="462" y="687" on="0"/>
        <pt x="530" y="689" on="0"/>
        <pt x="554" y="690" on="1"/>
        <pt x="560" y="648" on="0"/>
        <pt x="575" y="580" on="0"/>
        <pt x="587" y="539" on="1"/>
        <pt x="589" y="534" on="0"/>
        <pt x="578" y="527" on="0"/>
        <pt x="570" y="527" on="1"/>
        <pt x="561" y="527" on="0"/>
        <pt x="559" y="534" on="1"/>
        <pt x="548" y="569" on="0"/>
        <pt x="514" y="614" on="0"/>
        <pt x="472" y="641" on="0"/>
        <pt x="425" y="652" on="0"/>
        <pt x="401" y="652" on="1"/>
        <pt x="300" y="652" on="1"/>
        <pt x="290" y="652" on="0"/>
        <pt x="270" y="647" on="0"/>
        <pt x="253" y="634" on="0"/>
        <pt x="242" y="610" on="0"/>
        <pt x="242" y="592" on="1"/>
        <pt x="242" y="369" on="1"/>
        <pt x="368" y="369" on="1"/>
        <pt x="387" y="369" on="0"/>
        <pt x="418" y="375" on="0"/>
        <pt x="441" y="396" on="0"/>
        <pt x="456" y="438" on="0"/>
        <pt x="461" y="474" on="1"/>
        <pt x="461" y="482" on="0"/>
        <pt x="475" y="482" on="1"/>
        <pt x="480" y="482" on="0"/>
        <pt x="489" y="478" on="0"/>
        <pt x="489" y="474" on="1"/>
        <pt x="489" y="455" on="0"/>
        <pt x="487" y="425" on="0"/>
        <pt x="485" y="397" on="0"/>
        <pt x="483" y="369" on="0"/>
        <pt x="483" y="351" on="1"/>
        <pt x="483" y="316" on="0"/>
        <pt x="489" y="264" on="0"/>
        <pt x="489" y="227" on="1"/>
        <pt x="489" y="224" on="0"/>
        <pt x="480" y="219" on="0"/>
        <pt x="475" y="219" on="1"/>
        <pt x="461" y="219" on="0"/>
        <pt x="461" y="227" on="1"/>
        <pt x="456" y="263" on="0"/>
        <pt x="441" y="307" on="0"/>
        <pt x="418" y="330" on="0"/>
        <pt x="387" y="337" on="0"/>
        <pt x="368" y="337" on="1"/>
        <pt x="242" y="337" on="1"/>
        <pt x="242" y="91" on="1"/>
        <pt x="242" y="73" on="0"/>
        <pt x="253" y="50" on="0"/>
        <pt x="270" y="37" on="0"/>
        <pt x="290" y="32" on="0"/>
        <pt x="300" y="32" on="1"/>
        <pt x="409" y="32" on="1"/>
        <pt x="439" y="32" on="0"/>
        <pt x="499" y="52" on="0"/>
        <pt x="554" y="88" on="0"/>
        <pt x="599" y="138" on="0"/>
        <pt x="613" y="168" on="1"/>
        <pt x="616" y="172" on="0"/>
        <pt x="622" y="172" on="1"/>
        <pt x="630" y="172" on="0"/>
        <pt x="642" y="163" on="0"/>
        <pt x="640" y="159" on="1"/>
        <pt x="620" y="117" on="0"/>
        <pt x="589" y="41" on="0"/>
        <pt x="574" y="-6" on="1"/>
        <pt x="560" y="-5" on="0"/>
        <pt x="527" y="-4" on="0"/>
        <pt x="508" y="-4" on="1"/>
        <pt x="451" y="-64" on="0"/>
        <pt x="451" y="-122" on="1"/>
        <pt x="451" y="-174" on="0"/>
        <pt x="508" y="-174" on="1"/>
        <pt x="522" y="-174" on="0"/>
        <pt x="545" y="-162" on="0"/>
        <pt x="556" y="-155" on="1"/>
        <pt x="559" y="-153" on="0"/>
        <pt x="567" y="-158" on="0"/>
        <pt x="570" y="-163" on="1"/>
        <pt x="575" y="-172" on="0"/>
      </contour>
    </TTGlyph>
    <TTGlyph name="Eogonek.sc" xMin="41" yMin="-225" xMax="479" yMax="456">
      <component glyphName="eogonek.sc" x="0" y="0" flags="0x204"/>
    </TTGlyph>
    <TTGlyph name="Eth" xMin="9" yMin="-9" xMax="782" yMax="687">
      <contour>
        <pt x="782" y="335" on="1"/>
        <pt x="782" y="266" on="0"/>
        <pt x="734" y="141" on="0"/>
        <pt x="639" y="47" on="0"/>
        <pt x="495" y="-9" on="0"/>
        <pt x="399" y="-9" on="1"/>
        <pt x="382" y="-9" on="0"/>
        <pt x="335" y="-8" on="0"/>
        <pt x="284" y="-6" on="0"/>
        <pt x="236" y="-5" on="0"/>
        <pt x="218" y="-5" on="1"/>
        <pt x="201" y="-5" on="0"/>
        <pt x="152" y="-5" on="0"/>
        <pt x="101" y="-6" on="0"/>
        <pt x="53" y="-8" on="0"/>
        <pt x="37" y="-9" on="1"/>
        <pt x="29" y="-9" on="0"/>
        <pt x="29" y="5" on="1"/>
        <pt x="29" y="19" on="0"/>
        <pt x="37" y="19" on="1"/>
        <pt x="73" y="23" on="0"/>
        <pt x="115" y="37" on="0"/>
        <pt x="136" y="56" on="0"/>
        <pt x="141" y="84" on="0"/>
        <pt x="141" y="104" on="1"/>
        <pt x="141" y="312" on="1"/>
        <pt x="21" y="308" on="1"/>
        <pt x="15" y="308" on="0"/>
        <pt x="9" y="323" on="0"/>
        <pt x="9" y="335" on="1"/>
        <pt x="9" y="346" on="0"/>
        <pt x="16" y="362" on="0"/>
        <pt x="21" y="362" on="1"/>
        <pt x="141" y="362" on="1"/>
        <pt x="141" y="574" on="1"/>
        <pt x="141" y="593" on="0"/>
        <pt x="136" y="622" on="0"/>
        <pt x="115" y="642" on="0"/>
        <pt x="73" y="655" on="0"/>
        <pt x="37" y="659" on="1"/>
        <pt x="29" y="661" on="0"/>
        <pt x="29" y="673" on="1"/>
        <pt x="29" y="687" on="0"/>
        <pt x="37" y="687" on="1"/>
        <pt x="53" y="686" on="0"/>
        <pt x="101" y="685" on="0"/>
        <pt x="152" y="684" on="0"/>
        <pt x="201" y="683" on="0"/>
        <pt x="218" y="683" on="1"/>
        <pt x="236" y="683" on="0"/>
        <pt x="284" y="684" on="0"/>
        <pt x="335" y="686" on="0"/>
        <pt x="382" y="687" on="0"/>
        <pt x="399" y="687" on="1"/>
        <pt x="489" y="687" on="0"/>
        <pt x="631" y="632" on="0"/>
        <pt x="730" y="536" on="0"/>
        <pt x="782" y="408" on="0"/>
      </contour>
      <contour>
        <pt x="672" y="335" on="1"/>
        <pt x="672" y="404" on="0"/>
        <pt x="630" y="522" on="0"/>
        <pt x="555" y="607" on="0"/>
        <pt x="454" y="654" on="0"/>
        <pt x="395" y="653" on="1"/>
        <pt x="301" y="651" on="1"/>
        <pt x="291" y="651" on="0"/>
        <pt x="270" y="647" on="0"/>
        <pt x="253" y="634" on="0"/>
        <pt x="242" y="612" on="0"/>
        <pt x="242" y="594" on="1"/>
        <pt x="242" y="362" on="1"/>
        <pt x="370" y="362" on="1"/>
        <pt x="376" y="362" on="0"/>
        <pt x="383" y="346" on="0"/>
        <pt x="383" y="335" on="1"/>
        <pt x="383" y="323" on="0"/>
        <pt x="376" y="308" on="0"/>
        <pt x="370" y="308" on="1"/>
        <pt x="243" y="312" on="1"/>
        <pt x="242" y="85" on="1"/>
        <pt x="242" y="67" on="0"/>
        <pt x="253" y="44" on="0"/>
        <pt x="270" y="32" on="0"/>
        <pt x="291" y="27" on="0"/>
        <pt x="301" y="27" on="1"/>
        <pt x="395" y="25" on="1"/>
        <pt x="452" y="25" on="0"/>
        <pt x="553" y="71" on="0"/>
        <pt x="628" y="153" on="0"/>
        <pt x="672" y="267" on="0"/>
      </contour>
    </TTGlyph>
    <TTGlyph name="Eth.sc" xMin="29" yMin="-6" xMax="577" yMax="456">
      <component glyphName="dcroat.sc" x="0" y="0" flags="0x204"/>
    </TTGlyph>
    <TTGlyph name="Euro" xMin="44" yMin="-22" xMax="728" yMax="629">
      <contour>
        <pt x="728" y="160" on="1"/>
        <pt x="720" y="128" on="0"/>
        <pt x="703" y="43" on="0"/>
        <pt x="696" y="6" on="1"/>
        <pt x="675" y="6" on="0"/>
        <pt x="622" y="-3" on="0"/>
        <pt x="563" y="-13" on="0"/>
        <pt x="503" y="-22" on="0"/>
        <pt x="474" y="-22" on="1"/>
        <pt x="404" y="-22" on="0"/>
        <pt x="293" y="14" on="0"/>
        <pt x="210" y="76" on="0"/>
        <pt x="154" y="159" on="0"/>
        <pt x="141" y="206" on="1"/>
        <pt x="57" y="204" on="1"/>
        <pt x="50" y="204" on="0"/>
        <pt x="44" y="220" on="0"/>
        <pt x="44" y="229" on="1"/>
        <pt x="44" y="238" on="0"/>
        <pt x="50" y="255" on="0"/>
        <pt x="56" y="255" on="1"/>
        <pt x="131" y="253" on="1"/>
        <pt x="128" y="277" on="0"/>
        <pt x="128" y="300" on="1"/>
        <pt x="128" y="311" on="0"/>
        <pt x="129" y="332" on="0"/>
        <pt x="130" y="343" on="1"/>
        <pt x="57" y="341" on="1"/>
        <pt x="50" y="341" on="0"/>
        <pt x="44" y="356" on="0"/>
        <pt x="44" y="366" on="1"/>
        <pt x="44" y="376" on="0"/>
        <pt x="51" y="392" on="0"/>
        <pt x="56" y="392" on="1"/>
        <pt x="141" y="390" on="1"/>
        <pt x="155" y="440" on="0"/>
        <pt x="215" y="527" on="0"/>
        <pt x="302" y="592" on="0"/>
        <pt x="415" y="629" on="0"/>
        <pt x="482" y="629" on="1"/>
        <pt x="541" y="629" on="0"/>
        <pt x="636" y="613" on="0"/>
        <pt x="678" y="613" on="1"/>
        <pt x="682" y="575" on="0"/>
        <pt x="693" y="496" on="0"/>
        <pt x="700" y="459" on="1"/>
        <pt x="700" y="456" on="0"/>
        <pt x="690" y="452" on="0"/>
        <pt x="685" y="452" on="1"/>
        <pt x="675" y="452" on="0"/>
        <pt x="674" y="459" on="1"/>
        <pt x="666" y="487" on="0"/>
        <pt x="632" y="537" on="0"/>
        <pt x="582" y="576" on="0"/>
        <pt x="517" y="599" on="0"/>
        <pt x="478" y="599" on="1"/>
        <pt x="434" y="599" on="0"/>
        <pt x="359" y="568" on="0"/>
        <pt x="299" y="512" on="0"/>
        <pt x="255" y="435" on="0"/>
        <pt x="244" y="390" on="1"/>
        <pt x="494" y="392" on="1"/>
        <pt x="499" y="392" on="0"/>
        <pt x="506" y="377" on="0"/>
        <pt x="506" y="366" on="1"/>
        <pt x="506" y="356" on="0"/>
        <pt x="501" y="341" on="0"/>
        <pt x="494" y="341" on="1"/>
        <pt x="236" y="343" on="1"/>
        <pt x="234" y="332" on="0"/>
        <pt x="234" y="311" on="0"/>
        <pt x="234" y="300" on="1"/>
        <pt x="234" y="289" on="0"/>
        <pt x="235" y="264" on="0"/>
        <pt x="236" y="253" on="1"/>
        <pt x="494" y="255" on="1"/>
        <pt x="499" y="255" on="0"/>
        <pt x="506" y="243" on="0"/>
        <pt x="506" y="229" on="1"/>
        <pt x="506" y="204" on="0"/>
        <pt x="494" y="204" on="1"/>
        <pt x="246" y="206" on="1"/>
        <pt x="258" y="163" on="0"/>
        <pt x="301" y="91" on="0"/>
        <pt x="360" y="38" on="0"/>
        <pt x="433" y="9" on="0"/>
        <pt x="474" y="9" on="1"/>
        <pt x="562" y="9" on="0"/>
        <pt x="671" y="90" on="0"/>
        <pt x="703" y="160" on="1"/>
        <pt x="705" y="167" on="0"/>
        <pt x="716" y="167" on="1"/>
        <pt x="728" y="167" on="0"/>
      </contour>
    </TTGlyph>
    <TTGlyph name="Euro.lin" xMin="58" yMin="-22" xMax="810" yMax="705">
      <contour>
        <pt x="810" y="179" on="1"/>
        <pt x="802" y="143" on="0"/>
        <pt x="783" y="50" on="0"/>
        <pt x="775" y="9" on="1"/>
        <pt x="752" y="9" on="0"/>
        <pt x="693" y="-1" on="0"/>
        <pt x="629" y="-12" on="0"/>
        <pt x="561" y="-22" on="0"/>
        <pt x="529" y="-22" on="1"/>
        <pt x="451" y="-22" on="0"/>
        <pt x="328" y="18" on="0"/>
        <pt x="237" y="88" on="0"/>
        <pt x="176" y="181" on="0"/>
        <pt x="161" y="234" on="1"/>
        <pt x="71" y="233" on="1"/>
        <pt x="64" y="232" on="0"/>
        <pt x="58" y="250" on="0"/>
        <pt x="58" y="260" on="1"/>
        <pt x="58" y="269" on="0"/>
        <pt x="63" y="288" on="0"/>
        <pt x="70" y="288" on="1"/>
        <pt x="150" y="286" on="1"/>
        <pt x="147" y="310" on="0"/>
        <pt x="147" y="338" on="1"/>
        <pt x="147" y="362" on="0"/>
        <pt x="150" y="386" on="1"/>
        <pt x="71" y="384" on="1"/>
        <pt x="64" y="384" on="0"/>
        <pt x="58" y="401" on="0"/>
        <pt x="58" y="411" on="1"/>
        <pt x="58" y="421" on="0"/>
        <pt x="64" y="439" on="0"/>
        <pt x="70" y="439" on="1"/>
        <pt x="161" y="437" on="1"/>
        <pt x="177" y="493" on="0"/>
        <pt x="243" y="591" on="0"/>
        <pt x="339" y="663" on="0"/>
        <pt x="464" y="705" on="0"/>
        <pt x="538" y="705" on="1"/>
        <pt x="571" y="705" on="0"/>
        <pt x="629" y="699" on="0"/>
        <pt x="682" y="693" on="0"/>
        <pt x="731" y="687" on="0"/>
        <pt x="754" y="687" on="1"/>
        <pt x="758" y="645" on="0"/>
        <pt x="770" y="558" on="0"/>
        <pt x="777" y="517" on="1"/>
        <pt x="777" y="513" on="0"/>
        <pt x="767" y="509" on="0"/>
        <pt x="761" y="509" on="1"/>
        <pt x="751" y="509" on="0"/>
        <pt x="749" y="517" on="1"/>
        <pt x="741" y="548" on="0"/>
        <pt x="703" y="604" on="0"/>
        <pt x="648" y="647" on="0"/>
        <pt x="576" y="673" on="0"/>
        <pt x="534" y="673" on="1"/>
        <pt x="486" y="673" on="0"/>
        <pt x="400" y="637" on="0"/>
        <pt x="331" y="574" on="0"/>
        <pt x="282" y="488" on="0"/>
        <pt x="269" y="437" on="1"/>
        <pt x="546" y="439" on="1"/>
        <pt x="551" y="439" on="0"/>
        <pt x="558" y="422" on="0"/>
        <pt x="558" y="411" on="1"/>
        <pt x="558" y="401" on="0"/>
        <pt x="553" y="384" on="0"/>
        <pt x="546" y="384" on="1"/>
        <pt x="259" y="386" on="1"/>
        <pt x="258" y="375" on="0"/>
        <pt x="257" y="350" on="0"/>
        <pt x="257" y="338" on="1"/>
        <pt x="257" y="310" on="0"/>
        <pt x="260" y="286" on="1"/>
        <pt x="546" y="288" on="1"/>
        <pt x="551" y="288" on="0"/>
        <pt x="558" y="273" on="0"/>
        <pt x="558" y="260" on="1"/>
        <pt x="558" y="248" on="0"/>
        <pt x="552" y="232" on="0"/>
        <pt x="546" y="233" on="1"/>
        <pt x="271" y="234" on="1"/>
        <pt x="284" y="186" on="0"/>
        <pt x="334" y="104" on="0"/>
        <pt x="401" y="44" on="0"/>
        <pt x="483" y="10" on="0"/>
        <pt x="529" y="10" on="1"/>
        <pt x="625" y="10" on="0"/>
        <pt x="748" y="102" on="0"/>
        <pt x="782" y="179" on="1"/>
        <pt x="786" y="187" on="0"/>
        <pt x="796" y="187" on="1"/>
        <pt x="810" y="187" on="0"/>
      </contour>
    </TTGlyph>
    <TTGlyph name="Euro.sc" xMin="54" yMin="-22" xMax="596" yMax="470">
      <contour>
        <pt x="596" y="120" on="1"/>
        <pt x="590" y="94" on="0"/>
        <pt x="575" y="28" on="0"/>
        <pt x="570" y="-1" on="1"/>
        <pt x="553" y="-1" on="0"/>
        <pt x="511" y="-8" on="0"/>
        <pt x="466" y="-15" on="0"/>
        <pt x="418" y="-22" on="0"/>
        <pt x="396" y="-22" on="1"/>
        <pt x="342" y="-22" on="0"/>
        <pt x="256" y="4" on="0"/>
        <pt x="192" y="50" on="0"/>
        <pt x="149" y="111" on="0"/>
        <pt x="138" y="146" on="1"/>
        <pt x="67" y="144" on="1"/>
        <pt x="54" y="144" on="0"/>
        <pt x="54" y="165" on="1"/>
        <pt x="54" y="174" on="0"/>
        <pt x="60" y="186" on="0"/>
        <pt x="66" y="186" on="1"/>
        <pt x="129" y="184" on="1"/>
        <pt x="126" y="202" on="0"/>
        <pt x="126" y="221" on="1"/>
        <pt x="126" y="229" on="0"/>
        <pt x="127" y="244" on="0"/>
        <pt x="128" y="252" on="1"/>
        <pt x="67" y="251" on="1"/>
        <pt x="54" y="251" on="0"/>
        <pt x="54" y="271" on="1"/>
        <pt x="54" y="294" on="0"/>
        <pt x="66" y="292" on="1"/>
        <pt x="136" y="291" on="1"/>
        <pt x="148" y="329" on="0"/>
        <pt x="195" y="394" on="0"/>
        <pt x="262" y="442" on="0"/>
        <pt x="350" y="470" on="0"/>
        <pt x="402" y="470" on="1"/>
        <pt x="448" y="470" on="0"/>
        <pt x="524" y="458" on="0"/>
        <pt x="559" y="458" on="1"/>
        <pt x="562" y="428" on="0"/>
        <pt x="571" y="366" on="0"/>
        <pt x="576" y="337" on="1"/>
        <pt x="577" y="335" on="0"/>
        <pt x="569" y="332" on="0"/>
        <pt x="565" y="332" on="1"/>
        <pt x="556" y="332" on="0"/>
        <pt x="555" y="337" on="1"/>
        <pt x="543" y="381" on="0"/>
        <pt x="460" y="442" on="0"/>
        <pt x="399" y="442" on="1"/>
        <pt x="331" y="442" on="0"/>
        <pt x="245" y="359" on="0"/>
        <pt x="230" y="291" on="1"/>
        <pt x="423" y="292" on="1"/>
        <pt x="429" y="292" on="0"/>
        <pt x="435" y="283" on="0"/>
        <pt x="435" y="271" on="1"/>
        <pt x="435" y="261" on="0"/>
        <pt x="431" y="251" on="0"/>
        <pt x="423" y="251" on="1"/>
        <pt x="224" y="252" on="1"/>
        <pt x="223" y="244" on="0"/>
        <pt x="223" y="229" on="0"/>
        <pt x="223" y="221" on="1"/>
        <pt x="223" y="211" on="0"/>
        <pt x="224" y="193" on="0"/>
        <pt x="225" y="184" on="1"/>
        <pt x="423" y="186" on="1"/>
        <pt x="428" y="186" on="0"/>
        <pt x="435" y="178" on="0"/>
        <pt x="435" y="165" on="1"/>
        <pt x="435" y="153" on="0"/>
        <pt x="430" y="144" on="0"/>
        <pt x="423" y="144" on="1"/>
        <pt x="232" y="146" on="1"/>
        <pt x="248" y="84" on="0"/>
        <pt x="332" y="7" on="0"/>
        <pt x="396" y="7" on="1"/>
        <pt x="465" y="7" on="0"/>
        <pt x="550" y="65" on="0"/>
        <pt x="575" y="120" on="1"/>
        <pt x="577" y="125" on="0"/>
        <pt x="586" y="125" on="1"/>
        <pt x="596" y="125" on="0"/>
      </contour>
    </TTGlyph>
    <TTGlyph name="F" xMin="29" yMin="-6" xMax="585" yMax="690">
      <contour>
        <pt x="583" y="539" on="1"/>
        <pt x="585" y="534" on="0"/>
        <pt x="574" y="527" on="0"/>
        <pt x="566" y="527" on="1"/>
        <pt x="557" y="527" on="0"/>
        <pt x="555" y="534" on="1"/>
        <pt x="544" y="569" on="0"/>
        <pt x="508" y="614" on="0"/>
        <pt x="464" y="641" on="0"/>
        <pt x="415" y="652" on="0"/>
        <pt x="391" y="652" on="1"/>
        <pt x="301" y="652" on="1"/>
        <pt x="291" y="652" on="0"/>
        <pt x="270" y="647" on="0"/>
        <pt x="253" y="634" on="0"/>
        <pt x="242" y="610" on="0"/>
        <pt x="242" y="592" on="1"/>
        <pt x="242" y="369" on="1"/>
        <pt x="356" y="369" on="1"/>
        <pt x="375" y="369" on="0"/>
        <pt x="406" y="375" on="0"/>
        <pt x="429" y="396" on="0"/>
        <pt x="444" y="438" on="0"/>
        <pt x="449" y="474" on="1"/>
        <pt x="449" y="482" on="0"/>
        <pt x="463" y="482" on="1"/>
        <pt x="477" y="482" on="0"/>
        <pt x="477" y="474" on="1"/>
        <pt x="477" y="455" on="0"/>
        <pt x="475" y="425" on="0"/>
        <pt x="473" y="397" on="0"/>
        <pt x="471" y="369" on="0"/>
        <pt x="471" y="351" on="1"/>
        <pt x="471" y="316" on="0"/>
        <pt x="477" y="264" on="0"/>
        <pt x="477" y="227" on="1"/>
        <pt x="477" y="219" on="0"/>
        <pt x="463" y="219" on="1"/>
        <pt x="449" y="219" on="0"/>
        <pt x="449" y="227" on="1"/>
        <pt x="444" y="263" on="0"/>
        <pt x="429" y="307" on="0"/>
        <pt x="406" y="330" on="0"/>
        <pt x="375" y="337" on="0"/>
        <pt x="356" y="337" on="1"/>
        <pt x="242" y="337" on="1"/>
        <pt x="242" y="106" on="1"/>
        <pt x="242" y="87" on="0"/>
        <pt x="247" y="59" on="0"/>
        <pt x="268" y="39" on="0"/>
        <pt x="310" y="26" on="0"/>
        <pt x="346" y="22" on="1"/>
        <pt x="354" y="20" on="0"/>
        <pt x="354" y="8" on="1"/>
        <pt x="354" y="-6" on="0"/>
        <pt x="346" y="-6" on="1"/>
        <pt x="321" y="-6" on="0"/>
        <pt x="284" y="-4" on="0"/>
        <pt x="250" y="-2" on="0"/>
        <pt x="214" y="0" on="0"/>
        <pt x="191" y="0" on="1"/>
        <pt x="168" y="0" on="0"/>
        <pt x="132" y="-2" on="0"/>
        <pt x="99" y="-4" on="0"/>
        <pt x="62" y="-6" on="0"/>
        <pt x="37" y="-6" on="1"/>
        <pt x="29" y="-6" on="0"/>
        <pt x="29" y="8" on="1"/>
        <pt x="29" y="20" on="0"/>
        <pt x="37" y="22" on="1"/>
        <pt x="73" y="26" on="0"/>
        <pt x="115" y="39" on="0"/>
        <pt x="135" y="59" on="0"/>
        <pt x="140" y="87" on="0"/>
        <pt x="140" y="106" on="1"/>
        <pt x="140" y="577" on="1"/>
        <pt x="140" y="596" on="0"/>
        <pt x="135" y="625" on="0"/>
        <pt x="115" y="644" on="0"/>
        <pt x="73" y="657" on="0"/>
        <pt x="37" y="662" on="1"/>
        <pt x="29" y="662" on="0"/>
        <pt x="29" y="676" on="1"/>
        <pt x="29" y="681" on="0"/>
        <pt x="33" y="690" on="0"/>
        <pt x="37" y="690" on="1"/>
        <pt x="61" y="689" on="0"/>
        <pt x="129" y="687" on="0"/>
        <pt x="201" y="685" on="0"/>
        <pt x="270" y="684" on="0"/>
        <pt x="295" y="684" on="1"/>
        <pt x="320" y="684" on="0"/>
        <pt x="387" y="685" on="0"/>
        <pt x="457" y="687" on="0"/>
        <pt x="522" y="689" on="0"/>
        <pt x="546" y="690" on="1"/>
        <pt x="554" y="650" on="0"/>
        <pt x="569" y="581" on="0"/>
      </contour>
    </TTGlyph>
    <TTGlyph name="F.sc" xMin="41" yMin="-6" xMax="450" yMax="456">
      <component glyphName="f.sc" x="0" y="0" flags="0x204"/>
    </TTGlyph>
    <TTGlyph name="G" xMin="45" yMin="-22" xMax="808" yMax="705">
      <contour>
        <pt x="808" y="301" on="1"/>
        <pt x="808" y="289" on="0"/>
        <pt x="800" y="287" on="1"/>
        <pt x="764" y="283" on="0"/>
        <pt x="722" y="270" on="0"/>
        <pt x="701" y="250" on="0"/>
        <pt x="696" y="222" on="0"/>
        <pt x="696" y="203" on="1"/>
        <pt x="696" y="144" on="1"/>
        <pt x="696" y="98" on="0"/>
        <pt x="701" y="54" on="0"/>
        <pt x="707" y="38" on="1"/>
        <pt x="677" y="26" on="0"/>
        <pt x="606" y="4" on="0"/>
        <pt x="532" y="-12" on="0"/>
        <pt x="459" y="-22" on="0"/>
        <pt x="427" y="-22" on="1"/>
        <pt x="331" y="-22" on="0"/>
        <pt x="188" y="38" on="0"/>
        <pt x="92" y="139" on="0"/>
        <pt x="45" y="269" on="0"/>
        <pt x="45" y="338" on="1"/>
        <pt x="45" y="411" on="0"/>
        <pt x="100" y="544" on="0"/>
        <pt x="204" y="645" on="0"/>
        <pt x="354" y="705" on="0"/>
        <pt x="448" y="705" on="1"/>
        <pt x="481" y="705" on="0"/>
        <pt x="538" y="696" on="0"/>
        <pt x="592" y="684" on="0"/>
        <pt x="644" y="675" on="0"/>
        <pt x="672" y="675" on="1"/>
        <pt x="676" y="633" on="0"/>
        <pt x="688" y="546" on="0"/>
        <pt x="695" y="505" on="1"/>
        <pt x="695" y="501" on="0"/>
        <pt x="685" y="497" on="0"/>
        <pt x="679" y="497" on="1"/>
        <pt x="668" y="497" on="0"/>
        <pt x="667" y="505" on="1"/>
        <pt x="645" y="586" on="0"/>
        <pt x="531" y="673" on="0"/>
        <pt x="432" y="673" on="1"/>
        <pt x="372" y="673" on="0"/>
        <pt x="271" y="620" on="0"/>
        <pt x="197" y="529" on="0"/>
        <pt x="155" y="407" on="0"/>
        <pt x="155" y="338" on="1"/>
        <pt x="155" y="270" on="0"/>
        <pt x="197" y="151" on="0"/>
        <pt x="270" y="62" on="0"/>
        <pt x="370" y="10" on="0"/>
        <pt x="427" y="10" on="1"/>
        <pt x="460" y="10" on="0"/>
        <pt x="521" y="17" on="0"/>
        <pt x="567" y="36" on="0"/>
        <pt x="595" y="68" on="0"/>
        <pt x="595" y="93" on="1"/>
        <pt x="595" y="225" on="1"/>
        <pt x="595" y="242" on="0"/>
        <pt x="576" y="263" on="0"/>
        <pt x="537" y="275" on="0"/>
        <pt x="480" y="282" on="0"/>
        <pt x="441" y="286" on="1"/>
        <pt x="438" y="286" on="0"/>
        <pt x="433" y="295" on="0"/>
        <pt x="433" y="301" on="1"/>
        <pt x="433" y="315" on="0"/>
        <pt x="441" y="315" on="1"/>
        <pt x="491" y="315" on="0"/>
        <pt x="587" y="310" on="0"/>
        <pt x="634" y="310" on="1"/>
        <pt x="657" y="310" on="0"/>
        <pt x="696" y="312" on="0"/>
        <pt x="734" y="313" on="0"/>
        <pt x="775" y="315" on="0"/>
        <pt x="800" y="315" on="1"/>
        <pt x="808" y="315" on="0"/>
      </contour>
    </TTGlyph>
    <TTGlyph name="G.sc" xMin="35" yMin="-21" xMax="582" yMax="471">
      <component glyphName="g.sc" x="0" y="0" flags="0x204"/>
    </TTGlyph>
    <TTGlyph name="Gbreve" xMin="45" yMin="-22" xMax="808" yMax="922">
      <component glyphName="G" x="0" y="0" flags="0x204"/>
      <component glyphName="breve.cap" x="256" y="15" flags="0x4"/>
    </TTGlyph>
    <TTGlyph name="Gbreve.sc" xMin="35" yMin="-21" xMax="582" yMax="686">
      <component glyphName="g.sc" x="0" y="0" flags="0x204"/>
      <component glyphName="breve" x="124" y="20" flags="0x4"/>
    </TTGlyph>
    <TTGlyph name="Gcommaaccent" xMin="45" yMin="-294" xMax="808" yMax="705">
      <component glyphName="G" x="0" y="0" flags="0x204"/>
      <component glyphName="commaaccent" x="311" y="-14" flags="0x4"/>
    </TTGlyph>
    <TTGlyph name="Gcommaaccent.sc" xMin="35" yMin="-289" xMax="582" yMax="471">
      <component glyphName="g.sc" x="0" y="0" flags="0x204"/>
      <component glyphName="commaaccent" x="185" y="-9" flags="0x4"/>
    </TTGlyph>
    <TTGlyph name="Gdotaccent" xMin="45" yMin="-22" xMax="808" yMax="883">
      <component glyphName="G" x="0" y="0" flags="0x204"/>
      <component glyphName="dotaccent.cap" x="256" y="15" flags="0x4"/>
    </TTGlyph>
    <TTGlyph name="Gdotaccent.sc" xMin="35" yMin="-21" xMax="582" yMax="650">
      <component glyphName="g.sc" x="0" y="0" flags="0x204"/>
      <component glyphName="dotaccent" x="124" y="20" flags="0x4"/>
    </TTGlyph>
    <TTGlyph name="H" xMin="28" yMin="-6" xMax="838" yMax="690">
      <contour>
        <pt x="838" y="8" on="1"/>
        <pt x="838" y="-6" on="0"/>
        <pt x="830" y="-6" on="1"/>
        <pt x="805" y="-6" on="0"/>
        <pt x="768" y="-4" on="0"/>
        <pt x="734" y="-2" on="0"/>
        <pt x="698" y="0" on="0"/>
        <pt x="675" y="0" on="1"/>
        <pt x="652" y="0" on="0"/>
        <pt x="619" y="-2" on="0"/>
        <pt x="588" y="-4" on="0"/>
        <pt x="554" y="-6" on="0"/>
        <pt x="529" y="-6" on="1"/>
        <pt x="521" y="-6" on="0"/>
        <pt x="521" y="8" on="1"/>
        <pt x="521" y="20" on="0"/>
        <pt x="529" y="22" on="1"/>
        <pt x="565" y="26" on="0"/>
        <pt x="604" y="39" on="0"/>
        <pt x="622" y="59" on="0"/>
        <pt x="624" y="87" on="0"/>
        <pt x="624" y="106" on="1"/>
        <pt x="624" y="329" on="1"/>
        <pt x="242" y="329" on="1"/>
        <pt x="242" y="106" on="1"/>
        <pt x="242" y="87" on="0"/>
        <pt x="244" y="59" on="0"/>
        <pt x="262" y="39" on="0"/>
        <pt x="301" y="26" on="0"/>
        <pt x="337" y="22" on="1"/>
        <pt x="345" y="20" on="0"/>
        <pt x="345" y="8" on="1"/>
        <pt x="345" y="-6" on="0"/>
        <pt x="337" y="-6" on="1"/>
        <pt x="312" y="-6" on="0"/>
        <pt x="278" y="-4" on="0"/>
        <pt x="247" y="-2" on="0"/>
        <pt x="214" y="0" on="0"/>
        <pt x="191" y="0" on="1"/>
        <pt x="168" y="0" on="0"/>
        <pt x="132" y="-2" on="0"/>
        <pt x="98" y="-4" on="0"/>
        <pt x="61" y="-6" on="0"/>
        <pt x="36" y="-6" on="1"/>
        <pt x="28" y="-6" on="0"/>
        <pt x="28" y="8" on="1"/>
        <pt x="28" y="20" on="0"/>
        <pt x="36" y="22" on="1"/>
        <pt x="72" y="26" on="0"/>
        <pt x="114" y="39" on="0"/>
        <pt x="135" y="59" on="0"/>
        <pt x="140" y="87" on="0"/>
        <pt x="140" y="106" on="1"/>
        <pt x="140" y="577" on="1"/>
        <pt x="140" y="596" on="0"/>
        <pt x="135" y="625" on="0"/>
        <pt x="114" y="644" on="0"/>
        <pt x="72" y="657" on="0"/>
        <pt x="36" y="662" on="1"/>
        <pt x="28" y="662" on="0"/>
        <pt x="28" y="676" on="1"/>
        <pt x="28" y="681" on="0"/>
        <pt x="33" y="690" on="0"/>
        <pt x="36" y="690" on="1"/>
        <pt x="61" y="690" on="0"/>
        <pt x="98" y="688" on="0"/>
        <pt x="132" y="686" on="0"/>
        <pt x="168" y="684" on="0"/>
        <pt x="191" y="684" on="1"/>
        <pt x="214" y="684" on="0"/>
        <pt x="247" y="686" on="0"/>
        <pt x="278" y="688" on="0"/>
        <pt x="312" y="690" on="0"/>
        <pt x="337" y="690" on="1"/>
        <pt x="341" y="690" on="0"/>
        <pt x="345" y="681" on="0"/>
        <pt x="345" y="676" on="1"/>
        <pt x="345" y="662" on="0"/>
        <pt x="337" y="662" on="1"/>
        <pt x="301" y="657" on="0"/>
        <pt x="262" y="644" on="0"/>
        <pt x="244" y="625" on="0"/>
        <pt x="242" y="596" on="0"/>
        <pt x="242" y="577" on="1"/>
        <pt x="242" y="361" on="1"/>
        <pt x="624" y="361" on="1"/>
        <pt x="624" y="577" on="1"/>
        <pt x="624" y="596" on="0"/>
        <pt x="622" y="625" on="0"/>
        <pt x="604" y="644" on="0"/>
        <pt x="565" y="657" on="0"/>
        <pt x="529" y="662" on="1"/>
        <pt x="521" y="662" on="0"/>
        <pt x="521" y="676" on="1"/>
        <pt x="521" y="681" on="0"/>
        <pt x="525" y="690" on="0"/>
        <pt x="529" y="690" on="1"/>
        <pt x="554" y="690" on="0"/>
        <pt x="588" y="688" on="0"/>
        <pt x="619" y="686" on="0"/>
        <pt x="652" y="684" on="0"/>
        <pt x="675" y="684" on="1"/>
        <pt x="698" y="684" on="0"/>
        <pt x="734" y="686" on="0"/>
        <pt x="768" y="688" on="0"/>
        <pt x="805" y="690" on="0"/>
        <pt x="830" y="690" on="1"/>
        <pt x="833" y="690" on="0"/>
        <pt x="838" y="681" on="0"/>
        <pt x="838" y="676" on="1"/>
        <pt x="838" y="662" on="0"/>
        <pt x="830" y="662" on="1"/>
        <pt x="794" y="657" on="0"/>
        <pt x="752" y="644" on="0"/>
        <pt x="731" y="625" on="0"/>
        <pt x="726" y="596" on="0"/>
        <pt x="726" y="577" on="1"/>
        <pt x="726" y="106" on="1"/>
        <pt x="726" y="87" on="0"/>
        <pt x="731" y="59" on="0"/>
        <pt x="752" y="39" on="0"/>
        <pt x="794" y="26" on="0"/>
        <pt x="830" y="22" on="1"/>
        <pt x="838" y="20" on="0"/>
      </contour>
    </TTGlyph>
    <TTGlyph name="H.sc" xMin="41" yMin="-6" xMax="611" yMax="456">
      <component glyphName="h.sc" x="0" y="0" flags="0x204"/>
    </TTGlyph>
    <TTGlyph name="Hbar" xMin="24" yMin="-6" xMax="842" yMax="690">
      <contour>
        <pt x="838" y="8" on="1"/>
        <pt x="838" y="-6" on="0"/>
        <pt x="830" y="-6" on="1"/>
        <pt x="805" y="-6" on="0"/>
        <pt x="768" y="-4" on="0"/>
        <pt x="734" y="-2" on="0"/>
        <pt x="698" y="0" on="0"/>
        <pt x="675" y="0" on="1"/>
        <pt x="652" y="0" on="0"/>
        <pt x="619" y="-2" on="0"/>
        <pt x="588" y="-4" on="0"/>
        <pt x="554" y="-6" on="0"/>
        <pt x="529" y="-6" on="1"/>
        <pt x="521" y="-6" on="0"/>
        <pt x="521" y="8" on="1"/>
        <pt x="521" y="20" on="0"/>
        <pt x="529" y="22" on="1"/>
        <pt x="565" y="26" on="0"/>
        <pt x="604" y="39" on="0"/>
        <pt x="622" y="59" on="0"/>
        <pt x="624" y="87" on="0"/>
        <pt x="624" y="106" on="1"/>
        <pt x="624" y="329" on="1"/>
        <pt x="242" y="329" on="1"/>
        <pt x="242" y="106" on="1"/>
        <pt x="242" y="87" on="0"/>
        <pt x="244" y="59" on="0"/>
        <pt x="262" y="39" on="0"/>
        <pt x="301" y="26" on="0"/>
        <pt x="337" y="22" on="1"/>
        <pt x="345" y="20" on="0"/>
        <pt x="345" y="8" on="1"/>
        <pt x="345" y="-6" on="0"/>
        <pt x="337" y="-6" on="1"/>
        <pt x="312" y="-6" on="0"/>
        <pt x="278" y="-4" on="0"/>
        <pt x="247" y="-2" on="0"/>
        <pt x="214" y="0" on="0"/>
        <pt x="191" y="0" on="1"/>
        <pt x="168" y="0" on="0"/>
        <pt x="132" y="-2" on="0"/>
        <pt x="98" y="-4" on="0"/>
        <pt x="61" y="-6" on="0"/>
        <pt x="36" y="-6" on="1"/>
        <pt x="28" y="-6" on="0"/>
        <pt x="28" y="8" on="1"/>
        <pt x="28" y="20" on="0"/>
        <pt x="36" y="22" on="1"/>
        <pt x="72" y="26" on="0"/>
        <pt x="114" y="39" on="0"/>
        <pt x="135" y="59" on="0"/>
        <pt x="140" y="87" on="0"/>
        <pt x="140" y="106" on="1"/>
        <pt x="140" y="504" on="1"/>
        <pt x="36" y="504" on="1"/>
        <pt x="24" y="504" on="0"/>
        <pt x="24" y="522" on="1"/>
        <pt x="24" y="540" on="0"/>
        <pt x="36" y="540" on="1"/>
        <pt x="140" y="540" on="1"/>
        <pt x="140" y="577" on="1"/>
        <pt x="140" y="596" on="0"/>
        <pt x="135" y="625" on="0"/>
        <pt x="114" y="644" on="0"/>
        <pt x="72" y="657" on="0"/>
        <pt x="36" y="662" on="1"/>
        <pt x="28" y="662" on="0"/>
        <pt x="28" y="676" on="1"/>
        <pt x="28" y="681" on="0"/>
        <pt x="33" y="690" on="0"/>
        <pt x="36" y="690" on="1"/>
        <pt x="61" y="690" on="0"/>
        <pt x="98" y="688" on="0"/>
        <pt x="132" y="686" on="0"/>
        <pt x="168" y="684" on="0"/>
        <pt x="191" y="684" on="1"/>
        <pt x="214" y="684" on="0"/>
        <pt x="247" y="686" on="0"/>
        <pt x="278" y="688" on="0"/>
        <pt x="312" y="690" on="0"/>
        <pt x="337" y="690" on="1"/>
        <pt x="341" y="690" on="0"/>
        <pt x="345" y="681" on="0"/>
        <pt x="345" y="676" on="1"/>
        <pt x="345" y="662" on="0"/>
        <pt x="337" y="662" on="1"/>
        <pt x="301" y="657" on="0"/>
        <pt x="262" y="644" on="0"/>
        <pt x="244" y="625" on="0"/>
        <pt x="242" y="596" on="0"/>
        <pt x="242" y="577" on="1"/>
        <pt x="242" y="539" on="1"/>
        <pt x="624" y="539" on="1"/>
        <pt x="624" y="577" on="1"/>
        <pt x="624" y="596" on="0"/>
        <pt x="622" y="625" on="0"/>
        <pt x="604" y="644" on="0"/>
        <pt x="565" y="657" on="0"/>
        <pt x="529" y="662" on="1"/>
        <pt x="521" y="662" on="0"/>
        <pt x="521" y="676" on="1"/>
        <pt x="521" y="681" on="0"/>
        <pt x="525" y="690" on="0"/>
        <pt x="529" y="690" on="1"/>
        <pt x="554" y="690" on="0"/>
        <pt x="588" y="688" on="0"/>
        <pt x="619" y="686" on="0"/>
        <pt x="652" y="684" on="0"/>
        <pt x="675" y="684" on="1"/>
        <pt x="698" y="684" on="0"/>
        <pt x="734" y="686" on="0"/>
        <pt x="768" y="688" on="0"/>
        <pt x="805" y="690" on="0"/>
        <pt x="830" y="690" on="1"/>
        <pt x="833" y="690" on="0"/>
        <pt x="838" y="681" on="0"/>
        <pt x="838" y="676" on="1"/>
        <pt x="838" y="662" on="0"/>
        <pt x="830" y="662" on="1"/>
        <pt x="794" y="657" on="0"/>
        <pt x="752" y="644" on="0"/>
        <pt x="731" y="625" on="0"/>
        <pt x="726" y="596" on="0"/>
        <pt x="726" y="577" on="1"/>
        <pt x="726" y="540" on="1"/>
        <pt x="829" y="540" on="1"/>
        <pt x="842" y="540" on="0"/>
        <pt x="842" y="522" on="1"/>
        <pt x="842" y="504" on="0"/>
        <pt x="829" y="504" on="1"/>
        <pt x="726" y="504" on="1"/>
        <pt x="726" y="106" on="1"/>
        <pt x="726" y="87" on="0"/>
        <pt x="731" y="59" on="0"/>
        <pt x="752" y="39" on="0"/>
        <pt x="794" y="26" on="0"/>
        <pt x="830" y="22" on="1"/>
        <pt x="838" y="20" on="0"/>
      </contour>
      <contour>
        <pt x="624" y="361" on="1"/>
        <pt x="624" y="505" on="1"/>
        <pt x="242" y="505" on="1"/>
        <pt x="242" y="361" on="1"/>
      </contour>
    </TTGlyph>
    <TTGlyph name="Hbar.sc" xMin="36" yMin="-6" xMax="617" yMax="456">
      <component glyphName="hbar.sc" x="0" y="0" flags="0x204"/>
    </TTGlyph>
    <TTGlyph name="I" xMin="58" yMin="-6" xMax="383" yMax="690">
      <contour>
        <pt x="383" y="8" on="1"/>
        <pt x="383" y="-6" on="0"/>
        <pt x="375" y="-6" on="1"/>
        <pt x="350" y="-6" on="0"/>
        <pt x="313" y="-4" on="0"/>
        <pt x="280" y="-2" on="0"/>
        <pt x="244" y="0" on="0"/>
        <pt x="221" y="0" on="1"/>
        <pt x="198" y="0" on="0"/>
        <pt x="162" y="-2" on="0"/>
        <pt x="128" y="-4" on="0"/>
        <pt x="91" y="-6" on="0"/>
        <pt x="66" y="-6" on="1"/>
        <pt x="58" y="-6" on="0"/>
        <pt x="58" y="8" on="1"/>
        <pt x="58" y="20" on="0"/>
        <pt x="66" y="22" on="1"/>
        <pt x="102" y="26" on="0"/>
        <pt x="144" y="39" on="0"/>
        <pt x="165" y="59" on="0"/>
        <pt x="170" y="87" on="0"/>
        <pt x="170" y="106" on="1"/>
        <pt x="170" y="577" on="1"/>
        <pt x="170" y="596" on="0"/>
        <pt x="165" y="625" on="0"/>
        <pt x="144" y="644" on="0"/>
        <pt x="102" y="657" on="0"/>
        <pt x="66" y="662" on="1"/>
        <pt x="58" y="662" on="0"/>
        <pt x="58" y="676" on="1"/>
        <pt x="58" y="681" on="0"/>
        <pt x="63" y="690" on="0"/>
        <pt x="66" y="690" on="1"/>
        <pt x="91" y="690" on="0"/>
        <pt x="128" y="688" on="0"/>
        <pt x="162" y="686" on="0"/>
        <pt x="198" y="684" on="0"/>
        <pt x="221" y="684" on="1"/>
        <pt x="244" y="684" on="0"/>
        <pt x="280" y="686" on="0"/>
        <pt x="313" y="688" on="0"/>
        <pt x="350" y="690" on="0"/>
        <pt x="375" y="690" on="1"/>
        <pt x="379" y="690" on="0"/>
        <pt x="383" y="681" on="0"/>
        <pt x="383" y="676" on="1"/>
        <pt x="383" y="662" on="0"/>
        <pt x="375" y="662" on="1"/>
        <pt x="339" y="657" on="0"/>
        <pt x="297" y="644" on="0"/>
        <pt x="277" y="625" on="0"/>
        <pt x="272" y="596" on="0"/>
        <pt x="272" y="577" on="1"/>
        <pt x="272" y="106" on="1"/>
        <pt x="272" y="87" on="0"/>
        <pt x="277" y="59" on="0"/>
        <pt x="297" y="39" on="0"/>
        <pt x="339" y="26" on="0"/>
        <pt x="375" y="22" on="1"/>
        <pt x="383" y="20" on="0"/>
      </contour>
    </TTGlyph>
    <TTGlyph name="I.sc" xMin="66" yMin="-6" xMax="313" yMax="456">
      <component glyphName="i.sc" x="0" y="0" flags="0x204"/>
    </TTGlyph>
    <TTGlyph name="Iacute" xMin="58" yMin="-6" xMax="383" yMax="924">
      <component glyphName="I" x="0" y="0" flags="0x204"/>
      <component glyphName="acute.cap" x="99" y="0" flags="0x4"/>
    </TTGlyph>
    <TTGlyph name="Iacute.sc" xMin="66" yMin="-6" xMax="351" yMax="691">
      <component glyphName="i.sc" x="0" y="0" flags="0x204"/>
      <component glyphName="acute" x="79" y="15" flags="0x4"/>
    </TTGlyph>
    <TTGlyph name="Ibreve" xMin="58" yMin="-6" xMax="383" yMax="907">
      <component glyphName="I" x="0" y="0" flags="0x204"/>
      <component glyphName="breve.cap" x="46" y="0" flags="0x4"/>
    </TTGlyph>
    <TTGlyph name="Ibreve.sc" xMin="58" yMin="-6" xMax="324" yMax="681">
      <component glyphName="i.sc" x="0" y="0" flags="0x204"/>
      <component glyphName="breve" x="16" y="15" flags="0x4"/>
    </TTGlyph>
    <TTGlyph name="Icircumflex" xMin="58" yMin="-6" xMax="383" yMax="910">
      <component glyphName="I" x="0" y="0" flags="0x204"/>
      <component glyphName="circumflex.cap" x="46" y="0" flags="0x4"/>
    </TTGlyph>
    <TTGlyph name="Icircumflex.sc" xMin="66" yMin="-6" xMax="313" yMax="695">
      <component glyphName="i.sc" x="0" y="0" flags="0x204"/>
      <component glyphName="circumflex" x="16" y="15" flags="0x4"/>
    </TTGlyph>
    <TTGlyph name="Idieresis" xMin="58" yMin="-6" xMax="383" yMax="868">
      <component glyphName="I" x="0" y="0" flags="0x204"/>
      <component glyphName="dieresis.cap" x="47" y="0" flags="0x4"/>
    </TTGlyph>
    <TTGlyph name="Idieresis.sc" xMin="51" yMin="-6" xMax="332" yMax="644">
      <component glyphName="i.sc" x="0" y="0" flags="0x204"/>
      <component glyphName="dieresis" x="16" y="15" flags="0x4"/>
    </TTGlyph>
    <TTGlyph name="Idotaccent" xMin="58" yMin="-6" xMax="383" yMax="868">
      <component glyphName="I" x="0" y="0" flags="0x204"/>
      <component glyphName="dotaccent.cap" x="46" y="0" flags="0x4"/>
    </TTGlyph>
    <TTGlyph name="Idotaccent.sc" xMin="66" yMin="-6" xMax="313" yMax="645">
      <component glyphName="i.sc" x="0" y="0" flags="0x204"/>
      <component glyphName="dotaccent" x="16" y="15" flags="0x4"/>
    </TTGlyph>
    <TTGlyph name="Igrave" xMin="58" yMin="-6" xMax="383" yMax="924">
      <component glyphName="I" x="0" y="0" flags="0x204"/>
      <component glyphName="grave.cap" x="-17" y="0" flags="0x4"/>
    </TTGlyph>
    <TTGlyph name="Igrave.sc" xMin="31" yMin="-6" xMax="313" yMax="691">
      <component glyphName="i.sc" x="0" y="0" flags="0x204"/>
      <component glyphName="grave" x="-55" y="15" flags="0x4"/>
    </TTGlyph>
    <TTGlyph name="Imacron" xMin="44" yMin="-6" xMax="397" yMax="844">
      <component glyphName="I" x="0" y="0" flags="0x204"/>
      <component glyphName="macron.cap" x="45" y="0" flags="0x4"/>
    </TTGlyph>
    <TTGlyph name="Imacron.sc" xMin="48" yMin="-6" xMax="334" yMax="612">
      <component glyphName="i.sc" x="0" y="0" flags="0x204"/>
      <component glyphName="macron" x="8" y="15" flags="0x4"/>
    </TTGlyph>
    <TTGlyph name="Iogonek" xMin="58" yMin="-225" xMax="383" yMax="690">
      <contour>
        <pt x="305" y="-179" on="1"/>
        <pt x="289" y="-201" on="0"/>
        <pt x="240" y="-225" on="0"/>
        <pt x="204" y="-225" on="1"/>
        <pt x="181" y="-225" on="0"/>
        <pt x="149" y="-211" on="0"/>
        <pt x="128" y="-188" on="0"/>
        <pt x="118" y="-159" on="0"/>
        <pt x="118" y="-144" on="1"/>
        <pt x="118" y="-110" on="0"/>
        <pt x="160" y="-38" on="0"/>
        <pt x="201" y="0" on="1"/>
        <pt x="183" y="0" on="0"/>
        <pt x="153" y="-2" on="0"/>
        <pt x="122" y="-4" on="0"/>
        <pt x="88" y="-6" on="0"/>
        <pt x="66" y="-6" on="1"/>
        <pt x="58" y="-6" on="0"/>
        <pt x="58" y="8" on="1"/>
        <pt x="58" y="20" on="0"/>
        <pt x="66" y="22" on="1"/>
        <pt x="102" y="26" on="0"/>
        <pt x="144" y="39" on="0"/>
        <pt x="165" y="59" on="0"/>
        <pt x="170" y="87" on="0"/>
        <pt x="170" y="106" on="1"/>
        <pt x="170" y="577" on="1"/>
        <pt x="170" y="596" on="0"/>
        <pt x="165" y="625" on="0"/>
        <pt x="144" y="644" on="0"/>
        <pt x="102" y="657" on="0"/>
        <pt x="66" y="662" on="1"/>
        <pt x="58" y="662" on="0"/>
        <pt x="58" y="676" on="1"/>
        <pt x="58" y="681" on="0"/>
        <pt x="63" y="690" on="0"/>
        <pt x="66" y="690" on="1"/>
        <pt x="91" y="690" on="0"/>
        <pt x="128" y="688" on="0"/>
        <pt x="162" y="686" on="0"/>
        <pt x="198" y="684" on="0"/>
        <pt x="221" y="684" on="1"/>
        <pt x="244" y="684" on="0"/>
        <pt x="280" y="686" on="0"/>
        <pt x="313" y="688" on="0"/>
        <pt x="350" y="690" on="0"/>
        <pt x="375" y="690" on="1"/>
        <pt x="379" y="690" on="0"/>
        <pt x="383" y="681" on="0"/>
        <pt x="383" y="676" on="1"/>
        <pt x="383" y="662" on="0"/>
        <pt x="375" y="662" on="1"/>
        <pt x="339" y="657" on="0"/>
        <pt x="297" y="644" on="0"/>
        <pt x="277" y="625" on="0"/>
        <pt x="272" y="596" on="0"/>
        <pt x="272" y="577" on="1"/>
        <pt x="272" y="106" on="1"/>
        <pt x="272" y="87" on="0"/>
        <pt x="277" y="59" on="0"/>
        <pt x="297" y="39" on="0"/>
        <pt x="339" y="26" on="0"/>
        <pt x="375" y="22" on="1"/>
        <pt x="383" y="20" on="0"/>
        <pt x="383" y="8" on="1"/>
        <pt x="383" y="-6" on="0"/>
        <pt x="375" y="-6" on="1"/>
        <pt x="354" y="-6" on="0"/>
        <pt x="321" y="-4" on="0"/>
        <pt x="291" y="-2" on="0"/>
        <pt x="263" y="0" on="0"/>
        <pt x="246" y="0" on="1"/>
        <pt x="217" y="-30" on="0"/>
        <pt x="185" y="-93" on="0"/>
        <pt x="185" y="-122" on="1"/>
        <pt x="185" y="-174" on="0"/>
        <pt x="242" y="-174" on="1"/>
        <pt x="256" y="-174" on="0"/>
        <pt x="279" y="-162" on="0"/>
        <pt x="290" y="-155" on="1"/>
        <pt x="293" y="-153" on="0"/>
        <pt x="301" y="-158" on="0"/>
        <pt x="304" y="-163" on="1"/>
        <pt x="309" y="-172" on="0"/>
      </contour>
    </TTGlyph>
    <TTGlyph name="Iogonek.sc" xMin="66" yMin="-225" xMax="313" yMax="456">
      <component glyphName="iogonek.sc" x="0" y="0" flags="0x204"/>
    </TTGlyph>
    <TTGlyph name="J" xMin="-132" yMin="-239" xMax="359" yMax="690">
      <contour>
        <pt x="359" y="676" on="1"/>
        <pt x="359" y="662" on="0"/>
        <pt x="351" y="662" on="1"/>
        <pt x="315" y="657" on="0"/>
        <pt x="273" y="644" on="0"/>
        <pt x="252" y="625" on="0"/>
        <pt x="247" y="596" on="0"/>
        <pt x="247" y="577" on="1"/>
        <pt x="247" y="134" on="1"/>
        <pt x="247" y="62" on="0"/>
        <pt x="199" y="-73" on="0"/>
        <pt x="119" y="-176" on="0"/>
        <pt x="15" y="-239" on="0"/>
        <pt x="-41" y="-239" on="1"/>
        <pt x="-85" y="-239" on="0"/>
        <pt x="-132" y="-203" on="0"/>
        <pt x="-132" y="-174" on="1"/>
        <pt x="-132" y="-148" on="0"/>
        <pt x="-93" y="-109" on="0"/>
        <pt x="-59" y="-109" on="1"/>
        <pt x="-38" y="-109" on="0"/>
        <pt x="-13" y="-128" on="0"/>
        <pt x="7" y="-152" on="0"/>
        <pt x="27" y="-171" on="0"/>
        <pt x="44" y="-171" on="1"/>
        <pt x="60" y="-171" on="0"/>
        <pt x="96" y="-146" on="0"/>
        <pt x="126" y="-83" on="0"/>
        <pt x="145" y="24" on="0"/>
        <pt x="145" y="106" on="1"/>
        <pt x="145" y="577" on="1"/>
        <pt x="145" y="596" on="0"/>
        <pt x="140" y="625" on="0"/>
        <pt x="120" y="644" on="0"/>
        <pt x="78" y="657" on="0"/>
        <pt x="42" y="662" on="1"/>
        <pt x="34" y="662" on="0"/>
        <pt x="34" y="676" on="1"/>
        <pt x="34" y="681" on="0"/>
        <pt x="38" y="690" on="0"/>
        <pt x="42" y="690" on="1"/>
        <pt x="67" y="690" on="0"/>
        <pt x="104" y="688" on="0"/>
        <pt x="137" y="686" on="0"/>
        <pt x="173" y="684" on="0"/>
        <pt x="196" y="684" on="1"/>
        <pt x="219" y="684" on="0"/>
        <pt x="255" y="686" on="0"/>
        <pt x="289" y="688" on="0"/>
        <pt x="326" y="690" on="0"/>
        <pt x="351" y="690" on="1"/>
        <pt x="354" y="690" on="0"/>
        <pt x="359" y="681" on="0"/>
      </contour>
    </TTGlyph>
    <TTGlyph name="J.sc" xMin="-61" yMin="-168" xMax="304" yMax="456">
      <component glyphName="j.sc" x="0" y="0" flags="0x204"/>
    </TTGlyph>
    <TTGlyph name="K" xMin="28" yMin="-6" xMax="788" yMax="690">
      <contour>
        <pt x="788" y="8" on="1"/>
        <pt x="788" y="-6" on="0"/>
        <pt x="780" y="-6" on="1"/>
        <pt x="755" y="-6" on="0"/>
        <pt x="718" y="-4" on="0"/>
        <pt x="684" y="-2" on="0"/>
        <pt x="648" y="0" on="0"/>
        <pt x="625" y="0" on="1"/>
        <pt x="602" y="0" on="0"/>
        <pt x="562" y="-2" on="0"/>
        <pt x="522" y="-4" on="0"/>
        <pt x="480" y="-6" on="0"/>
        <pt x="455" y="-6" on="1"/>
        <pt x="447" y="-6" on="0"/>
        <pt x="447" y="8" on="1"/>
        <pt x="447" y="20" on="0"/>
        <pt x="454" y="22" on="1"/>
        <pt x="522" y="29" on="0"/>
        <pt x="522" y="54" on="1"/>
        <pt x="522" y="68" on="0"/>
        <pt x="500" y="90" on="1"/>
        <pt x="301" y="292" on="1"/>
        <pt x="285" y="308" on="0"/>
        <pt x="262" y="318" on="0"/>
        <pt x="241" y="318" on="1"/>
        <pt x="241" y="106" on="1"/>
        <pt x="241" y="87" on="0"/>
        <pt x="246" y="59" on="0"/>
        <pt x="267" y="39" on="0"/>
        <pt x="309" y="26" on="0"/>
        <pt x="345" y="22" on="1"/>
        <pt x="353" y="20" on="0"/>
        <pt x="353" y="8" on="1"/>
        <pt x="353" y="-6" on="0"/>
        <pt x="345" y="-6" on="1"/>
        <pt x="320" y="-6" on="0"/>
        <pt x="283" y="-4" on="0"/>
        <pt x="249" y="-2" on="0"/>
        <pt x="213" y="0" on="0"/>
        <pt x="190" y="0" on="1"/>
        <pt x="167" y="0" on="0"/>
        <pt x="132" y="-2" on="0"/>
        <pt x="98" y="-4" on="0"/>
        <pt x="61" y="-6" on="0"/>
        <pt x="36" y="-6" on="1"/>
        <pt x="28" y="-6" on="0"/>
        <pt x="28" y="8" on="1"/>
        <pt x="28" y="20" on="0"/>
        <pt x="36" y="22" on="1"/>
        <pt x="72" y="26" on="0"/>
        <pt x="114" y="39" on="0"/>
        <pt x="135" y="59" on="0"/>
        <pt x="140" y="87" on="0"/>
        <pt x="140" y="106" on="1"/>
        <pt x="140" y="577" on="1"/>
        <pt x="140" y="596" on="0"/>
        <pt x="135" y="625" on="0"/>
        <pt x="114" y="644" on="0"/>
        <pt x="72" y="657" on="0"/>
        <pt x="36" y="662" on="1"/>
        <pt x="28" y="662" on="0"/>
        <pt x="28" y="676" on="1"/>
        <pt x="28" y="681" on="0"/>
        <pt x="33" y="690" on="0"/>
        <pt x="36" y="690" on="1"/>
        <pt x="61" y="690" on="0"/>
        <pt x="98" y="688" on="0"/>
        <pt x="132" y="686" on="0"/>
        <pt x="167" y="684" on="0"/>
        <pt x="190" y="684" on="1"/>
        <pt x="213" y="684" on="0"/>
        <pt x="249" y="686" on="0"/>
        <pt x="283" y="688" on="0"/>
        <pt x="320" y="690" on="0"/>
        <pt x="345" y="690" on="1"/>
        <pt x="348" y="690" on="0"/>
        <pt x="353" y="681" on="0"/>
        <pt x="353" y="676" on="1"/>
        <pt x="353" y="662" on="0"/>
        <pt x="345" y="662" on="1"/>
        <pt x="309" y="657" on="0"/>
        <pt x="267" y="644" on="0"/>
        <pt x="246" y="625" on="0"/>
        <pt x="241" y="596" on="0"/>
        <pt x="241" y="577" on="1"/>
        <pt x="241" y="350" on="1"/>
        <pt x="261" y="350" on="0"/>
        <pt x="284" y="360" on="0"/>
        <pt x="301" y="376" on="1"/>
        <pt x="521" y="593" on="1"/>
        <pt x="533" y="604" on="0"/>
        <pt x="548" y="622" on="0"/>
        <pt x="548" y="630" on="1"/>
        <pt x="548" y="645" on="0"/>
        <pt x="519" y="657" on="0"/>
        <pt x="484" y="662" on="1"/>
        <pt x="476" y="662" on="0"/>
        <pt x="476" y="676" on="1"/>
        <pt x="476" y="681" on="0"/>
        <pt x="481" y="690" on="0"/>
        <pt x="485" y="690" on="1"/>
        <pt x="503" y="690" on="0"/>
        <pt x="533" y="688" on="0"/>
        <pt x="563" y="686" on="0"/>
        <pt x="595" y="684" on="0"/>
        <pt x="615" y="684" on="1"/>
        <pt x="634" y="684" on="0"/>
        <pt x="661" y="686" on="0"/>
        <pt x="684" y="688" on="0"/>
        <pt x="707" y="690" on="0"/>
        <pt x="722" y="690" on="1"/>
        <pt x="725" y="690" on="0"/>
        <pt x="729" y="681" on="0"/>
        <pt x="729" y="676" on="1"/>
        <pt x="729" y="662" on="0"/>
        <pt x="721" y="662" on="1"/>
        <pt x="697" y="659" on="0"/>
        <pt x="662" y="650" on="0"/>
        <pt x="630" y="635" on="0"/>
        <pt x="599" y="611" on="0"/>
        <pt x="579" y="593" on="1"/>
        <pt x="351" y="375" on="1"/>
        <pt x="635" y="87" on="1"/>
        <pt x="653" y="69" on="0"/>
        <pt x="685" y="46" on="0"/>
        <pt x="718" y="32" on="0"/>
        <pt x="756" y="25" on="0"/>
        <pt x="779" y="22" on="1"/>
        <pt x="788" y="20" on="0"/>
      </contour>
    </TTGlyph>
    <TTGlyph name="K.sc" xMin="41" yMin="-6" xMax="579" yMax="456">
      <component glyphName="k.sc" x="0" y="0" flags="0x204"/>
    </TTGlyph>
    <TTGlyph name="Kcommaaccent" xMin="28" yMin="-284" xMax="788" yMax="690">
      <component glyphName="K" x="0" y="0" flags="0x204"/>
      <component glyphName="commaaccent" x="286" y="-4" flags="0x4"/>
    </TTGlyph>
    <TTGlyph name="Kcommaaccent.sc" xMin="41" yMin="-280" xMax="579" yMax="456">
      <component glyphName="k.sc" x="0" y="0" flags="0x204"/>
      <component glyphName="commaaccent" x="194" y="0" flags="0x4"/>
    </TTGlyph>
    <TTGlyph name="L" xMin="28" yMin="-6" xMax="616" yMax="690">
      <contour>
        <pt x="615" y="178" on="1"/>
        <pt x="608" y="153" on="0"/>
        <pt x="598" y="110" on="0"/>
        <pt x="589" y="67" on="0"/>
        <pt x="582" y="21" on="0"/>
        <pt x="578" y="-6" on="1"/>
        <pt x="554" y="-5" on="0"/>
        <pt x="481" y="-3" on="0"/>
        <pt x="403" y="-1" on="0"/>
        <pt x="330" y="0" on="0"/>
        <pt x="305" y="0" on="1"/>
        <pt x="280" y="0" on="0"/>
        <pt x="208" y="-1" on="0"/>
        <pt x="131" y="-3" on="0"/>
        <pt x="60" y="-5" on="0"/>
        <pt x="36" y="-6" on="1"/>
        <pt x="28" y="-6" on="0"/>
        <pt x="28" y="8" on="1"/>
        <pt x="28" y="20" on="0"/>
        <pt x="36" y="22" on="1"/>
        <pt x="72" y="26" on="0"/>
        <pt x="114" y="39" on="0"/>
        <pt x="135" y="59" on="0"/>
        <pt x="140" y="87" on="0"/>
        <pt x="140" y="106" on="1"/>
        <pt x="140" y="577" on="1"/>
        <pt x="140" y="596" on="0"/>
        <pt x="135" y="625" on="0"/>
        <pt x="114" y="644" on="0"/>
        <pt x="72" y="657" on="0"/>
        <pt x="36" y="662" on="1"/>
        <pt x="28" y="662" on="0"/>
        <pt x="28" y="676" on="1"/>
        <pt x="28" y="681" on="0"/>
        <pt x="33" y="690" on="0"/>
        <pt x="36" y="690" on="1"/>
        <pt x="61" y="690" on="0"/>
        <pt x="98" y="688" on="0"/>
        <pt x="132" y="686" on="0"/>
        <pt x="168" y="684" on="0"/>
        <pt x="191" y="684" on="1"/>
        <pt x="214" y="684" on="0"/>
        <pt x="250" y="686" on="0"/>
        <pt x="283" y="688" on="0"/>
        <pt x="320" y="690" on="0"/>
        <pt x="345" y="690" on="1"/>
        <pt x="349" y="690" on="0"/>
        <pt x="353" y="681" on="0"/>
        <pt x="353" y="676" on="1"/>
        <pt x="353" y="662" on="0"/>
        <pt x="345" y="662" on="1"/>
        <pt x="309" y="657" on="0"/>
        <pt x="267" y="644" on="0"/>
        <pt x="247" y="625" on="0"/>
        <pt x="242" y="596" on="0"/>
        <pt x="242" y="577" on="1"/>
        <pt x="242" y="91" on="1"/>
        <pt x="242" y="73" on="0"/>
        <pt x="253" y="50" on="0"/>
        <pt x="270" y="37" on="0"/>
        <pt x="290" y="32" on="0"/>
        <pt x="300" y="32" on="1"/>
        <pt x="399" y="32" on="1"/>
        <pt x="438" y="32" on="0"/>
        <pt x="496" y="56" on="0"/>
        <pt x="539" y="98" on="0"/>
        <pt x="573" y="154" on="0"/>
        <pt x="588" y="187" on="1"/>
        <pt x="589" y="191" on="0"/>
        <pt x="597" y="191" on="1"/>
        <pt x="605" y="191" on="0"/>
        <pt x="616" y="182" on="0"/>
      </contour>
    </TTGlyph>
    <TTGlyph name="L.sc" xMin="41" yMin="-6" xMax="479" yMax="456">
      <component glyphName="l.sc" x="0" y="0" flags="0x204"/>
    </TTGlyph>
    <TTGlyph name="Lacute" xMin="28" yMin="-6" xMax="616" yMax="924">
      <component glyphName="L" x="0" y="0" flags="0x204"/>
      <component glyphName="acute.cap" x="69" y="0" flags="0x4"/>
    </TTGlyph>
    <TTGlyph name="Lacute.sc" xMin="41" yMin="-6" xMax="479" yMax="691">
      <component glyphName="l.sc" x="0" y="0" flags="0x204"/>
      <component glyphName="acute" x="66" y="15" flags="0x4"/>
    </TTGlyph>
    <TTGlyph name="Lcaron" xMin="28" yMin="-6" xMax="616" yMax="692">
      <component glyphName="L" x="0" y="0" flags="0x204"/>
      <component glyphName="caron.alt" x="394" y="-65" flags="0x4"/>
    </TTGlyph>
    <TTGlyph name="Lcaron.sc" xMin="41" yMin="-6" xMax="479" yMax="458">
      <component glyphName="l.sc" x="0" y="0" flags="0x204"/>
      <component glyphName="caron.alt" x="319" y="-299" flags="0x4"/>
    </TTGlyph>
    <TTGlyph name="Lcommaaccent" xMin="28" yMin="-289" xMax="616" yMax="690">
      <component glyphName="L" x="0" y="0" flags="0x204"/>
      <component glyphName="commaaccent" x="220" y="-9" flags="0x4"/>
    </TTGlyph>
    <TTGlyph name="Lcommaaccent.sc" xMin="41" yMin="-284" xMax="479" yMax="456">
      <component glyphName="l.sc" x="0" y="0" flags="0x204"/>
      <component glyphName="commaaccent" x="147" y="-4" flags="0x4"/>
    </TTGlyph>
    <TTGlyph name="Ldot" xMin="28" yMin="-6" xMax="616" yMax="690">
      <component glyphName="L" x="0" y="0" flags="0x204"/>
      <component glyphName="periodcentered" x="397" y="28" flags="0x4"/>
    </TTGlyph>
    <TTGlyph name="Ldot.sc" xMin="41" yMin="-6" xMax="472" yMax="456">
      <component glyphName="ldot.sc" x="0" y="0" flags="0x204"/>
    </TTGlyph>
    <TTGlyph name="Lslash" xMin="5" yMin="-6" xMax="616" yMax="690">
      <contour>
        <pt x="614" y="178" on="1"/>
        <pt x="608" y="153" on="0"/>
        <pt x="597" y="110" on="0"/>
        <pt x="588" y="67" on="0"/>
        <pt x="581" y="21" on="0"/>
        <pt x="577" y="-6" on="1"/>
        <pt x="553" y="-5" on="0"/>
        <pt x="481" y="-3" on="0"/>
        <pt x="403" y="-1" on="0"/>
        <pt x="330" y="0" on="0"/>
        <pt x="305" y="0" on="1"/>
        <pt x="280" y="0" on="0"/>
        <pt x="207" y="-1" on="0"/>
        <pt x="131" y="-3" on="0"/>
        <pt x="60" y="-5" on="0"/>
        <pt x="36" y="-6" on="1"/>
        <pt x="28" y="-6" on="0"/>
        <pt x="28" y="8" on="1"/>
        <pt x="28" y="22" on="0"/>
        <pt x="36" y="22" on="1"/>
        <pt x="72" y="26" on="0"/>
        <pt x="114" y="39" on="0"/>
        <pt x="135" y="59" on="0"/>
        <pt x="140" y="87" on="0"/>
        <pt x="140" y="107" on="1"/>
        <pt x="140" y="281" on="1"/>
        <pt x="37" y="222" on="1"/>
        <pt x="33" y="220" on="0"/>
        <pt x="31" y="220" on="1"/>
        <pt x="26" y="220" on="0"/>
        <pt x="17" y="230" on="0"/>
        <pt x="12" y="237" on="1"/>
        <pt x="5" y="249" on="0"/>
        <pt x="5" y="256" on="1"/>
        <pt x="5" y="263" on="0"/>
        <pt x="11" y="266" on="1"/>
        <pt x="140" y="340" on="1"/>
        <pt x="140" y="577" on="1"/>
        <pt x="140" y="596" on="0"/>
        <pt x="135" y="625" on="0"/>
        <pt x="114" y="645" on="0"/>
        <pt x="72" y="658" on="0"/>
        <pt x="36" y="662" on="1"/>
        <pt x="28" y="662" on="0"/>
        <pt x="28" y="676" on="1"/>
        <pt x="28" y="690" on="0"/>
        <pt x="36" y="690" on="1"/>
        <pt x="61" y="690" on="0"/>
        <pt x="98" y="688" on="0"/>
        <pt x="132" y="686" on="0"/>
        <pt x="168" y="684" on="0"/>
        <pt x="191" y="684" on="1"/>
        <pt x="214" y="684" on="0"/>
        <pt x="249" y="686" on="0"/>
        <pt x="283" y="688" on="0"/>
        <pt x="320" y="690" on="0"/>
        <pt x="345" y="690" on="1"/>
        <pt x="353" y="690" on="0"/>
        <pt x="353" y="676" on="1"/>
        <pt x="353" y="662" on="0"/>
        <pt x="345" y="662" on="1"/>
        <pt x="309" y="658" on="0"/>
        <pt x="267" y="645" on="0"/>
        <pt x="246" y="625" on="0"/>
        <pt x="241" y="596" on="0"/>
        <pt x="241" y="577" on="1"/>
        <pt x="241" y="400" on="1"/>
        <pt x="398" y="490" on="1"/>
        <pt x="402" y="492" on="0"/>
        <pt x="404" y="492" on="1"/>
        <pt x="409" y="492" on="0"/>
        <pt x="419" y="482" on="0"/>
        <pt x="423" y="475" on="1"/>
        <pt x="430" y="463" on="0"/>
        <pt x="430" y="456" on="1"/>
        <pt x="430" y="449" on="0"/>
        <pt x="424" y="446" on="1"/>
        <pt x="241" y="340" on="1"/>
        <pt x="241" y="92" on="1"/>
        <pt x="241" y="74" on="0"/>
        <pt x="252" y="50" on="0"/>
        <pt x="269" y="37" on="0"/>
        <pt x="290" y="32" on="0"/>
        <pt x="300" y="32" on="1"/>
        <pt x="399" y="32" on="1"/>
        <pt x="438" y="32" on="0"/>
        <pt x="495" y="56" on="0"/>
        <pt x="539" y="98" on="0"/>
        <pt x="572" y="155" on="0"/>
        <pt x="588" y="188" on="1"/>
        <pt x="590" y="192" on="0"/>
        <pt x="597" y="192" on="1"/>
        <pt x="605" y="192" on="0"/>
        <pt x="616" y="183" on="0"/>
      </contour>
    </TTGlyph>
    <TTGlyph name="Lslash.sc" xMin="39" yMin="-5" xMax="480" yMax="456">
      <component glyphName="lslash.sc" x="0" y="0" flags="0x204"/>
    </TTGlyph>
    <TTGlyph name="M" xMin="6" yMin="-22" xMax="952" yMax="690">
      <contour>
        <pt x="952" y="8" on="1"/>
        <pt x="952" y="-6" on="0"/>
        <pt x="944" y="-6" on="1"/>
        <pt x="919" y="-6" on="0"/>
        <pt x="881" y="-4" on="0"/>
        <pt x="846" y="-2" on="0"/>
        <pt x="809" y="0" on="0"/>
        <pt x="786" y="0" on="1"/>
        <pt x="763" y="0" on="0"/>
        <pt x="727" y="-2" on="0"/>
        <pt x="694" y="-4" on="0"/>
        <pt x="657" y="-6" on="0"/>
        <pt x="632" y="-6" on="1"/>
        <pt x="623" y="-6" on="0"/>
        <pt x="623" y="8" on="1"/>
        <pt x="623" y="20" on="0"/>
        <pt x="631" y="22" on="1"/>
        <pt x="667" y="26" on="0"/>
        <pt x="708" y="39" on="0"/>
        <pt x="728" y="59" on="0"/>
        <pt x="732" y="87" on="0"/>
        <pt x="732" y="106" on="1"/>
        <pt x="711" y="591" on="1"/>
        <pt x="470" y="-14" on="1"/>
        <pt x="467" y="-22" on="0"/>
        <pt x="456" y="-22" on="1"/>
        <pt x="444" y="-22" on="0"/>
        <pt x="442" y="-14" on="1"/>
        <pt x="215" y="567" on="1"/>
        <pt x="179" y="106" on="1"/>
        <pt x="177" y="87" on="0"/>
        <pt x="183" y="59" on="0"/>
        <pt x="204" y="39" on="0"/>
        <pt x="247" y="26" on="0"/>
        <pt x="283" y="22" on="1"/>
        <pt x="290" y="21" on="0"/>
        <pt x="290" y="8" on="1"/>
        <pt x="290" y="2" on="0"/>
        <pt x="284" y="-6" on="0"/>
        <pt x="281" y="-6" on="1"/>
        <pt x="243" y="-6" on="0"/>
        <pt x="180" y="0" on="0"/>
        <pt x="145" y="0" on="1"/>
        <pt x="108" y="0" on="0"/>
        <pt x="48" y="-6" on="0"/>
        <pt x="13" y="-6" on="1"/>
        <pt x="6" y="-6" on="0"/>
        <pt x="6" y="8" on="1"/>
        <pt x="6" y="14" on="0"/>
        <pt x="12" y="21" on="0"/>
        <pt x="15" y="22" on="1"/>
        <pt x="52" y="26" on="0"/>
        <pt x="96" y="39" on="0"/>
        <pt x="120" y="59" on="0"/>
        <pt x="128" y="87" on="0"/>
        <pt x="130" y="106" on="1"/>
        <pt x="182" y="577" on="1"/>
        <pt x="184" y="596" on="0"/>
        <pt x="178" y="625" on="0"/>
        <pt x="156" y="644" on="0"/>
        <pt x="112" y="657" on="0"/>
        <pt x="76" y="662" on="1"/>
        <pt x="69" y="662" on="0"/>
        <pt x="69" y="676" on="1"/>
        <pt x="69" y="681" on="0"/>
        <pt x="75" y="690" on="0"/>
        <pt x="78" y="690" on="1"/>
        <pt x="104" y="690" on="0"/>
        <pt x="152" y="684" on="0"/>
        <pt x="173" y="684" on="1"/>
        <pt x="199" y="684" on="0"/>
        <pt x="248" y="690" on="0"/>
        <pt x="275" y="690" on="1"/>
        <pt x="490" y="133" on="1"/>
        <pt x="712" y="690" on="1"/>
        <pt x="741" y="690" on="0"/>
        <pt x="785" y="684" on="0"/>
        <pt x="811" y="684" on="1"/>
        <pt x="827" y="684" on="0"/>
        <pt x="850" y="686" on="0"/>
        <pt x="873" y="688" on="0"/>
        <pt x="897" y="690" on="0"/>
        <pt x="914" y="690" on="1"/>
        <pt x="918" y="690" on="0"/>
        <pt x="923" y="681" on="0"/>
        <pt x="923" y="676" on="1"/>
        <pt x="923" y="662" on="0"/>
        <pt x="915" y="662" on="1"/>
        <pt x="879" y="657" on="0"/>
        <pt x="838" y="644" on="0"/>
        <pt x="818" y="625" on="0"/>
        <pt x="814" y="596" on="0"/>
        <pt x="814" y="577" on="1"/>
        <pt x="837" y="106" on="1"/>
        <pt x="838" y="87" on="0"/>
        <pt x="844" y="59" on="0"/>
        <pt x="865" y="39" on="0"/>
        <pt x="907" y="26" on="0"/>
        <pt x="944" y="22" on="1"/>
        <pt x="952" y="20" on="0"/>
      </contour>
    </TTGlyph>
    <TTGlyph name="M.sc" xMin="9" yMin="-19" xMax="661" yMax="456">
      <component glyphName="m.sc" x="0" y="0" flags="0x204"/>
    </TTGlyph>
    <TTGlyph name="N" xMin="12" yMin="-22" xMax="858" yMax="690">
      <contour>
        <pt x="858" y="675" on="1"/>
        <pt x="858" y="663" on="0"/>
        <pt x="850" y="661" on="1"/>
        <pt x="813" y="657" on="0"/>
        <pt x="770" y="644" on="0"/>
        <pt x="747" y="624" on="0"/>
        <pt x="740" y="596" on="0"/>
        <pt x="740" y="577" on="1"/>
        <pt x="729" y="-12" on="1"/>
        <pt x="729" y="-22" on="0"/>
        <pt x="717" y="-22" on="1"/>
        <pt x="712" y="-22" on="0"/>
        <pt x="705" y="-17" on="0"/>
        <pt x="701" y="-14" on="1"/>
        <pt x="185" y="569" on="1"/>
        <pt x="178" y="106" on="1"/>
        <pt x="177" y="87" on="0"/>
        <pt x="184" y="59" on="0"/>
        <pt x="208" y="39" on="0"/>
        <pt x="252" y="26" on="0"/>
        <pt x="288" y="22" on="1"/>
        <pt x="296" y="20" on="0"/>
        <pt x="296" y="8" on="1"/>
        <pt x="296" y="-6" on="0"/>
        <pt x="288" y="-6" on="1"/>
        <pt x="250" y="-6" on="0"/>
        <pt x="186" y="0" on="0"/>
        <pt x="151" y="0" on="1"/>
        <pt x="114" y="0" on="0"/>
        <pt x="55" y="-6" on="0"/>
        <pt x="20" y="-6" on="1"/>
        <pt x="12" y="-6" on="0"/>
        <pt x="12" y="8" on="1"/>
        <pt x="12" y="20" on="0"/>
        <pt x="21" y="22" on="1"/>
        <pt x="57" y="26" on="0"/>
        <pt x="100" y="39" on="0"/>
        <pt x="123" y="59" on="0"/>
        <pt x="130" y="87" on="0"/>
        <pt x="130" y="106" on="1"/>
        <pt x="148" y="577" on="1"/>
        <pt x="148" y="596" on="0"/>
        <pt x="141" y="625" on="0"/>
        <pt x="117" y="644" on="0"/>
        <pt x="73" y="657" on="0"/>
        <pt x="37" y="662" on="1"/>
        <pt x="30" y="662" on="0"/>
        <pt x="30" y="676" on="1"/>
        <pt x="30" y="681" on="0"/>
        <pt x="34" y="690" on="0"/>
        <pt x="38" y="690" on="1"/>
        <pt x="64" y="690" on="0"/>
        <pt x="107" y="684" on="0"/>
        <pt x="129" y="684" on="1"/>
        <pt x="142" y="684" on="0"/>
        <pt x="162" y="686" on="0"/>
        <pt x="180" y="688" on="0"/>
        <pt x="200" y="690" on="0"/>
        <pt x="214" y="690" on="1"/>
        <pt x="696" y="151" on="1"/>
        <pt x="696" y="577" on="1"/>
        <pt x="696" y="596" on="0"/>
        <pt x="687" y="624" on="0"/>
        <pt x="663" y="644" on="0"/>
        <pt x="618" y="657" on="0"/>
        <pt x="582" y="661" on="1"/>
        <pt x="574" y="663" on="0"/>
        <pt x="574" y="675" on="1"/>
        <pt x="574" y="689" on="0"/>
        <pt x="582" y="689" on="1"/>
        <pt x="621" y="689" on="0"/>
        <pt x="684" y="684" on="0"/>
        <pt x="719" y="684" on="1"/>
        <pt x="756" y="684" on="0"/>
        <pt x="815" y="689" on="0"/>
        <pt x="850" y="689" on="1"/>
        <pt x="858" y="689" on="0"/>
      </contour>
    </TTGlyph>
    <TTGlyph name="N.sc" xMin="19" yMin="-19" xMax="604" yMax="456">
      <component glyphName="n.sc" x="0" y="0" flags="0x204"/>
    </TTGlyph>
    <TTGlyph name="Nacute" xMin="12" yMin="-22" xMax="858" yMax="924">
      <component glyphName="N" x="0" y="0" flags="0x204"/>
      <component glyphName="acute.cap" x="319" y="0" flags="0x4"/>
    </TTGlyph>
    <TTGlyph name="Nacute.sc" xMin="19" yMin="-19" xMax="604" yMax="691">
      <component glyphName="n.sc" x="0" y="0" flags="0x204"/>
      <component glyphName="acute" x="196" y="15" flags="0x4"/>
    </TTGlyph>
    <TTGlyph name="Ncaron" xMin="12" yMin="-22" xMax="858" yMax="918">
      <component glyphName="N" x="0" y="0" flags="0x204"/>
      <component glyphName="caron.cap" x="266" y="0" flags="0x4"/>
    </TTGlyph>
    <TTGlyph name="Ncaron.sc" xMin="19" yMin="-19" xMax="604" yMax="701">
      <component glyphName="n.sc" x="0" y="0" flags="0x204"/>
      <component glyphName="caron" x="133" y="15" flags="0x4"/>
    </TTGlyph>
    <TTGlyph name="Ncommaaccent" xMin="12" yMin="-284" xMax="858" yMax="690">
      <component glyphName="N" x="0" y="0" flags="0x204"/>
      <component glyphName="commaaccent" x="337" y="-4" flags="0x4"/>
    </TTGlyph>
    <TTGlyph name="Ncommaaccent.sc" xMin="19" yMin="-280" xMax="604" yMax="456">
      <component glyphName="n.sc" x="0" y="0" flags="0x204"/>
      <component glyphName="commaaccent" x="194" y="0" flags="0x4"/>
    </TTGlyph>
    <TTGlyph name="Ntilde" xMin="12" yMin="-22" xMax="858" yMax="919">
      <component glyphName="N" x="0" y="0" flags="0x204"/>
      <component glyphName="tilde.cap" x="282" y="0" flags="0x4"/>
    </TTGlyph>
    <TTGlyph name="Ntilde.sc" xMin="19" yMin="-19" xMax="604" yMax="673">
      <component glyphName="n.sc" x="0" y="0" flags="0x204"/>
      <component glyphName="tilde" x="152" y="15" flags="0x4"/>
    </TTGlyph>
    <TTGlyph name="O" xMin="45" yMin="-22" xMax="782" yMax="705">
      <contour>
        <pt x="782" y="338" on="1"/>
        <pt x="782" y="263" on="0"/>
        <pt x="731" y="131" on="0"/>
        <pt x="636" y="34" on="0"/>
        <pt x="499" y="-22" on="0"/>
        <pt x="413" y="-22" on="1"/>
        <pt x="327" y="-22" on="0"/>
        <pt x="191" y="34" on="0"/>
        <pt x="96" y="131" on="0"/>
        <pt x="45" y="263" on="0"/>
        <pt x="45" y="338" on="1"/>
        <pt x="45" y="413" on="0"/>
        <pt x="96" y="546" on="0"/>
        <pt x="191" y="647" on="0"/>
        <pt x="327" y="705" on="0"/>
        <pt x="413" y="705" on="1"/>
        <pt x="499" y="705" on="0"/>
        <pt x="636" y="647" on="0"/>
        <pt x="731" y="546" on="0"/>
        <pt x="782" y="413" on="0"/>
      </contour>
      <contour>
        <pt x="672" y="338" on="1"/>
        <pt x="672" y="407" on="0"/>
        <pt x="637" y="529" on="0"/>
        <pt x="571" y="620" on="0"/>
        <pt x="474" y="673" on="0"/>
        <pt x="413" y="673" on="1"/>
        <pt x="351" y="673" on="0"/>
        <pt x="255" y="620" on="0"/>
        <pt x="189" y="529" on="0"/>
        <pt x="155" y="407" on="0"/>
        <pt x="155" y="338" on="1"/>
        <pt x="155" y="269" on="0"/>
        <pt x="189" y="149" on="0"/>
        <pt x="255" y="60" on="0"/>
        <pt x="351" y="10" on="0"/>
        <pt x="413" y="10" on="1"/>
        <pt x="474" y="10" on="0"/>
        <pt x="571" y="60" on="0"/>
        <pt x="637" y="149" on="0"/>
        <pt x="672" y="269" on="0"/>
      </contour>
    </TTGlyph>
    <TTGlyph name="O.sc" xMin="35" yMin="-21" xMax="557" yMax="471">
      <component glyphName="o.sc" x="0" y="0" flags="0x204"/>
    </TTGlyph>
    <TTGlyph name="OE" xMin="45" yMin="-6" xMax="1018" yMax="693">
      <contour>
        <pt x="1016" y="159" on="1"/>
        <pt x="997" y="117" on="0"/>
        <pt x="966" y="41" on="0"/>
        <pt x="950" y="-6" on="1"/>
        <pt x="926" y="-5" on="0"/>
        <pt x="855" y="-3" on="0"/>
        <pt x="779" y="-1" on="0"/>
        <pt x="707" y="0" on="0"/>
        <pt x="682" y="0" on="1"/>
        <pt x="657" y="0" on="0"/>
        <pt x="584" y="-2" on="0"/>
        <pt x="508" y="-4" on="0"/>
        <pt x="437" y="-6" on="0"/>
        <pt x="413" y="-6" on="1"/>
        <pt x="327" y="-6" on="0"/>
        <pt x="191" y="47" on="0"/>
        <pt x="96" y="140" on="0"/>
        <pt x="45" y="266" on="0"/>
        <pt x="45" y="338" on="1"/>
        <pt x="45" y="410" on="0"/>
        <pt x="96" y="541" on="0"/>
        <pt x="191" y="638" on="0"/>
        <pt x="327" y="693" on="0"/>
        <pt x="413" y="690" on="1"/>
        <pt x="437" y="689" on="0"/>
        <pt x="505" y="687" on="0"/>
        <pt x="577" y="685" on="0"/>
        <pt x="647" y="684" on="0"/>
        <pt x="672" y="684" on="1"/>
        <pt x="697" y="684" on="0"/>
        <pt x="766" y="685" on="0"/>
        <pt x="838" y="687" on="0"/>
        <pt x="906" y="689" on="0"/>
        <pt x="930" y="690" on="1"/>
        <pt x="936" y="648" on="0"/>
        <pt x="951" y="580" on="0"/>
        <pt x="963" y="539" on="1"/>
        <pt x="965" y="534" on="0"/>
        <pt x="954" y="527" on="0"/>
        <pt x="946" y="527" on="1"/>
        <pt x="938" y="527" on="0"/>
        <pt x="936" y="534" on="1"/>
        <pt x="925" y="569" on="0"/>
        <pt x="891" y="614" on="0"/>
        <pt x="849" y="641" on="0"/>
        <pt x="801" y="652" on="0"/>
        <pt x="777" y="652" on="1"/>
        <pt x="677" y="652" on="1"/>
        <pt x="667" y="652" on="0"/>
        <pt x="646" y="647" on="0"/>
        <pt x="629" y="634" on="0"/>
        <pt x="618" y="610" on="0"/>
        <pt x="618" y="592" on="1"/>
        <pt x="618" y="369" on="1"/>
        <pt x="745" y="369" on="1"/>
        <pt x="764" y="369" on="0"/>
        <pt x="795" y="375" on="0"/>
        <pt x="817" y="396" on="0"/>
        <pt x="833" y="438" on="0"/>
        <pt x="837" y="474" on="1"/>
        <pt x="839" y="482" on="0"/>
        <pt x="851" y="482" on="1"/>
        <pt x="865" y="482" on="0"/>
        <pt x="865" y="474" on="1"/>
        <pt x="865" y="455" on="0"/>
        <pt x="863" y="425" on="0"/>
        <pt x="861" y="397" on="0"/>
        <pt x="859" y="369" on="0"/>
        <pt x="859" y="351" on="1"/>
        <pt x="859" y="316" on="0"/>
        <pt x="865" y="264" on="0"/>
        <pt x="865" y="227" on="1"/>
        <pt x="865" y="219" on="0"/>
        <pt x="851" y="219" on="1"/>
        <pt x="839" y="219" on="0"/>
        <pt x="837" y="227" on="1"/>
        <pt x="833" y="263" on="0"/>
        <pt x="817" y="307" on="0"/>
        <pt x="795" y="330" on="0"/>
        <pt x="764" y="337" on="0"/>
        <pt x="745" y="337" on="1"/>
        <pt x="618" y="337" on="1"/>
        <pt x="618" y="91" on="1"/>
        <pt x="618" y="73" on="0"/>
        <pt x="629" y="50" on="0"/>
        <pt x="646" y="37" on="0"/>
        <pt x="667" y="32" on="0"/>
        <pt x="677" y="32" on="1"/>
        <pt x="785" y="32" on="1"/>
        <pt x="815" y="32" on="0"/>
        <pt x="876" y="52" on="0"/>
        <pt x="931" y="88" on="0"/>
        <pt x="976" y="138" on="0"/>
        <pt x="990" y="168" on="1"/>
        <pt x="991" y="172" on="0"/>
        <pt x="999" y="172" on="1"/>
        <pt x="1007" y="172" on="0"/>
        <pt x="1018" y="163" on="0"/>
      </contour>
      <contour>
        <pt x="517" y="577" on="1"/>
        <pt x="517" y="596" on="0"/>
        <pt x="512" y="627" on="0"/>
        <pt x="491" y="647" on="0"/>
        <pt x="450" y="658" on="0"/>
        <pt x="413" y="658" on="1"/>
        <pt x="351" y="658" on="0"/>
        <pt x="255" y="607" on="0"/>
        <pt x="189" y="520" on="0"/>
        <pt x="155" y="404" on="0"/>
        <pt x="155" y="338" on="1"/>
        <pt x="155" y="272" on="0"/>
        <pt x="189" y="157" on="0"/>
        <pt x="255" y="73" on="0"/>
        <pt x="351" y="25" on="0"/>
        <pt x="413" y="25" on="1"/>
        <pt x="450" y="25" on="0"/>
        <pt x="491" y="36" on="0"/>
        <pt x="512" y="56" on="0"/>
        <pt x="517" y="86" on="0"/>
        <pt x="517" y="106" on="1"/>
      </contour>
    </TTGlyph>
    <TTGlyph name="OE.sc" xMin="35" yMin="-9" xMax="728" yMax="458">
      <component glyphName="oe.sc" x="0" y="0" flags="0x204"/>
    </TTGlyph>
    <TTGlyph name="Oacute" xMin="45" yMin="-22" xMax="782" yMax="939">
      <component glyphName="O" x="0" y="0" flags="0x204"/>
      <component glyphName="acute.cap" x="296" y="15" flags="0x4"/>
    </TTGlyph>
    <TTGlyph name="Oacute.sc" xMin="35" yMin="-21" xMax="557" yMax="696">
      <component glyphName="o.sc" x="0" y="0" flags="0x204"/>
      <component glyphName="acute" x="188" y="20" flags="0x4"/>
    </TTGlyph>
    <TTGlyph name="Obreve" xMin="45" yMin="-22" xMax="782" yMax="922">
      <component glyphName="O" x="0" y="0" flags="0x204"/>
      <component glyphName="breve.cap" x="243" y="15" flags="0x4"/>
    </TTGlyph>
    <TTGlyph name="Obreve.sc" xMin="35" yMin="-21" xMax="557" yMax="686">
      <component glyphName="o.sc" x="0" y="0" flags="0x204"/>
      <component glyphName="breve" x="125" y="20" flags="0x4"/>
    </TTGlyph>
    <TTGlyph name="Ocircumflex" xMin="45" yMin="-22" xMax="782" yMax="925">
      <component glyphName="O" x="0" y="0" flags="0x204"/>
      <component glyphName="circumflex.cap" x="243" y="15" flags="0x4"/>
    </TTGlyph>
    <TTGlyph name="Ocircumflex.sc" xMin="35" yMin="-21" xMax="557" yMax="700">
      <component glyphName="o.sc" x="0" y="0" flags="0x204"/>
      <component glyphName="circumflex" x="125" y="20" flags="0x4"/>
    </TTGlyph>
    <TTGlyph name="Odieresis" xMin="45" yMin="-22" xMax="782" yMax="883">
      <component glyphName="O" x="0" y="0" flags="0x204"/>
      <component glyphName="dieresis.cap" x="244" y="15" flags="0x4"/>
    </TTGlyph>
    <TTGlyph name="Odieresis.sc" xMin="35" yMin="-21" xMax="557" yMax="649">
      <component glyphName="o.sc" x="0" y="0" flags="0x204"/>
      <component glyphName="dieresis" x="125" y="20" flags="0x4"/>
    </TTGlyph>
    <TTGlyph name="Ograve" xMin="45" yMin="-22" xMax="782" yMax="939">
      <component glyphName="O" x="0" y="0" flags="0x204"/>
      <component glyphName="grave.cap" x="179" y="15" flags="0x4"/>
    </TTGlyph>
    <TTGlyph name="Ograve.sc" xMin="35" yMin="-21" xMax="557" yMax="696">
      <component glyphName="o.sc" x="0" y="0" flags="0x204"/>
      <component glyphName="grave" x="53" y="20" flags="0x4"/>
    </TTGlyph>
    <TTGlyph name="Ohungarumlaut" xMin="45" yMin="-22" xMax="782" yMax="940">
      <component glyphName="O" x="0" y="0" flags="0x204"/>
      <component glyphName="hungarumlaut.cap" x="259" y="15" flags="0x4"/>
    </TTGlyph>
    <TTGlyph name="Ohungarumlaut.sc" xMin="35" yMin="-21" xMax="568" yMax="692">
      <component glyphName="o.sc" x="0" y="0" flags="0x204"/>
      <component glyphName="hungarumlaut" x="131" y="20" flags="0x4"/>
    </TTGlyph>
    <TTGlyph name="Omacron" xMin="45" yMin="-22" xMax="782" yMax="859">
      <component glyphName="O" x="0" y="0" flags="0x204"/>
      <component glyphName="macron.cap" x="242" y="15" flags="0x4"/>
    </TTGlyph>
    <TTGlyph name="Omacron.sc" xMin="35" yMin="-21" xMax="557" yMax="617">
      <component glyphName="o.sc" x="0" y="0" flags="0x204"/>
      <component glyphName="macron" x="117" y="20" flags="0x4"/>
    </TTGlyph>
    <TTGlyph name="Omegagreek" xMin="21" yMin="-7" xMax="788" yMax="705">
      <contour>
        <pt x="788" y="130" on="1"/>
        <pt x="788" y="128" on="0"/>
        <pt x="787" y="127" on="1"/>
        <pt x="774" y="98" on="0"/>
        <pt x="751" y="29" on="0"/>
        <pt x="741" y="-6" on="1"/>
        <pt x="733" y="-5" on="0"/>
        <pt x="714" y="-2" on="0"/>
        <pt x="683" y="-1" on="0"/>
        <pt x="637" y="0" on="0"/>
        <pt x="603" y="0" on="1"/>
        <pt x="481" y="0" on="0"/>
        <pt x="450" y="-6" on="1"/>
        <pt x="447" y="-7" on="0"/>
        <pt x="441" y="1" on="0"/>
        <pt x="437" y="13" on="0"/>
        <pt x="434" y="27" on="0"/>
        <pt x="434" y="33" on="1"/>
        <pt x="434" y="44" on="0"/>
        <pt x="438" y="45" on="1"/>
        <pt x="496" y="75" on="0"/>
        <pt x="571" y="156" on="0"/>
        <pt x="615" y="248" on="0"/>
        <pt x="632" y="345" on="0"/>
        <pt x="632" y="391" on="1"/>
        <pt x="632" y="451" on="0"/>
        <pt x="602" y="555" on="0"/>
        <pt x="544" y="630" on="0"/>
        <pt x="458" y="673" on="0"/>
        <pt x="402" y="673" on="1"/>
        <pt x="346" y="673" on="0"/>
        <pt x="260" y="630" on="0"/>
        <pt x="202" y="555" on="0"/>
        <pt x="172" y="451" on="0"/>
        <pt x="172" y="391" on="1"/>
        <pt x="172" y="345" on="0"/>
        <pt x="189" y="248" on="0"/>
        <pt x="233" y="156" on="0"/>
        <pt x="309" y="75" on="0"/>
        <pt x="367" y="45" on="1"/>
        <pt x="370" y="43" on="0"/>
        <pt x="370" y="33" on="1"/>
        <pt x="370" y="27" on="0"/>
        <pt x="367" y="13" on="0"/>
        <pt x="363" y="1" on="0"/>
        <pt x="357" y="-7" on="0"/>
        <pt x="354" y="-6" on="1"/>
        <pt x="322" y="0" on="0"/>
        <pt x="200" y="0" on="1"/>
        <pt x="132" y="0" on="0"/>
        <pt x="65" y="-3" on="0"/>
        <pt x="49" y="-6" on="1"/>
        <pt x="47" y="12" on="0"/>
        <pt x="41" y="50" on="0"/>
        <pt x="34" y="84" on="0"/>
        <pt x="27" y="112" on="0"/>
        <pt x="24" y="118" on="1"/>
        <pt x="21" y="124" on="0"/>
        <pt x="21" y="129" on="1"/>
        <pt x="21" y="134" on="0"/>
        <pt x="34" y="142" on="0"/>
        <pt x="41" y="142" on="1"/>
        <pt x="47" y="142" on="0"/>
        <pt x="50" y="138" on="1"/>
        <pt x="63" y="107" on="0"/>
        <pt x="100" y="81" on="0"/>
        <pt x="128" y="80" on="1"/>
        <pt x="265" y="76" on="1"/>
        <pt x="221" y="99" on="0"/>
        <pt x="148" y="161" on="0"/>
        <pt x="95" y="236" on="0"/>
        <pt x="65" y="323" on="0"/>
        <pt x="65" y="371" on="1"/>
        <pt x="65" y="433" on="0"/>
        <pt x="110" y="553" on="0"/>
        <pt x="197" y="647" on="0"/>
        <pt x="322" y="705" on="0"/>
        <pt x="402" y="705" on="1"/>
        <pt x="482" y="705" on="0"/>
        <pt x="607" y="647" on="0"/>
        <pt x="694" y="553" on="0"/>
        <pt x="740" y="433" on="0"/>
        <pt x="740" y="371" on="1"/>
        <pt x="740" y="323" on="0"/>
        <pt x="710" y="236" on="0"/>
        <pt x="657" y="161" on="0"/>
        <pt x="583" y="99" on="0"/>
        <pt x="539" y="76" on="1"/>
        <pt x="672" y="80" on="1"/>
        <pt x="703" y="81" on="0"/>
        <pt x="741" y="107" on="0"/>
        <pt x="761" y="138" on="1"/>
        <pt x="765" y="142" on="0"/>
        <pt x="770" y="142" on="1"/>
        <pt x="776" y="142" on="0"/>
        <pt x="788" y="135" on="0"/>
      </contour>
    </TTGlyph>
    <TTGlyph name="Oslash" xMin="45" yMin="-48" xMax="782" yMax="732">
      <contour>
        <pt x="782" y="338" on="1"/>
        <pt x="782" y="263" on="0"/>
        <pt x="731" y="132" on="0"/>
        <pt x="636" y="35" on="0"/>
        <pt x="499" y="-21" on="0"/>
        <pt x="413" y="-21" on="1"/>
        <pt x="353" y="-21" on="0"/>
        <pt x="252" y="6" on="0"/>
        <pt x="210" y="31" on="1"/>
        <pt x="158" y="-42" on="1"/>
        <pt x="152" y="-48" on="0"/>
        <pt x="140" y="-39" on="1"/>
        <pt x="135" y="-35" on="0"/>
        <pt x="129" y="-25" on="0"/>
        <pt x="131" y="-23" on="1"/>
        <pt x="183" y="49" on="1"/>
        <pt x="116" y="98" on="0"/>
        <pt x="45" y="247" on="0"/>
        <pt x="45" y="338" on="1"/>
        <pt x="45" y="413" on="0"/>
        <pt x="96" y="547" on="0"/>
        <pt x="191" y="647" on="0"/>
        <pt x="327" y="705" on="0"/>
        <pt x="413" y="705" on="1"/>
        <pt x="473" y="705" on="0"/>
        <pt x="574" y="678" on="0"/>
        <pt x="616" y="652" on="1"/>
        <pt x="669" y="726" on="1"/>
        <pt x="675" y="732" on="0"/>
        <pt x="687" y="723" on="1"/>
        <pt x="692" y="719" on="0"/>
        <pt x="697" y="710" on="0"/>
        <pt x="695" y="707" on="1"/>
        <pt x="642" y="634" on="1"/>
        <pt x="710" y="583" on="0"/>
        <pt x="782" y="429" on="0"/>
      </contour>
      <contour>
        <pt x="581" y="603" on="1"/>
        <pt x="549" y="636" on="0"/>
        <pt x="465" y="673" on="0"/>
        <pt x="413" y="673" on="1"/>
        <pt x="351" y="673" on="0"/>
        <pt x="255" y="620" on="0"/>
        <pt x="189" y="529" on="0"/>
        <pt x="155" y="407" on="0"/>
        <pt x="155" y="338" on="1"/>
        <pt x="155" y="268" on="0"/>
        <pt x="190" y="149" on="0"/>
        <pt x="223" y="105" on="1"/>
      </contour>
      <contour>
        <pt x="672" y="338" on="1"/>
        <pt x="672" y="409" on="0"/>
        <pt x="636" y="532" on="0"/>
        <pt x="602" y="578" on="1"/>
        <pt x="245" y="80" on="1"/>
        <pt x="277" y="47" on="0"/>
        <pt x="361" y="11" on="0"/>
        <pt x="413" y="11" on="1"/>
        <pt x="474" y="11" on="0"/>
        <pt x="571" y="61" on="0"/>
        <pt x="637" y="149" on="0"/>
        <pt x="672" y="269" on="0"/>
      </contour>
    </TTGlyph>
    <TTGlyph name="Oslash.sc" xMin="35" yMin="-44" xMax="557" yMax="489">
      <component glyphName="oslash.sc" x="0" y="0" flags="0x204"/>
    </TTGlyph>
    <TTGlyph name="Oslashacute" xMin="45" yMin="-48" xMax="782" yMax="939">
      <component glyphName="Oslash" x="0" y="0" flags="0x204"/>
      <component glyphName="acute.cap" x="295" y="15" flags="0x4"/>
    </TTGlyph>
    <TTGlyph name="Oslashacute.sc" xMin="35" yMin="-44" xMax="557" yMax="696">
      <component glyphName="acute" x="185" y="20" flags="0x4"/>
      <component glyphName="oslash.sc" x="0" y="0" flags="0x4"/>
    </TTGlyph>
    <TTGlyph name="Otilde" xMin="45" yMin="-22" xMax="782" yMax="934">
      <component glyphName="O" x="0" y="0" flags="0x204"/>
      <component glyphName="tilde.cap" x="259" y="15" flags="0x4"/>
    </TTGlyph>
    <TTGlyph name="Otilde.sc" xMin="35" yMin="-21" xMax="557" yMax="678">
      <component glyphName="o.sc" x="0" y="0" flags="0x204"/>
      <component glyphName="tilde" x="144" y="20" flags="0x4"/>
    </TTGlyph>
    <TTGlyph name="P" xMin="28" yMin="-6" xMax="596" yMax="690">
      <contour>
        <pt x="596" y="486" on="1"/>
        <pt x="596" y="442" on="0"/>
        <pt x="560" y="366" on="0"/>
        <pt x="496" y="310" on="0"/>
        <pt x="410" y="278" on="0"/>
        <pt x="360" y="278" on="1"/>
        <pt x="322" y="278" on="0"/>
        <pt x="268" y="281" on="0"/>
        <pt x="242" y="283" on="1"/>
        <pt x="242" y="106" on="1"/>
        <pt x="242" y="87" on="0"/>
        <pt x="247" y="59" on="0"/>
        <pt x="267" y="39" on="0"/>
        <pt x="309" y="26" on="0"/>
        <pt x="345" y="22" on="1"/>
        <pt x="353" y="20" on="0"/>
        <pt x="353" y="8" on="1"/>
        <pt x="353" y="-6" on="0"/>
        <pt x="345" y="-6" on="1"/>
        <pt x="320" y="-6" on="0"/>
        <pt x="283" y="-4" on="0"/>
        <pt x="250" y="-2" on="0"/>
        <pt x="214" y="0" on="0"/>
        <pt x="191" y="0" on="1"/>
        <pt x="168" y="0" on="0"/>
        <pt x="132" y="-2" on="0"/>
        <pt x="98" y="-4" on="0"/>
        <pt x="61" y="-6" on="0"/>
        <pt x="36" y="-6" on="1"/>
        <pt x="28" y="-6" on="0"/>
        <pt x="28" y="8" on="1"/>
        <pt x="28" y="20" on="0"/>
        <pt x="36" y="22" on="1"/>
        <pt x="72" y="26" on="0"/>
        <pt x="114" y="39" on="0"/>
        <pt x="135" y="59" on="0"/>
        <pt x="140" y="87" on="0"/>
        <pt x="140" y="106" on="1"/>
        <pt x="140" y="577" on="1"/>
        <pt x="140" y="596" on="0"/>
        <pt x="135" y="625" on="0"/>
        <pt x="114" y="644" on="0"/>
        <pt x="72" y="657" on="0"/>
        <pt x="36" y="662" on="1"/>
        <pt x="28" y="662" on="0"/>
        <pt x="28" y="676" on="1"/>
        <pt x="28" y="681" on="0"/>
        <pt x="33" y="690" on="0"/>
        <pt x="36" y="690" on="1"/>
        <pt x="61" y="690" on="0"/>
        <pt x="98" y="688" on="0"/>
        <pt x="132" y="686" on="0"/>
        <pt x="168" y="684" on="0"/>
        <pt x="191" y="684" on="1"/>
        <pt x="214" y="684" on="0"/>
        <pt x="250" y="686" on="0"/>
        <pt x="283" y="688" on="0"/>
        <pt x="320" y="690" on="0"/>
        <pt x="345" y="690" on="1"/>
        <pt x="411" y="690" on="0"/>
        <pt x="506" y="661" on="0"/>
        <pt x="567" y="607" on="0"/>
        <pt x="596" y="532" on="0"/>
      </contour>
      <contour>
        <pt x="485" y="486" on="1"/>
        <pt x="485" y="531" on="0"/>
        <pt x="461" y="596" on="0"/>
        <pt x="420" y="637" on="0"/>
        <pt x="368" y="656" on="0"/>
        <pt x="341" y="656" on="1"/>
        <pt x="305" y="656" on="0"/>
        <pt x="265" y="646" on="0"/>
        <pt x="246" y="626" on="0"/>
        <pt x="242" y="596" on="0"/>
        <pt x="242" y="577" on="1"/>
        <pt x="242" y="347" on="1"/>
        <pt x="242" y="324" on="0"/>
        <pt x="273" y="311" on="0"/>
        <pt x="314" y="311" on="1"/>
        <pt x="360" y="311" on="0"/>
        <pt x="425" y="339" on="0"/>
        <pt x="466" y="387" on="0"/>
        <pt x="485" y="450" on="0"/>
      </contour>
    </TTGlyph>
    <TTGlyph name="P.sc" xMin="41" yMin="-6" xMax="461" yMax="456">
      <component glyphName="p.sc" x="0" y="0" flags="0x204"/>
    </TTGlyph>
    <TTGlyph name="Pi" xMin="28" yMin="-6" xMax="789" yMax="690">
      <contour>
        <pt x="789" y="8" on="1"/>
        <pt x="789" y="-6" on="0"/>
        <pt x="781" y="-6" on="1"/>
        <pt x="756" y="-6" on="0"/>
        <pt x="719" y="-4" on="0"/>
        <pt x="685" y="-2" on="0"/>
        <pt x="650" y="0" on="0"/>
        <pt x="627" y="0" on="1"/>
        <pt x="604" y="0" on="0"/>
        <pt x="571" y="-2" on="0"/>
        <pt x="539" y="-4" on="0"/>
        <pt x="505" y="-6" on="0"/>
        <pt x="480" y="-6" on="1"/>
        <pt x="472" y="-6" on="0"/>
        <pt x="472" y="8" on="1"/>
        <pt x="472" y="20" on="0"/>
        <pt x="480" y="22" on="1"/>
        <pt x="516" y="26" on="0"/>
        <pt x="555" y="39" on="0"/>
        <pt x="573" y="59" on="0"/>
        <pt x="576" y="87" on="0"/>
        <pt x="576" y="106" on="1"/>
        <pt x="576" y="584" on="1"/>
        <pt x="576" y="602" on="0"/>
        <pt x="565" y="626" on="0"/>
        <pt x="548" y="639" on="0"/>
        <pt x="527" y="644" on="0"/>
        <pt x="517" y="644" on="1"/>
        <pt x="300" y="644" on="1"/>
        <pt x="290" y="644" on="0"/>
        <pt x="269" y="639" on="0"/>
        <pt x="252" y="626" on="0"/>
        <pt x="241" y="602" on="0"/>
        <pt x="241" y="584" on="1"/>
        <pt x="241" y="106" on="1"/>
        <pt x="241" y="87" on="0"/>
        <pt x="244" y="59" on="0"/>
        <pt x="262" y="39" on="0"/>
        <pt x="301" y="26" on="0"/>
        <pt x="337" y="22" on="1"/>
        <pt x="345" y="20" on="0"/>
        <pt x="345" y="8" on="1"/>
        <pt x="345" y="-6" on="0"/>
        <pt x="337" y="-6" on="1"/>
        <pt x="312" y="-6" on="0"/>
        <pt x="278" y="-4" on="0"/>
        <pt x="247" y="-2" on="0"/>
        <pt x="214" y="0" on="0"/>
        <pt x="191" y="0" on="1"/>
        <pt x="168" y="0" on="0"/>
        <pt x="132" y="-2" on="0"/>
        <pt x="98" y="-4" on="0"/>
        <pt x="61" y="-6" on="0"/>
        <pt x="36" y="-6" on="1"/>
        <pt x="28" y="-6" on="0"/>
        <pt x="28" y="8" on="1"/>
        <pt x="28" y="20" on="0"/>
        <pt x="36" y="22" on="1"/>
        <pt x="72" y="26" on="0"/>
        <pt x="114" y="39" on="0"/>
        <pt x="135" y="59" on="0"/>
        <pt x="140" y="87" on="0"/>
        <pt x="140" y="106" on="1"/>
        <pt x="140" y="577" on="1"/>
        <pt x="140" y="596" on="0"/>
        <pt x="135" y="625" on="0"/>
        <pt x="114" y="644" on="0"/>
        <pt x="72" y="657" on="0"/>
        <pt x="36" y="662" on="1"/>
        <pt x="28" y="662" on="0"/>
        <pt x="28" y="676" on="1"/>
        <pt x="28" y="681" on="0"/>
        <pt x="33" y="690" on="0"/>
        <pt x="36" y="690" on="1"/>
        <pt x="47" y="690" on="0"/>
        <pt x="98" y="688" on="0"/>
        <pt x="167" y="687" on="0"/>
        <pt x="245" y="686" on="0"/>
        <pt x="321" y="685" on="0"/>
        <pt x="387" y="684" on="0"/>
        <pt x="409" y="684" on="1"/>
        <pt x="430" y="684" on="0"/>
        <pt x="496" y="685" on="0"/>
        <pt x="572" y="686" on="0"/>
        <pt x="650" y="687" on="0"/>
        <pt x="719" y="688" on="0"/>
        <pt x="770" y="689" on="0"/>
        <pt x="781" y="690" on="1"/>
        <pt x="784" y="690" on="0"/>
        <pt x="789" y="681" on="0"/>
        <pt x="789" y="676" on="1"/>
        <pt x="789" y="662" on="0"/>
        <pt x="781" y="662" on="1"/>
        <pt x="745" y="657" on="0"/>
        <pt x="703" y="644" on="0"/>
        <pt x="682" y="625" on="0"/>
        <pt x="677" y="596" on="0"/>
        <pt x="677" y="577" on="1"/>
        <pt x="677" y="106" on="1"/>
        <pt x="677" y="87" on="0"/>
        <pt x="682" y="59" on="0"/>
        <pt x="703" y="39" on="0"/>
        <pt x="745" y="26" on="0"/>
        <pt x="781" y="22" on="1"/>
        <pt x="789" y="20" on="0"/>
      </contour>
    </TTGlyph>
    <TTGlyph name="Q" xMin="45" yMin="-210" xMax="795" yMax="705">
      <contour>
        <pt x="782" y="338" on="1"/>
        <pt x="782" y="270" on="0"/>
        <pt x="741" y="150" on="0"/>
        <pt x="663" y="56" on="0"/>
        <pt x="551" y="-7" on="0"/>
        <pt x="480" y="-17" on="1"/>
        <pt x="504" y="-61" on="0"/>
        <pt x="562" y="-120" on="0"/>
        <pt x="626" y="-155" on="0"/>
        <pt x="695" y="-170" on="0"/>
        <pt x="731" y="-170" on="1"/>
        <pt x="745" y="-170" on="0"/>
        <pt x="773" y="-168" on="0"/>
        <pt x="787" y="-166" on="1"/>
        <pt x="791" y="-165" on="0"/>
        <pt x="795" y="-174" on="0"/>
        <pt x="795" y="-180" on="1"/>
        <pt x="795" y="-191" on="0"/>
        <pt x="787" y="-194" on="1"/>
        <pt x="764" y="-200" on="0"/>
        <pt x="694" y="-210" on="0"/>
        <pt x="656" y="-210" on="1"/>
        <pt x="607" y="-210" on="0"/>
        <pt x="512" y="-184" on="0"/>
        <pt x="430" y="-134" on="0"/>
        <pt x="366" y="-62" on="0"/>
        <pt x="348" y="-17" on="1"/>
        <pt x="277" y="-7" on="0"/>
        <pt x="164" y="56" on="0"/>
        <pt x="86" y="150" on="0"/>
        <pt x="45" y="270" on="0"/>
        <pt x="45" y="338" on="1"/>
        <pt x="45" y="413" on="0"/>
        <pt x="96" y="546" on="0"/>
        <pt x="191" y="647" on="0"/>
        <pt x="328" y="705" on="0"/>
        <pt x="414" y="705" on="1"/>
        <pt x="500" y="705" on="0"/>
        <pt x="636" y="647" on="0"/>
        <pt x="731" y="546" on="0"/>
        <pt x="782" y="413" on="0"/>
      </contour>
      <contour>
        <pt x="672" y="338" on="1"/>
        <pt x="672" y="407" on="0"/>
        <pt x="637" y="529" on="0"/>
        <pt x="571" y="620" on="0"/>
        <pt x="475" y="673" on="0"/>
        <pt x="414" y="673" on="1"/>
        <pt x="352" y="673" on="0"/>
        <pt x="256" y="620" on="0"/>
        <pt x="190" y="529" on="0"/>
        <pt x="156" y="407" on="0"/>
        <pt x="156" y="338" on="1"/>
        <pt x="156" y="269" on="0"/>
        <pt x="190" y="148" on="0"/>
        <pt x="256" y="59" on="0"/>
        <pt x="352" y="8" on="0"/>
        <pt x="414" y="8" on="1"/>
        <pt x="475" y="8" on="0"/>
        <pt x="571" y="59" on="0"/>
        <pt x="637" y="148" on="0"/>
        <pt x="672" y="269" on="0"/>
      </contour>
    </TTGlyph>
    <TTGlyph name="Q.alt" xMin="45" yMin="-279" xMax="1298" yMax="705">
      <contour>
        <pt x="1292" y="-219" on="1"/>
        <pt x="1275" y="-234" on="0"/>
        <pt x="1222" y="-257" on="0"/>
        <pt x="1162" y="-272" on="0"/>
        <pt x="1104" y="-279" on="0"/>
        <pt x="1082" y="-279" on="1"/>
        <pt x="978" y="-279" on="0"/>
        <pt x="778" y="-237" on="0"/>
        <pt x="588" y="-164" on="0"/>
        <pt x="408" y="-67" on="0"/>
        <pt x="326" y="-13" on="1"/>
        <pt x="260" y="0" on="0"/>
        <pt x="156" y="64" on="0"/>
        <pt x="83" y="157" on="0"/>
        <pt x="45" y="273" on="0"/>
        <pt x="45" y="338" on="1"/>
        <pt x="45" y="413" on="0"/>
        <pt x="96" y="546" on="0"/>
        <pt x="191" y="647" on="0"/>
        <pt x="328" y="705" on="0"/>
        <pt x="414" y="705" on="1"/>
        <pt x="500" y="705" on="0"/>
        <pt x="636" y="647" on="0"/>
        <pt x="731" y="546" on="0"/>
        <pt x="782" y="413" on="0"/>
        <pt x="782" y="338" on="1"/>
        <pt x="782" y="273" on="0"/>
        <pt x="745" y="158" on="0"/>
        <pt x="674" y="66" on="0"/>
        <pt x="572" y="2" on="0"/>
        <pt x="507" y="-12" on="1"/>
        <pt x="562" y="-49" on="0"/>
        <pt x="711" y="-126" on="0"/>
        <pt x="874" y="-188" on="0"/>
        <pt x="1041" y="-228" on="0"/>
        <pt x="1113" y="-228" on="1"/>
        <pt x="1179" y="-228" on="0"/>
        <pt x="1255" y="-212" on="0"/>
        <pt x="1278" y="-195" on="1"/>
        <pt x="1280" y="-193" on="0"/>
        <pt x="1289" y="-198" on="0"/>
        <pt x="1292" y="-203" on="1"/>
        <pt x="1298" y="-213" on="0"/>
      </contour>
      <contour>
        <pt x="672" y="338" on="1"/>
        <pt x="672" y="407" on="0"/>
        <pt x="637" y="529" on="0"/>
        <pt x="571" y="620" on="0"/>
        <pt x="475" y="673" on="0"/>
        <pt x="414" y="673" on="1"/>
        <pt x="352" y="673" on="0"/>
        <pt x="256" y="620" on="0"/>
        <pt x="190" y="529" on="0"/>
        <pt x="156" y="407" on="0"/>
        <pt x="156" y="338" on="1"/>
        <pt x="156" y="269" on="0"/>
        <pt x="190" y="148" on="0"/>
        <pt x="256" y="60" on="0"/>
        <pt x="352" y="9" on="0"/>
        <pt x="414" y="9" on="1"/>
        <pt x="475" y="9" on="0"/>
        <pt x="571" y="60" on="0"/>
        <pt x="637" y="148" on="0"/>
        <pt x="672" y="269" on="0"/>
      </contour>
    </TTGlyph>
    <TTGlyph name="Q.sc" xMin="35" yMin="-143" xMax="581" yMax="471">
      <component glyphName="q.sc" x="0" y="0" flags="0x204"/>
    </TTGlyph>
    <TTGlyph name="R" xMin="29" yMin="-6" xMax="725" yMax="690">
      <contour>
        <pt x="725" y="8" on="1"/>
        <pt x="725" y="-6" on="0"/>
        <pt x="717" y="-6" on="1"/>
        <pt x="691" y="-6" on="0"/>
        <pt x="633" y="0" on="0"/>
        <pt x="616" y="0" on="1"/>
        <pt x="594" y="0" on="0"/>
        <pt x="547" y="-6" on="0"/>
        <pt x="525" y="-6" on="1"/>
        <pt x="373" y="241" on="1"/>
        <pt x="356" y="268" on="0"/>
        <pt x="332" y="300" on="0"/>
        <pt x="306" y="316" on="0"/>
        <pt x="270" y="321" on="0"/>
        <pt x="242" y="321" on="1"/>
        <pt x="242" y="106" on="1"/>
        <pt x="242" y="87" on="0"/>
        <pt x="247" y="59" on="0"/>
        <pt x="268" y="39" on="0"/>
        <pt x="310" y="26" on="0"/>
        <pt x="346" y="22" on="1"/>
        <pt x="354" y="20" on="0"/>
        <pt x="354" y="8" on="1"/>
        <pt x="354" y="-6" on="0"/>
        <pt x="346" y="-6" on="1"/>
        <pt x="321" y="-6" on="0"/>
        <pt x="284" y="-4" on="0"/>
        <pt x="250" y="-2" on="0"/>
        <pt x="214" y="0" on="0"/>
        <pt x="191" y="0" on="1"/>
        <pt x="168" y="0" on="0"/>
        <pt x="132" y="-2" on="0"/>
        <pt x="99" y="-4" on="0"/>
        <pt x="62" y="-6" on="0"/>
        <pt x="37" y="-6" on="1"/>
        <pt x="29" y="-6" on="0"/>
        <pt x="29" y="8" on="1"/>
        <pt x="29" y="20" on="0"/>
        <pt x="37" y="22" on="1"/>
        <pt x="73" y="26" on="0"/>
        <pt x="115" y="39" on="0"/>
        <pt x="135" y="59" on="0"/>
        <pt x="140" y="87" on="0"/>
        <pt x="140" y="106" on="1"/>
        <pt x="140" y="577" on="1"/>
        <pt x="140" y="596" on="0"/>
        <pt x="135" y="625" on="0"/>
        <pt x="115" y="644" on="0"/>
        <pt x="73" y="657" on="0"/>
        <pt x="37" y="662" on="1"/>
        <pt x="29" y="662" on="0"/>
        <pt x="29" y="676" on="1"/>
        <pt x="29" y="681" on="0"/>
        <pt x="33" y="690" on="0"/>
        <pt x="37" y="690" on="1"/>
        <pt x="62" y="690" on="0"/>
        <pt x="99" y="688" on="0"/>
        <pt x="132" y="686" on="0"/>
        <pt x="168" y="684" on="0"/>
        <pt x="191" y="684" on="1"/>
        <pt x="214" y="684" on="0"/>
        <pt x="250" y="686" on="0"/>
        <pt x="284" y="688" on="0"/>
        <pt x="321" y="690" on="0"/>
        <pt x="346" y="690" on="1"/>
        <pt x="462" y="690" on="0"/>
        <pt x="580" y="593" on="0"/>
        <pt x="580" y="510" on="1"/>
        <pt x="580" y="481" on="0"/>
        <pt x="557" y="430" on="0"/>
        <pt x="515" y="385" on="0"/>
        <pt x="457" y="350" on="0"/>
        <pt x="423" y="338" on="1"/>
        <pt x="585" y="92" on="1"/>
        <pt x="591" y="81" on="0"/>
        <pt x="609" y="60" on="0"/>
        <pt x="639" y="41" on="0"/>
        <pt x="684" y="26" on="0"/>
        <pt x="718" y="22" on="1"/>
        <pt x="725" y="20" on="0"/>
      </contour>
      <contour>
        <pt x="470" y="510" on="1"/>
        <pt x="470" y="541" on="0"/>
        <pt x="457" y="595" on="0"/>
        <pt x="427" y="634" on="0"/>
        <pt x="378" y="656" on="0"/>
        <pt x="342" y="656" on="1"/>
        <pt x="305" y="656" on="0"/>
        <pt x="265" y="646" on="0"/>
        <pt x="246" y="626" on="0"/>
        <pt x="242" y="596" on="0"/>
        <pt x="242" y="577" on="1"/>
        <pt x="242" y="354" on="1"/>
        <pt x="259" y="352" on="0"/>
        <pt x="293" y="350" on="0"/>
        <pt x="315" y="350" on="1"/>
        <pt x="401" y="350" on="0"/>
        <pt x="470" y="431" on="0"/>
      </contour>
    </TTGlyph>
    <TTGlyph name="R.sc" xMin="41" yMin="-6" xMax="542" yMax="456">
      <component glyphName="r.sc" x="0" y="0" flags="0x204"/>
    </TTGlyph>
    <TTGlyph name="R_p" xMin="58" yMin="-249" xMax="1077" yMax="624">
      <contour>
        <pt x="1077" y="190" on="1"/>
        <pt x="1077" y="146" on="0"/>
        <pt x="1046" y="70" on="0"/>
        <pt x="989" y="13" on="0"/>
        <pt x="909" y="-20" on="0"/>
        <pt x="859" y="-20" on="1"/>
        <pt x="827" y="-20" on="0"/>
        <pt x="783" y="-9" on="0"/>
        <pt x="764" y="1" on="1"/>
        <pt x="764" y="-143" on="1"/>
        <pt x="764" y="-166" on="0"/>
        <pt x="769" y="-194" on="0"/>
        <pt x="782" y="-211" on="0"/>
        <pt x="807" y="-220" on="0"/>
        <pt x="828" y="-222" on="1"/>
        <pt x="835" y="-224" on="0"/>
        <pt x="835" y="-235" on="1"/>
        <pt x="835" y="-249" on="0"/>
        <pt x="828" y="-249" on="1"/>
        <pt x="813" y="-249" on="0"/>
        <pt x="788" y="-247" on="0"/>
        <pt x="764" y="-245" on="0"/>
        <pt x="738" y="-243" on="0"/>
        <pt x="721" y="-243" on="1"/>
        <pt x="704" y="-243" on="0"/>
        <pt x="677" y="-245" on="0"/>
        <pt x="652" y="-247" on="0"/>
        <pt x="628" y="-249" on="0"/>
        <pt x="613" y="-249" on="1"/>
        <pt x="605" y="-249" on="0"/>
        <pt x="605" y="-235" on="1"/>
        <pt x="605" y="-224" on="0"/>
        <pt x="613" y="-222" on="1"/>
        <pt x="633" y="-220" on="0"/>
        <pt x="658" y="-211" on="0"/>
        <pt x="671" y="-194" on="0"/>
        <pt x="676" y="-166" on="0"/>
        <pt x="676" y="-143" on="1"/>
        <pt x="676" y="-5" on="1"/>
        <pt x="655" y="-4" on="0"/>
        <pt x="611" y="0" on="0"/>
        <pt x="598" y="0" on="1"/>
        <pt x="578" y="0" on="0"/>
        <pt x="533" y="-6" on="0"/>
        <pt x="513" y="-6" on="1"/>
        <pt x="377" y="216" on="1"/>
        <pt x="362" y="240" on="0"/>
        <pt x="340" y="270" on="0"/>
        <pt x="316" y="285" on="0"/>
        <pt x="284" y="290" on="0"/>
        <pt x="259" y="290" on="1"/>
        <pt x="259" y="103" on="1"/>
        <pt x="259" y="84" on="0"/>
        <pt x="264" y="57" on="0"/>
        <pt x="283" y="38" on="0"/>
        <pt x="321" y="25" on="0"/>
        <pt x="354" y="21" on="1"/>
        <pt x="361" y="21" on="0"/>
        <pt x="361" y="8" on="1"/>
        <pt x="361" y="-6" on="0"/>
        <pt x="354" y="-6" on="1"/>
        <pt x="331" y="-6" on="0"/>
        <pt x="297" y="-4" on="0"/>
        <pt x="265" y="-2" on="0"/>
        <pt x="231" y="0" on="0"/>
        <pt x="209" y="0" on="1"/>
        <pt x="187" y="0" on="0"/>
        <pt x="153" y="-2" on="0"/>
        <pt x="122" y="-4" on="0"/>
        <pt x="88" y="-6" on="0"/>
        <pt x="65" y="-6" on="1"/>
        <pt x="58" y="-6" on="0"/>
        <pt x="58" y="8" on="1"/>
        <pt x="58" y="21" on="0"/>
        <pt x="65" y="21" on="1"/>
        <pt x="98" y="25" on="0"/>
        <pt x="136" y="38" on="0"/>
        <pt x="155" y="57" on="0"/>
        <pt x="160" y="84" on="0"/>
        <pt x="160" y="103" on="1"/>
        <pt x="160" y="515" on="1"/>
        <pt x="160" y="534" on="0"/>
        <pt x="155" y="561" on="0"/>
        <pt x="136" y="580" on="0"/>
        <pt x="98" y="593" on="0"/>
        <pt x="65" y="597" on="1"/>
        <pt x="58" y="597" on="0"/>
        <pt x="58" y="610" on="1"/>
        <pt x="58" y="624" on="0"/>
        <pt x="65" y="624" on="1"/>
        <pt x="88" y="624" on="0"/>
        <pt x="123" y="622" on="0"/>
        <pt x="155" y="620" on="0"/>
        <pt x="189" y="618" on="0"/>
        <pt x="211" y="618" on="1"/>
        <pt x="232" y="618" on="0"/>
        <pt x="266" y="620" on="0"/>
        <pt x="297" y="621" on="0"/>
        <pt x="331" y="623" on="0"/>
        <pt x="354" y="623" on="1"/>
        <pt x="460" y="623" on="0"/>
        <pt x="570" y="536" on="0"/>
        <pt x="570" y="461" on="1"/>
        <pt x="570" y="435" on="0"/>
        <pt x="549" y="389" on="0"/>
        <pt x="511" y="349" on="0"/>
        <pt x="459" y="317" on="0"/>
        <pt x="428" y="306" on="1"/>
        <pt x="571" y="89" on="1"/>
        <pt x="578" y="78" on="0"/>
        <pt x="594" y="59" on="0"/>
        <pt x="617" y="42" on="0"/>
        <pt x="651" y="28" on="0"/>
        <pt x="676" y="24" on="1"/>
        <pt x="676" y="268" on="1"/>
        <pt x="676" y="287" on="0"/>
        <pt x="672" y="309" on="0"/>
        <pt x="661" y="322" on="0"/>
        <pt x="641" y="328" on="0"/>
        <pt x="624" y="330" on="1"/>
        <pt x="617" y="330" on="0"/>
        <pt x="617" y="342" on="1"/>
        <pt x="617" y="347" on="0"/>
        <pt x="621" y="354" on="0"/>
        <pt x="624" y="354" on="1"/>
        <pt x="657" y="362" on="0"/>
        <pt x="719" y="385" on="0"/>
        <pt x="742" y="402" on="1"/>
        <pt x="744" y="404" on="0"/>
        <pt x="750" y="409" on="0"/>
        <pt x="755" y="409" on="1"/>
        <pt x="768" y="409" on="0"/>
        <pt x="768" y="402" on="1"/>
        <pt x="764" y="343" on="1"/>
        <pt x="789" y="370" on="0"/>
        <pt x="856" y="406" on="0"/>
        <pt x="880" y="406" on="1"/>
        <pt x="927" y="406" on="0"/>
        <pt x="1001" y="373" on="0"/>
        <pt x="1051" y="315" on="0"/>
        <pt x="1077" y="236" on="0"/>
      </contour>
      <contour>
        <pt x="980" y="191" on="1"/>
        <pt x="980" y="269" on="0"/>
        <pt x="915" y="352" on="0"/>
        <pt x="855" y="352" on="1"/>
        <pt x="825" y="352" on="0"/>
        <pt x="784" y="324" on="0"/>
        <pt x="764" y="301" on="1"/>
        <pt x="764" y="82" on="1"/>
        <pt x="764" y="50" on="0"/>
        <pt x="818" y="12" on="0"/>
        <pt x="854" y="12" on="1"/>
        <pt x="888" y="12" on="0"/>
        <pt x="936" y="38" on="0"/>
        <pt x="966" y="86" on="0"/>
        <pt x="980" y="152" on="0"/>
      </contour>
      <contour>
        <pt x="463" y="461" on="1"/>
        <pt x="463" y="489" on="0"/>
        <pt x="451" y="537" on="0"/>
        <pt x="424" y="572" on="0"/>
        <pt x="379" y="591" on="0"/>
        <pt x="346" y="591" on="1"/>
        <pt x="316" y="591" on="0"/>
        <pt x="281" y="583" on="0"/>
        <pt x="264" y="566" on="0"/>
        <pt x="259" y="539" on="0"/>
        <pt x="259" y="520" on="1"/>
        <pt x="259" y="322" on="1"/>
        <pt x="274" y="320" on="0"/>
        <pt x="302" y="318" on="0"/>
        <pt x="322" y="318" on="1"/>
        <pt x="400" y="318" on="0"/>
        <pt x="463" y="389" on="0"/>
      </contour>
    </TTGlyph>
    <TTGlyph name="R_p.lin" xMin="29" yMin="-264" xMax="1124" yMax="690">
      <contour>
        <pt x="1124" y="208" on="1"/>
        <pt x="1124" y="160" on="0"/>
        <pt x="1090" y="77" on="0"/>
        <pt x="1028" y="16" on="0"/>
        <pt x="940" y="-20" on="0"/>
        <pt x="887" y="-20" on="1"/>
        <pt x="853" y="-20" on="0"/>
        <pt x="805" y="-9" on="0"/>
        <pt x="785" y="2" on="1"/>
        <pt x="785" y="-151" on="1"/>
        <pt x="785" y="-175" on="0"/>
        <pt x="790" y="-206" on="0"/>
        <pt x="804" y="-224" on="0"/>
        <pt x="830" y="-233" on="0"/>
        <pt x="852" y="-236" on="1"/>
        <pt x="860" y="-236" on="0"/>
        <pt x="860" y="-250" on="1"/>
        <pt x="860" y="-264" on="0"/>
        <pt x="852" y="-264" on="1"/>
        <pt x="836" y="-264" on="0"/>
        <pt x="811" y="-262" on="0"/>
        <pt x="786" y="-260" on="0"/>
        <pt x="758" y="-258" on="0"/>
        <pt x="740" y="-258" on="1"/>
        <pt x="722" y="-258" on="0"/>
        <pt x="694" y="-260" on="0"/>
        <pt x="669" y="-262" on="0"/>
        <pt x="644" y="-264" on="0"/>
        <pt x="628" y="-264" on="1"/>
        <pt x="620" y="-264" on="0"/>
        <pt x="620" y="-250" on="1"/>
        <pt x="620" y="-236" on="0"/>
        <pt x="628" y="-236" on="1"/>
        <pt x="650" y="-233" on="0"/>
        <pt x="676" y="-224" on="0"/>
        <pt x="690" y="-206" on="0"/>
        <pt x="695" y="-175" on="0"/>
        <pt x="695" y="-151" on="1"/>
        <pt x="695" y="-5" on="1"/>
        <pt x="673" y="-3" on="0"/>
        <pt x="630" y="0" on="0"/>
        <pt x="616" y="0" on="1"/>
        <pt x="594" y="0" on="0"/>
        <pt x="547" y="-6" on="0"/>
        <pt x="524" y="-6" on="1"/>
        <pt x="373" y="241" on="1"/>
        <pt x="356" y="268" on="0"/>
        <pt x="332" y="301" on="0"/>
        <pt x="306" y="317" on="0"/>
        <pt x="270" y="322" on="0"/>
        <pt x="242" y="322" on="1"/>
        <pt x="242" y="107" on="1"/>
        <pt x="242" y="87" on="0"/>
        <pt x="247" y="59" on="0"/>
        <pt x="268" y="40" on="0"/>
        <pt x="310" y="26" on="0"/>
        <pt x="346" y="22" on="1"/>
        <pt x="354" y="22" on="0"/>
        <pt x="354" y="8" on="1"/>
        <pt x="354" y="3" on="0"/>
        <pt x="349" y="-6" on="0"/>
        <pt x="346" y="-6" on="1"/>
        <pt x="321" y="-6" on="0"/>
        <pt x="284" y="-4" on="0"/>
        <pt x="250" y="-2" on="0"/>
        <pt x="214" y="0" on="0"/>
        <pt x="191" y="0" on="1"/>
        <pt x="168" y="0" on="0"/>
        <pt x="132" y="-2" on="0"/>
        <pt x="99" y="-4" on="0"/>
        <pt x="62" y="-6" on="0"/>
        <pt x="37" y="-6" on="1"/>
        <pt x="33" y="-6" on="0"/>
        <pt x="29" y="3" on="0"/>
        <pt x="29" y="8" on="1"/>
        <pt x="29" y="22" on="0"/>
        <pt x="37" y="22" on="1"/>
        <pt x="73" y="26" on="0"/>
        <pt x="115" y="40" on="0"/>
        <pt x="135" y="59" on="0"/>
        <pt x="140" y="87" on="0"/>
        <pt x="140" y="107" on="1"/>
        <pt x="140" y="578" on="1"/>
        <pt x="140" y="597" on="0"/>
        <pt x="135" y="625" on="0"/>
        <pt x="115" y="645" on="0"/>
        <pt x="73" y="658" on="0"/>
        <pt x="37" y="662" on="1"/>
        <pt x="29" y="664" on="0"/>
        <pt x="29" y="676" on="1"/>
        <pt x="29" y="690" on="0"/>
        <pt x="37" y="690" on="1"/>
        <pt x="62" y="690" on="0"/>
        <pt x="99" y="688" on="0"/>
        <pt x="132" y="686" on="0"/>
        <pt x="168" y="684" on="0"/>
        <pt x="191" y="684" on="1"/>
        <pt x="214" y="684" on="0"/>
        <pt x="250" y="686" on="0"/>
        <pt x="284" y="688" on="0"/>
        <pt x="321" y="690" on="0"/>
        <pt x="346" y="690" on="1"/>
        <pt x="462" y="690" on="0"/>
        <pt x="580" y="593" on="0"/>
        <pt x="580" y="511" on="1"/>
        <pt x="580" y="454" on="0"/>
        <pt x="491" y="363" on="0"/>
        <pt x="422" y="338" on="1"/>
        <pt x="585" y="93" on="1"/>
        <pt x="597" y="73" on="0"/>
        <pt x="642" y="35" on="0"/>
        <pt x="695" y="26" on="1"/>
        <pt x="695" y="292" on="1"/>
        <pt x="695" y="312" on="0"/>
        <pt x="691" y="337" on="0"/>
        <pt x="679" y="352" on="0"/>
        <pt x="658" y="359" on="0"/>
        <pt x="640" y="361" on="1"/>
        <pt x="632" y="361" on="0"/>
        <pt x="632" y="373" on="1"/>
        <pt x="632" y="386" on="0"/>
        <pt x="640" y="386" on="1"/>
        <pt x="675" y="395" on="0"/>
        <pt x="736" y="419" on="0"/>
        <pt x="761" y="437" on="1"/>
        <pt x="763" y="439" on="0"/>
        <pt x="769" y="445" on="0"/>
        <pt x="775" y="445" on="1"/>
        <pt x="780" y="445" on="0"/>
        <pt x="789" y="441" on="0"/>
        <pt x="789" y="437" on="1"/>
        <pt x="785" y="374" on="1"/>
        <pt x="798" y="389" on="0"/>
        <pt x="831" y="413" on="0"/>
        <pt x="865" y="431" on="0"/>
        <pt x="897" y="441" on="0"/>
        <pt x="909" y="441" on="1"/>
        <pt x="963" y="441" on="0"/>
        <pt x="1043" y="404" on="0"/>
        <pt x="1097" y="340" on="0"/>
        <pt x="1124" y="256" on="0"/>
      </contour>
      <contour>
        <pt x="1023" y="208" on="1"/>
        <pt x="1023" y="292" on="0"/>
        <pt x="951" y="385" on="0"/>
        <pt x="884" y="385" on="1"/>
        <pt x="850" y="385" on="0"/>
        <pt x="807" y="356" on="0"/>
        <pt x="785" y="332" on="1"/>
        <pt x="785" y="87" on="1"/>
        <pt x="785" y="53" on="0"/>
        <pt x="844" y="12" on="0"/>
        <pt x="883" y="12" on="1"/>
        <pt x="920" y="12" on="0"/>
        <pt x="973" y="42" on="0"/>
        <pt x="1007" y="95" on="0"/>
        <pt x="1023" y="166" on="0"/>
      </contour>
      <contour>
        <pt x="470" y="511" on="1"/>
        <pt x="470" y="542" on="0"/>
        <pt x="457" y="596" on="0"/>
        <pt x="427" y="635" on="0"/>
        <pt x="378" y="657" on="0"/>
        <pt x="342" y="657" on="1"/>
        <pt x="305" y="657" on="0"/>
        <pt x="265" y="647" on="0"/>
        <pt x="246" y="627" on="0"/>
        <pt x="242" y="597" on="0"/>
        <pt x="242" y="578" on="1"/>
        <pt x="242" y="354" on="1"/>
        <pt x="259" y="352" on="0"/>
        <pt x="293" y="350" on="0"/>
        <pt x="315" y="350" on="1"/>
        <pt x="401" y="350" on="0"/>
        <pt x="470" y="431" on="0"/>
      </contour>
    </TTGlyph>
    <TTGlyph name="R_p.sc" xMin="56" yMin="-207" xMax="883" yMax="456">
      <contour>
        <pt x="883" y="148" on="1"/>
        <pt x="883" y="115" on="0"/>
        <pt x="860" y="54" on="0"/>
        <pt x="816" y="9" on="0"/>
        <pt x="752" y="-18" on="0"/>
        <pt x="712" y="-18" on="1"/>
        <pt x="686" y="-18" on="0"/>
        <pt x="651" y="-8" on="0"/>
        <pt x="636" y="0" on="1"/>
        <pt x="636" y="-120" on="1"/>
        <pt x="636" y="-139" on="0"/>
        <pt x="640" y="-162" on="0"/>
        <pt x="651" y="-176" on="0"/>
        <pt x="671" y="-183" on="0"/>
        <pt x="688" y="-185" on="1"/>
        <pt x="694" y="-187" on="0"/>
        <pt x="694" y="-196" on="1"/>
        <pt x="694" y="-207" on="0"/>
        <pt x="688" y="-207" on="1"/>
        <pt x="664" y="-207" on="0"/>
        <pt x="625" y="-203" on="0"/>
        <pt x="597" y="-203" on="1"/>
        <pt x="569" y="-203" on="0"/>
        <pt x="524" y="-207" on="0"/>
        <pt x="499" y="-207" on="1"/>
        <pt x="493" y="-207" on="0"/>
        <pt x="493" y="-196" on="1"/>
        <pt x="493" y="-187" on="0"/>
        <pt x="499" y="-185" on="1"/>
        <pt x="516" y="-183" on="0"/>
        <pt x="537" y="-176" on="0"/>
        <pt x="548" y="-162" on="0"/>
        <pt x="552" y="-139" on="0"/>
        <pt x="552" y="-120" on="1"/>
        <pt x="552" y="-4" on="1"/>
        <pt x="534" y="-4" on="0"/>
        <pt x="488" y="2" on="0"/>
        <pt x="476" y="2" on="1"/>
        <pt x="461" y="2" on="0"/>
        <pt x="424" y="-4" on="0"/>
        <pt x="408" y="-4" on="1"/>
        <pt x="311" y="154" on="1"/>
        <pt x="300" y="171" on="0"/>
        <pt x="284" y="194" on="0"/>
        <pt x="267" y="207" on="0"/>
        <pt x="243" y="212" on="0"/>
        <pt x="225" y="212" on="1"/>
        <pt x="225" y="94" on="1"/>
        <pt x="225" y="77" on="0"/>
        <pt x="228" y="53" on="0"/>
        <pt x="243" y="35" on="0"/>
        <pt x="272" y="24" on="0"/>
        <pt x="298" y="20" on="1"/>
        <pt x="303" y="18" on="0"/>
        <pt x="303" y="7" on="1"/>
        <pt x="303" y="2" on="0"/>
        <pt x="300" y="-5" on="0"/>
        <pt x="298" y="-5" on="1"/>
        <pt x="280" y="-5" on="0"/>
        <pt x="254" y="-3" on="0"/>
        <pt x="229" y="-2" on="0"/>
        <pt x="200" y="0" on="0"/>
        <pt x="180" y="0" on="1"/>
        <pt x="159" y="0" on="0"/>
        <pt x="131" y="-2" on="0"/>
        <pt x="105" y="-3" on="0"/>
        <pt x="80" y="-5" on="0"/>
        <pt x="62" y="-5" on="1"/>
        <pt x="60" y="-5" on="0"/>
        <pt x="56" y="2" on="0"/>
        <pt x="56" y="7" on="1"/>
        <pt x="56" y="18" on="0"/>
        <pt x="62" y="20" on="1"/>
        <pt x="87" y="24" on="0"/>
        <pt x="117" y="35" on="0"/>
        <pt x="131" y="53" on="0"/>
        <pt x="135" y="77" on="0"/>
        <pt x="135" y="94" on="1"/>
        <pt x="135" y="357" on="1"/>
        <pt x="135" y="374" on="0"/>
        <pt x="131" y="399" on="0"/>
        <pt x="117" y="417" on="0"/>
        <pt x="87" y="428" on="0"/>
        <pt x="62" y="432" on="1"/>
        <pt x="56" y="432" on="0"/>
        <pt x="56" y="444" on="1"/>
        <pt x="56" y="456" on="0"/>
        <pt x="62" y="456" on="1"/>
        <pt x="80" y="456" on="0"/>
        <pt x="108" y="454" on="0"/>
        <pt x="135" y="453" on="0"/>
        <pt x="166" y="451" on="0"/>
        <pt x="187" y="451" on="1"/>
        <pt x="203" y="451" on="0"/>
        <pt x="230" y="452" on="0"/>
        <pt x="256" y="454" on="0"/>
        <pt x="283" y="455" on="0"/>
        <pt x="300" y="455" on="1"/>
        <pt x="381" y="455" on="0"/>
        <pt x="467" y="391" on="0"/>
        <pt x="467" y="337" on="1"/>
        <pt x="467" y="301" on="0"/>
        <pt x="411" y="243" on="0"/>
        <pt x="366" y="226" on="1"/>
        <pt x="461" y="83" on="1"/>
        <pt x="470" y="69" on="0"/>
        <pt x="485" y="49" on="0"/>
        <pt x="504" y="34" on="0"/>
        <pt x="531" y="24" on="0"/>
        <pt x="552" y="21" on="1"/>
        <pt x="552" y="209" on="1"/>
        <pt x="552" y="224" on="0"/>
        <pt x="549" y="241" on="0"/>
        <pt x="540" y="250" on="0"/>
        <pt x="523" y="252" on="0"/>
        <pt x="509" y="254" on="1"/>
        <pt x="502" y="256" on="0"/>
        <pt x="502" y="264" on="1"/>
        <pt x="502" y="274" on="0"/>
        <pt x="509" y="274" on="1"/>
        <pt x="536" y="281" on="0"/>
        <pt x="597" y="300" on="0"/>
        <pt x="617" y="314" on="1"/>
        <pt x="619" y="316" on="0"/>
        <pt x="623" y="320" on="0"/>
        <pt x="628" y="320" on="1"/>
        <pt x="639" y="320" on="0"/>
        <pt x="639" y="314" on="1"/>
        <pt x="636" y="265" on="1"/>
        <pt x="645" y="276" on="0"/>
        <pt x="669" y="295" on="0"/>
        <pt x="694" y="309" on="0"/>
        <pt x="720" y="317" on="0"/>
        <pt x="730" y="317" on="1"/>
        <pt x="761" y="317" on="0"/>
        <pt x="817" y="294" on="0"/>
        <pt x="859" y="251" on="0"/>
        <pt x="883" y="188" on="0"/>
      </contour>
      <contour>
        <pt x="794" y="148" on="1"/>
        <pt x="794" y="215" on="0"/>
        <pt x="744" y="268" on="0"/>
        <pt x="706" y="268" on="1"/>
        <pt x="683" y="268" on="0"/>
        <pt x="650" y="245" on="0"/>
        <pt x="636" y="226" on="1"/>
        <pt x="636" y="72" on="1"/>
        <pt x="636" y="46" on="0"/>
        <pt x="675" y="14" on="0"/>
        <pt x="705" y="14" on="1"/>
        <pt x="755" y="14" on="0"/>
        <pt x="794" y="82" on="0"/>
      </contour>
      <contour>
        <pt x="370" y="337" on="1"/>
        <pt x="370" y="378" on="0"/>
        <pt x="332" y="426" on="0"/>
        <pt x="282" y="426" on="1"/>
        <pt x="255" y="426" on="0"/>
        <pt x="225" y="409" on="0"/>
        <pt x="225" y="373" on="1"/>
        <pt x="225" y="241" on="1"/>
        <pt x="236" y="239" on="0"/>
        <pt x="249" y="238" on="0"/>
        <pt x="263" y="238" on="1"/>
        <pt x="323" y="238" on="0"/>
        <pt x="370" y="284" on="0"/>
      </contour>
    </TTGlyph>
    <TTGlyph name="Racute" xMin="29" yMin="-6" xMax="725" yMax="924">
      <component glyphName="R" x="0" y="0" flags="0x204"/>
      <component glyphName="acute.cap" x="198" y="0" flags="0x4"/>
    </TTGlyph>
    <TTGlyph name="Racute.sc" xMin="41" yMin="-6" xMax="542" yMax="691">
      <component glyphName="r.sc" x="0" y="0" flags="0x204"/>
      <component glyphName="acute" x="145" y="15" flags="0x4"/>
    </TTGlyph>
    <TTGlyph name="Rcaron" xMin="29" yMin="-6" xMax="725" yMax="918">
      <component glyphName="R" x="0" y="0" flags="0x204"/>
      <component glyphName="caron.cap" x="145" y="0" flags="0x4"/>
    </TTGlyph>
    <TTGlyph name="Rcaron.sc" xMin="41" yMin="-6" xMax="542" yMax="701">
      <component glyphName="r.sc" x="0" y="0" flags="0x204"/>
      <component glyphName="caron" x="82" y="15" flags="0x4"/>
    </TTGlyph>
    <TTGlyph name="Rcommaaccent" xMin="29" yMin="-284" xMax="725" yMax="690">
      <component glyphName="R" x="0" y="0" flags="0x204"/>
      <component glyphName="commaaccent" x="280" y="-4" flags="0x4"/>
    </TTGlyph>
    <TTGlyph name="Rcommaaccent.sc" xMin="41" yMin="-280" xMax="542" yMax="456">
      <component glyphName="r.sc" x="0" y="0" flags="0x204"/>
      <component glyphName="commaaccent" x="179" y="0" flags="0x4"/>
    </TTGlyph>
    <TTGlyph name="S" xMin="41" yMin="-22" xMax="471" yMax="705">
      <contour>
        <pt x="471" y="195" on="1"/>
        <pt x="471" y="145" on="0"/>
        <pt x="441" y="65" on="0"/>
        <pt x="384" y="9" on="0"/>
        <pt x="303" y="-22" on="0"/>
        <pt x="252" y="-22" on="1"/>
        <pt x="220" y="-22" on="0"/>
        <pt x="171" y="-12" on="0"/>
        <pt x="126" y="-1" on="0"/>
        <pt x="81" y="9" on="0"/>
        <pt x="53" y="9" on="1"/>
        <pt x="51" y="50" on="0"/>
        <pt x="45" y="143" on="0"/>
        <pt x="41" y="179" on="1"/>
        <pt x="41" y="183" on="0"/>
        <pt x="50" y="187" on="0"/>
        <pt x="56" y="187" on="1"/>
        <pt x="66" y="187" on="0"/>
        <pt x="69" y="179" on="1"/>
        <pt x="82" y="132" on="0"/>
        <pt x="116" y="68" on="0"/>
        <pt x="160" y="28" on="0"/>
        <pt x="218" y="10" on="0"/>
        <pt x="256" y="10" on="1"/>
        <pt x="321" y="10" on="0"/>
        <pt x="383" y="83" on="0"/>
        <pt x="383" y="143" on="1"/>
        <pt x="383" y="183" on="0"/>
        <pt x="334" y="242" on="0"/>
        <pt x="262" y="292" on="0"/>
        <pt x="176" y="338" on="0"/>
        <pt x="104" y="393" on="0"/>
        <pt x="55" y="462" on="0"/>
        <pt x="55" y="511" on="1"/>
        <pt x="55" y="548" on="0"/>
        <pt x="84" y="618" on="0"/>
        <pt x="140" y="672" on="0"/>
        <pt x="218" y="705" on="0"/>
        <pt x="268" y="705" on="1"/>
        <pt x="294" y="705" on="0"/>
        <pt x="331" y="699" on="0"/>
        <pt x="364" y="693" on="0"/>
        <pt x="398" y="687" on="0"/>
        <pt x="422" y="687" on="1"/>
        <pt x="425" y="644" on="0"/>
        <pt x="432" y="574" on="0"/>
        <pt x="438" y="532" on="1"/>
        <pt x="439" y="529" on="0"/>
        <pt x="430" y="524" on="0"/>
        <pt x="425" y="524" on="1"/>
        <pt x="411" y="524" on="0"/>
        <pt x="410" y="532" on="1"/>
        <pt x="393" y="609" on="0"/>
        <pt x="325" y="673" on="0"/>
        <pt x="267" y="673" on="1"/>
        <pt x="210" y="673" on="0"/>
        <pt x="145" y="606" on="0"/>
        <pt x="145" y="551" on="1"/>
        <pt x="145" y="515" on="0"/>
        <pt x="193" y="460" on="0"/>
        <pt x="266" y="411" on="0"/>
        <pt x="350" y="365" on="0"/>
        <pt x="423" y="310" on="0"/>
        <pt x="471" y="241" on="0"/>
      </contour>
    </TTGlyph>
    <TTGlyph name="S.sc" xMin="60" yMin="-21" xMax="378" yMax="471">
      <component glyphName="s.sc" x="0" y="0" flags="0x204"/>
    </TTGlyph>
    <TTGlyph name="Sacute" xMin="41" yMin="-22" xMax="471" yMax="939">
      <component glyphName="S" x="0" y="0" flags="0x204"/>
      <component glyphName="acute.cap" x="150" y="15" flags="0x4"/>
    </TTGlyph>
    <TTGlyph name="Sacute.sc" xMin="60" yMin="-21" xMax="383" yMax="696">
      <component glyphName="s.sc" x="0" y="0" flags="0x204"/>
      <component glyphName="acute" x="111" y="20" flags="0x4"/>
    </TTGlyph>
    <TTGlyph name="Scaron" xMin="41" yMin="-22" xMax="471" yMax="933">
      <component glyphName="S" x="0" y="0" flags="0x204"/>
      <component glyphName="caron.cap" x="97" y="15" flags="0x4"/>
    </TTGlyph>
    <TTGlyph name="Scaron.sc" xMin="60" yMin="-21" xMax="378" yMax="706">
      <component glyphName="s.sc" x="0" y="0" flags="0x204"/>
      <component glyphName="caron" x="48" y="20" flags="0x4"/>
    </TTGlyph>
    <TTGlyph name="Scedilla" xMin="41" yMin="-225" xMax="471" yMax="705">
      <contour>
        <pt x="471" y="195" on="1"/>
        <pt x="471" y="102" on="0"/>
        <pt x="369" y="-12" on="0"/>
        <pt x="280" y="-20" on="1"/>
        <pt x="271" y="-35" on="1"/>
        <pt x="268" y="-40" on="0"/>
        <pt x="268" y="-44" on="1"/>
        <pt x="268" y="-52" on="0"/>
        <pt x="278" y="-59" on="1"/>
        <pt x="300" y="-73" on="0"/>
        <pt x="330" y="-111" on="0"/>
        <pt x="330" y="-134" on="1"/>
        <pt x="330" y="-152" on="0"/>
        <pt x="314" y="-184" on="0"/>
        <pt x="285" y="-210" on="0"/>
        <pt x="243" y="-225" on="0"/>
        <pt x="218" y="-225" on="1"/>
        <pt x="189" y="-225" on="0"/>
        <pt x="158" y="-204" on="0"/>
        <pt x="158" y="-189" on="1"/>
        <pt x="158" y="-180" on="0"/>
        <pt x="171" y="-162" on="0"/>
        <pt x="184" y="-162" on="1"/>
        <pt x="194" y="-162" on="0"/>
        <pt x="210" y="-171" on="0"/>
        <pt x="224" y="-183" on="0"/>
        <pt x="238" y="-192" on="0"/>
        <pt x="247" y="-192" on="1"/>
        <pt x="258" y="-192" on="0"/>
        <pt x="274" y="-177" on="0"/>
        <pt x="274" y="-160" on="1"/>
        <pt x="274" y="-142" on="0"/>
        <pt x="237" y="-108" on="0"/>
        <pt x="215" y="-97" on="1"/>
        <pt x="205" y="-92" on="0"/>
        <pt x="205" y="-82" on="1"/>
        <pt x="205" y="-78" on="0"/>
        <pt x="208" y="-73" on="1"/>
        <pt x="240" y="-22" on="1"/>
        <pt x="211" y="-21" on="0"/>
        <pt x="165" y="-11" on="0"/>
        <pt x="123" y="0" on="0"/>
        <pt x="80" y="9" on="0"/>
        <pt x="53" y="9" on="1"/>
        <pt x="51" y="50" on="0"/>
        <pt x="45" y="143" on="0"/>
        <pt x="41" y="179" on="1"/>
        <pt x="41" y="183" on="0"/>
        <pt x="50" y="187" on="0"/>
        <pt x="56" y="187" on="1"/>
        <pt x="66" y="187" on="0"/>
        <pt x="69" y="179" on="1"/>
        <pt x="82" y="132" on="0"/>
        <pt x="116" y="68" on="0"/>
        <pt x="160" y="28" on="0"/>
        <pt x="218" y="10" on="0"/>
        <pt x="256" y="10" on="1"/>
        <pt x="321" y="10" on="0"/>
        <pt x="383" y="83" on="0"/>
        <pt x="383" y="143" on="1"/>
        <pt x="383" y="183" on="0"/>
        <pt x="334" y="242" on="0"/>
        <pt x="262" y="292" on="0"/>
        <pt x="176" y="338" on="0"/>
        <pt x="104" y="393" on="0"/>
        <pt x="55" y="462" on="0"/>
        <pt x="55" y="511" on="1"/>
        <pt x="55" y="548" on="0"/>
        <pt x="84" y="618" on="0"/>
        <pt x="140" y="672" on="0"/>
        <pt x="218" y="705" on="0"/>
        <pt x="268" y="705" on="1"/>
        <pt x="294" y="705" on="0"/>
        <pt x="331" y="699" on="0"/>
        <pt x="364" y="693" on="0"/>
        <pt x="398" y="687" on="0"/>
        <pt x="422" y="687" on="1"/>
        <pt x="425" y="644" on="0"/>
        <pt x="432" y="574" on="0"/>
        <pt x="438" y="532" on="1"/>
        <pt x="439" y="529" on="0"/>
        <pt x="430" y="524" on="0"/>
        <pt x="425" y="524" on="1"/>
        <pt x="411" y="524" on="0"/>
        <pt x="410" y="532" on="1"/>
        <pt x="393" y="609" on="0"/>
        <pt x="325" y="673" on="0"/>
        <pt x="267" y="673" on="1"/>
        <pt x="210" y="673" on="0"/>
        <pt x="145" y="606" on="0"/>
        <pt x="145" y="551" on="1"/>
        <pt x="145" y="515" on="0"/>
        <pt x="193" y="460" on="0"/>
        <pt x="266" y="411" on="0"/>
        <pt x="350" y="365" on="0"/>
        <pt x="423" y="310" on="0"/>
        <pt x="471" y="241" on="0"/>
      </contour>
    </TTGlyph>
    <TTGlyph name="Scedilla.sc" xMin="60" yMin="-225" xMax="378" yMax="471">
      <component glyphName="scedilla.sc" x="0" y="0" flags="0x204"/>
    </TTGlyph>
    <TTGlyph name="Scommaaccent" xMin="41" yMin="-294" xMax="471" yMax="705">
      <component glyphName="S" x="0" y="0" flags="0x204"/>
      <component glyphName="commaaccent" x="140" y="-14" flags="0x4"/>
    </TTGlyph>
    <TTGlyph name="Scommaaccent.sc" xMin="60" yMin="-289" xMax="378" yMax="471">
      <component glyphName="s.sc" x="0" y="0" flags="0x204"/>
      <component glyphName="commaaccent" x="101" y="-9" flags="0x4"/>
    </TTGlyph>
    <TTGlyph name="Sigma" xMin="40" yMin="-11" xMax="625" yMax="695">
      <contour>
        <pt x="623" y="190" on="1"/>
        <pt x="609" y="142" on="0"/>
        <pt x="588" y="40" on="0"/>
        <pt x="580" y="-10" on="1"/>
        <pt x="554" y="-5" on="0"/>
        <pt x="429" y="0" on="0"/>
        <pt x="309" y="0" on="1"/>
        <pt x="200" y="0" on="0"/>
        <pt x="81" y="-4" on="0"/>
        <pt x="55" y="-9" on="1"/>
        <pt x="49" y="-11" on="0"/>
        <pt x="40" y="1" on="0"/>
        <pt x="40" y="8" on="1"/>
        <pt x="40" y="13" on="0"/>
        <pt x="43" y="16" on="1"/>
        <pt x="324" y="338" on="1"/>
        <pt x="57" y="668" on="1"/>
        <pt x="54" y="671" on="0"/>
        <pt x="54" y="675" on="1"/>
        <pt x="54" y="683" on="0"/>
        <pt x="63" y="695" on="0"/>
        <pt x="69" y="693" on="1"/>
        <pt x="83" y="690" on="0"/>
        <pt x="121" y="686" on="0"/>
        <pt x="179" y="685" on="0"/>
        <pt x="262" y="684" on="0"/>
        <pt x="322" y="684" on="1"/>
        <pt x="382" y="684" on="0"/>
        <pt x="463" y="685" on="0"/>
        <pt x="518" y="687" on="0"/>
        <pt x="552" y="691" on="0"/>
        <pt x="566" y="694" on="1"/>
        <pt x="571" y="671" on="0"/>
        <pt x="580" y="638" on="0"/>
        <pt x="590" y="606" on="0"/>
        <pt x="602" y="573" on="0"/>
        <pt x="611" y="550" on="1"/>
        <pt x="613" y="545" on="0"/>
        <pt x="605" y="536" on="0"/>
        <pt x="595" y="536" on="1"/>
        <pt x="587" y="536" on="0"/>
        <pt x="583" y="545" on="1"/>
        <pt x="557" y="604" on="0"/>
        <pt x="462" y="652" on="0"/>
        <pt x="383" y="652" on="1"/>
        <pt x="194" y="652" on="1"/>
        <pt x="415" y="380" on="1"/>
        <pt x="151" y="80" on="1"/>
        <pt x="421" y="80" on="1"/>
        <pt x="461" y="80" on="0"/>
        <pt x="519" y="95" on="0"/>
        <pt x="560" y="123" on="0"/>
        <pt x="586" y="166" on="0"/>
        <pt x="595" y="195" on="1"/>
        <pt x="598" y="203" on="0"/>
        <pt x="607" y="203" on="1"/>
        <pt x="617" y="203" on="0"/>
        <pt x="625" y="195" on="0"/>
      </contour>
    </TTGlyph>
    <TTGlyph name="T" xMin="-2" yMin="-6" xMax="715" yMax="698">
      <contour>
        <pt x="711" y="527" on="1"/>
        <pt x="715" y="516" on="0"/>
        <pt x="694" y="516" on="1"/>
        <pt x="686" y="516" on="0"/>
        <pt x="684" y="523" on="1"/>
        <pt x="672" y="561" on="0"/>
        <pt x="640" y="611" on="0"/>
        <pt x="597" y="640" on="0"/>
        <pt x="540" y="652" on="0"/>
        <pt x="504" y="652" on="1"/>
        <pt x="457" y="652" on="1"/>
        <pt x="433" y="652" on="0"/>
        <pt x="414" y="637" on="0"/>
        <pt x="414" y="614" on="1"/>
        <pt x="414" y="106" on="1"/>
        <pt x="414" y="87" on="0"/>
        <pt x="419" y="59" on="0"/>
        <pt x="440" y="39" on="0"/>
        <pt x="482" y="26" on="0"/>
        <pt x="518" y="22" on="1"/>
        <pt x="526" y="20" on="0"/>
        <pt x="526" y="8" on="1"/>
        <pt x="526" y="-6" on="0"/>
        <pt x="518" y="-6" on="1"/>
        <pt x="493" y="-6" on="0"/>
        <pt x="456" y="-4" on="0"/>
        <pt x="422" y="-2" on="0"/>
        <pt x="387" y="0" on="0"/>
        <pt x="364" y="0" on="1"/>
        <pt x="341" y="0" on="0"/>
        <pt x="305" y="-2" on="0"/>
        <pt x="271" y="-4" on="0"/>
        <pt x="234" y="-6" on="0"/>
        <pt x="209" y="-6" on="1"/>
        <pt x="201" y="-6" on="0"/>
        <pt x="201" y="8" on="1"/>
        <pt x="201" y="20" on="0"/>
        <pt x="209" y="22" on="1"/>
        <pt x="245" y="26" on="0"/>
        <pt x="287" y="39" on="0"/>
        <pt x="308" y="59" on="0"/>
        <pt x="313" y="87" on="0"/>
        <pt x="313" y="106" on="1"/>
        <pt x="313" y="614" on="1"/>
        <pt x="313" y="637" on="0"/>
        <pt x="294" y="652" on="0"/>
        <pt x="270" y="652" on="1"/>
        <pt x="231" y="652" on="1"/>
        <pt x="198" y="652" on="0"/>
        <pt x="134" y="635" on="0"/>
        <pt x="79" y="602" on="0"/>
        <pt x="37" y="554" on="0"/>
        <pt x="28" y="523" on="1"/>
        <pt x="25" y="516" on="0"/>
        <pt x="17" y="516" on="1"/>
        <pt x="9" y="516" on="0"/>
        <pt x="-2" y="522" on="0"/>
        <pt x="0" y="527" on="1"/>
        <pt x="17" y="574" on="0"/>
        <pt x="41" y="652" on="0"/>
        <pt x="53" y="698" on="1"/>
        <pt x="82" y="692" on="0"/>
        <pt x="227" y="684" on="0"/>
        <pt x="364" y="684" on="1"/>
        <pt x="501" y="684" on="0"/>
        <pt x="653" y="692" on="0"/>
        <pt x="682" y="698" on="1"/>
        <pt x="685" y="674" on="0"/>
        <pt x="690" y="634" on="0"/>
        <pt x="697" y="595" on="0"/>
        <pt x="706" y="553" on="0"/>
      </contour>
    </TTGlyph>
    <TTGlyph name="T.sc" xMin="13" yMin="-6" xMax="502" yMax="463">
      <component glyphName="t.sc" x="0" y="0" flags="0x204"/>
    </TTGlyph>
    <TTGlyph name="Tcaron" xMin="-2" yMin="-6" xMax="715" yMax="918">
      <component glyphName="T" x="0" y="0" flags="0x204"/>
      <component glyphName="caron.cap" x="189" y="0" flags="0x4"/>
    </TTGlyph>
    <TTGlyph name="Tcaron.sc" xMin="13" yMin="-6" xMax="502" yMax="701">
      <component glyphName="t.sc" x="0" y="0" flags="0x204"/>
      <component glyphName="caron" x="89" y="15" flags="0x4"/>
    </TTGlyph>
    <TTGlyph name="Tcommaaccent" xMin="-2" yMin="-289" xMax="715" yMax="698">
      <component glyphName="T" x="0" y="0" flags="0x204"/>
      <component glyphName="commaaccent" x="250" y="-9" flags="0x4"/>
    </TTGlyph>
    <TTGlyph name="Tcommaaccent.sc" xMin="13" yMin="-284" xMax="502" yMax="463">
      <component glyphName="t.sc" x="0" y="0" flags="0x204"/>
      <component glyphName="commaaccent" x="150" y="-4" flags="0x4"/>
    </TTGlyph>
    <TTGlyph name="Thorn" xMin="59" yMin="-6" xMax="618" yMax="690">
      <contour>
        <pt x="618" y="354" on="1"/>
        <pt x="618" y="310" on="0"/>
        <pt x="579" y="236" on="0"/>
        <pt x="513" y="184" on="0"/>
        <pt x="428" y="155" on="0"/>
        <pt x="382" y="155" on="1"/>
        <pt x="363" y="155" on="0"/>
        <pt x="334" y="156" on="0"/>
        <pt x="309" y="157" on="0"/>
        <pt x="285" y="159" on="0"/>
        <pt x="272" y="160" on="1"/>
        <pt x="272" y="107" on="1"/>
        <pt x="272" y="87" on="0"/>
        <pt x="277" y="59" on="0"/>
        <pt x="298" y="39" on="0"/>
        <pt x="340" y="26" on="0"/>
        <pt x="376" y="22" on="1"/>
        <pt x="384" y="22" on="0"/>
        <pt x="384" y="8" on="1"/>
        <pt x="384" y="-6" on="0"/>
        <pt x="376" y="-6" on="1"/>
        <pt x="351" y="-6" on="0"/>
        <pt x="314" y="-4" on="0"/>
        <pt x="280" y="-2" on="0"/>
        <pt x="244" y="0" on="0"/>
        <pt x="221" y="0" on="1"/>
        <pt x="198" y="0" on="0"/>
        <pt x="163" y="-2" on="0"/>
        <pt x="129" y="-4" on="0"/>
        <pt x="92" y="-6" on="0"/>
        <pt x="67" y="-6" on="1"/>
        <pt x="59" y="-6" on="0"/>
        <pt x="59" y="8" on="1"/>
        <pt x="59" y="22" on="0"/>
        <pt x="67" y="22" on="1"/>
        <pt x="103" y="26" on="0"/>
        <pt x="145" y="39" on="0"/>
        <pt x="166" y="59" on="0"/>
        <pt x="171" y="87" on="0"/>
        <pt x="171" y="107" on="1"/>
        <pt x="171" y="577" on="1"/>
        <pt x="171" y="596" on="0"/>
        <pt x="166" y="625" on="0"/>
        <pt x="145" y="645" on="0"/>
        <pt x="103" y="658" on="0"/>
        <pt x="67" y="662" on="1"/>
        <pt x="59" y="664" on="0"/>
        <pt x="59" y="676" on="1"/>
        <pt x="59" y="690" on="0"/>
        <pt x="67" y="690" on="1"/>
        <pt x="92" y="690" on="0"/>
        <pt x="129" y="688" on="0"/>
        <pt x="163" y="686" on="0"/>
        <pt x="198" y="684" on="0"/>
        <pt x="221" y="684" on="1"/>
        <pt x="244" y="684" on="0"/>
        <pt x="280" y="686" on="0"/>
        <pt x="314" y="688" on="0"/>
        <pt x="351" y="690" on="0"/>
        <pt x="376" y="690" on="1"/>
        <pt x="384" y="690" on="0"/>
        <pt x="384" y="676" on="1"/>
        <pt x="384" y="664" on="0"/>
        <pt x="376" y="662" on="1"/>
        <pt x="340" y="658" on="0"/>
        <pt x="298" y="645" on="0"/>
        <pt x="277" y="625" on="0"/>
        <pt x="272" y="596" on="0"/>
        <pt x="272" y="577" on="1"/>
        <pt x="272" y="546" on="1"/>
        <pt x="287" y="548" on="0"/>
        <pt x="335" y="550" on="0"/>
        <pt x="368" y="550" on="1"/>
        <pt x="493" y="550" on="0"/>
        <pt x="618" y="447" on="0"/>
      </contour>
      <contour>
        <pt x="508" y="354" on="1"/>
        <pt x="508" y="399" on="0"/>
        <pt x="480" y="461" on="0"/>
        <pt x="438" y="499" on="0"/>
        <pt x="387" y="516" on="0"/>
        <pt x="364" y="516" on="1"/>
        <pt x="327" y="516" on="0"/>
        <pt x="289" y="506" on="0"/>
        <pt x="273" y="486" on="0"/>
        <pt x="272" y="456" on="0"/>
        <pt x="272" y="437" on="1"/>
        <pt x="272" y="224" on="1"/>
        <pt x="272" y="212" on="0"/>
        <pt x="277" y="197" on="0"/>
        <pt x="291" y="190" on="0"/>
        <pt x="317" y="187" on="0"/>
        <pt x="337" y="187" on="1"/>
        <pt x="379" y="187" on="0"/>
        <pt x="442" y="212" on="0"/>
        <pt x="486" y="257" on="0"/>
        <pt x="508" y="318" on="0"/>
      </contour>
    </TTGlyph>
    <TTGlyph name="Thorn.sc" xMin="67" yMin="-5" xMax="479" yMax="456">
      <component glyphName="thorn.sc" x="0" y="0" flags="0x204"/>
    </TTGlyph>
    <TTGlyph name="U" xMin="14" yMin="-22" xMax="770" yMax="690">
      <contour>
        <pt x="770" y="676" on="1"/>
        <pt x="770" y="662" on="0"/>
        <pt x="762" y="662" on="1"/>
        <pt x="726" y="657" on="0"/>
        <pt x="683" y="645" on="0"/>
        <pt x="662" y="625" on="0"/>
        <pt x="656" y="597" on="0"/>
        <pt x="656" y="577" on="1"/>
        <pt x="656" y="263" on="1"/>
        <pt x="656" y="204" on="0"/>
        <pt x="628" y="101" on="0"/>
        <pt x="568" y="23" on="0"/>
        <pt x="475" y="-22" on="0"/>
        <pt x="409" y="-22" on="1"/>
        <pt x="336" y="-22" on="0"/>
        <pt x="229" y="20" on="0"/>
        <pt x="159" y="93" on="0"/>
        <pt x="125" y="191" on="0"/>
        <pt x="125" y="247" on="1"/>
        <pt x="125" y="577" on="1"/>
        <pt x="125" y="596" on="0"/>
        <pt x="120" y="625" on="0"/>
        <pt x="100" y="644" on="0"/>
        <pt x="58" y="657" on="0"/>
        <pt x="22" y="662" on="1"/>
        <pt x="14" y="662" on="0"/>
        <pt x="14" y="676" on="1"/>
        <pt x="14" y="681" on="0"/>
        <pt x="18" y="690" on="0"/>
        <pt x="22" y="690" on="1"/>
        <pt x="47" y="690" on="0"/>
        <pt x="84" y="688" on="0"/>
        <pt x="117" y="686" on="0"/>
        <pt x="153" y="684" on="0"/>
        <pt x="176" y="684" on="1"/>
        <pt x="199" y="684" on="0"/>
        <pt x="235" y="686" on="0"/>
        <pt x="269" y="688" on="0"/>
        <pt x="306" y="690" on="0"/>
        <pt x="331" y="690" on="1"/>
        <pt x="334" y="690" on="0"/>
        <pt x="339" y="681" on="0"/>
        <pt x="339" y="676" on="1"/>
        <pt x="339" y="662" on="0"/>
        <pt x="331" y="662" on="1"/>
        <pt x="295" y="657" on="0"/>
        <pt x="253" y="644" on="0"/>
        <pt x="232" y="625" on="0"/>
        <pt x="227" y="596" on="0"/>
        <pt x="227" y="577" on="1"/>
        <pt x="227" y="261" on="1"/>
        <pt x="227" y="189" on="0"/>
        <pt x="256" y="97" on="0"/>
        <pt x="309" y="44" on="0"/>
        <pt x="381" y="23" on="0"/>
        <pt x="425" y="23" on="1"/>
        <pt x="518" y="23" on="0"/>
        <pt x="623" y="144" on="0"/>
        <pt x="623" y="273" on="1"/>
        <pt x="623" y="577" on="1"/>
        <pt x="623" y="596" on="0"/>
        <pt x="617" y="625" on="0"/>
        <pt x="596" y="644" on="0"/>
        <pt x="553" y="657" on="0"/>
        <pt x="517" y="662" on="1"/>
        <pt x="509" y="662" on="0"/>
        <pt x="509" y="676" on="1"/>
        <pt x="509" y="681" on="0"/>
        <pt x="514" y="690" on="0"/>
        <pt x="517" y="690" on="1"/>
        <pt x="551" y="690" on="0"/>
        <pt x="604" y="684" on="0"/>
        <pt x="640" y="684" on="1"/>
        <pt x="658" y="684" on="0"/>
        <pt x="687" y="686" on="0"/>
        <pt x="714" y="688" on="0"/>
        <pt x="743" y="690" on="0"/>
        <pt x="762" y="690" on="1"/>
        <pt x="765" y="690" on="0"/>
        <pt x="770" y="681" on="0"/>
      </contour>
    </TTGlyph>
    <TTGlyph name="U.sc" xMin="28" yMin="-19" xMax="571" yMax="456">
      <component glyphName="u.sc" x="0" y="0" flags="0x204"/>
    </TTGlyph>
    <TTGlyph name="Uacute" xMin="14" yMin="-22" xMax="770" yMax="924">
      <component glyphName="U" x="0" y="0" flags="0x204"/>
      <component glyphName="acute.cap" x="290" y="0" flags="0x4"/>
    </TTGlyph>
    <TTGlyph name="Uacute.sc" xMin="28" yMin="-19" xMax="571" yMax="691">
      <component glyphName="u.sc" x="0" y="0" flags="0x204"/>
      <component glyphName="acute" x="201" y="15" flags="0x4"/>
    </TTGlyph>
    <TTGlyph name="Ubreve" xMin="14" yMin="-22" xMax="770" yMax="907">
      <component glyphName="U" x="0" y="0" flags="0x204"/>
      <component glyphName="breve.cap" x="237" y="0" flags="0x4"/>
    </TTGlyph>
    <TTGlyph name="Ubreve.sc" xMin="28" yMin="-19" xMax="571" yMax="681">
      <component glyphName="u.sc" x="0" y="0" flags="0x204"/>
      <component glyphName="breve" x="138" y="15" flags="0x4"/>
    </TTGlyph>
    <TTGlyph name="Ucircumflex" xMin="14" yMin="-22" xMax="770" yMax="910">
      <component glyphName="U" x="0" y="0" flags="0x204"/>
      <component glyphName="circumflex.cap" x="237" y="0" flags="0x4"/>
    </TTGlyph>
    <TTGlyph name="Ucircumflex.sc" xMin="28" yMin="-19" xMax="571" yMax="695">
      <component glyphName="u.sc" x="0" y="0" flags="0x204"/>
      <component glyphName="circumflex" x="138" y="15" flags="0x4"/>
    </TTGlyph>
    <TTGlyph name="Udieresis" xMin="14" yMin="-22" xMax="770" yMax="868">
      <component glyphName="U" x="0" y="0" flags="0x204"/>
      <component glyphName="dieresis.cap" x="238" y="0" flags="0x4"/>
    </TTGlyph>
    <TTGlyph name="Udieresis.sc" xMin="28" yMin="-19" xMax="571" yMax="644">
      <component glyphName="u.sc" x="0" y="0" flags="0x204"/>
      <component glyphName="dieresis" x="138" y="15" flags="0x4"/>
    </TTGlyph>
    <TTGlyph name="Ugrave" xMin="14" yMin="-22" xMax="770" yMax="924">
      <component glyphName="U" x="0" y="0" flags="0x204"/>
      <component glyphName="grave.cap" x="173" y="0" flags="0x4"/>
    </TTGlyph>
    <TTGlyph name="Ugrave.sc" xMin="28" yMin="-19" xMax="571" yMax="691">
      <component glyphName="u.sc" x="0" y="0" flags="0x204"/>
      <component glyphName="grave" x="66" y="15" flags="0x4"/>
    </TTGlyph>
    <TTGlyph name="Uhungarumlaut" xMin="14" yMin="-22" xMax="770" yMax="925">
      <component glyphName="U" x="0" y="0" flags="0x204"/>
      <component glyphName="hungarumlaut.cap" x="253" y="0" flags="0x4"/>
    </TTGlyph>
    <TTGlyph name="Uhungarumlaut.sc" xMin="28" yMin="-19" xMax="581" yMax="687">
      <component glyphName="u.sc" x="0" y="0" flags="0x204"/>
      <component glyphName="hungarumlaut" x="144" y="15" flags="0x4"/>
    </TTGlyph>
    <TTGlyph name="Umacron" xMin="14" yMin="-22" xMax="770" yMax="844">
      <component glyphName="U" x="0" y="0" flags="0x204"/>
      <component glyphName="macron.cap" x="236" y="0" flags="0x4"/>
    </TTGlyph>
    <TTGlyph name="Umacron.sc" xMin="28" yMin="-19" xMax="571" yMax="612">
      <component glyphName="u.sc" x="0" y="0" flags="0x204"/>
      <component glyphName="macron" x="130" y="15" flags="0x4"/>
    </TTGlyph>
    <TTGlyph name="Uogonek" xMin="14" yMin="-225" xMax="770" yMax="690">
      <contour>
        <pt x="770" y="676" on="1"/>
        <pt x="770" y="662" on="0"/>
        <pt x="762" y="662" on="1"/>
        <pt x="726" y="657" on="0"/>
        <pt x="683" y="645" on="0"/>
        <pt x="662" y="625" on="0"/>
        <pt x="656" y="597" on="0"/>
        <pt x="656" y="577" on="1"/>
        <pt x="656" y="263" on="1"/>
        <pt x="656" y="206" on="0"/>
        <pt x="630" y="105" on="0"/>
        <pt x="573" y="28" on="0"/>
        <pt x="485" y="-19" on="0"/>
        <pt x="424" y="-22" on="1"/>
        <pt x="406" y="-45" on="0"/>
        <pt x="383" y="-97" on="0"/>
        <pt x="383" y="-122" on="1"/>
        <pt x="383" y="-174" on="0"/>
        <pt x="440" y="-174" on="1"/>
        <pt x="454" y="-174" on="0"/>
        <pt x="477" y="-162" on="0"/>
        <pt x="488" y="-155" on="1"/>
        <pt x="491" y="-153" on="0"/>
        <pt x="499" y="-158" on="0"/>
        <pt x="502" y="-163" on="1"/>
        <pt x="507" y="-172" on="0"/>
        <pt x="503" y="-179" on="1"/>
        <pt x="487" y="-201" on="0"/>
        <pt x="438" y="-225" on="0"/>
        <pt x="402" y="-225" on="1"/>
        <pt x="379" y="-225" on="0"/>
        <pt x="347" y="-211" on="0"/>
        <pt x="326" y="-188" on="0"/>
        <pt x="316" y="-159" on="0"/>
        <pt x="316" y="-144" on="1"/>
        <pt x="316" y="-118" on="0"/>
        <pt x="345" y="-56" on="0"/>
        <pt x="379" y="-21" on="1"/>
        <pt x="314" y="-17" on="0"/>
        <pt x="218" y="28" on="0"/>
        <pt x="155" y="100" on="0"/>
        <pt x="125" y="194" on="0"/>
        <pt x="125" y="247" on="1"/>
        <pt x="125" y="577" on="1"/>
        <pt x="125" y="596" on="0"/>
        <pt x="120" y="625" on="0"/>
        <pt x="100" y="644" on="0"/>
        <pt x="58" y="657" on="0"/>
        <pt x="22" y="662" on="1"/>
        <pt x="14" y="662" on="0"/>
        <pt x="14" y="676" on="1"/>
        <pt x="14" y="681" on="0"/>
        <pt x="18" y="690" on="0"/>
        <pt x="22" y="690" on="1"/>
        <pt x="47" y="690" on="0"/>
        <pt x="84" y="688" on="0"/>
        <pt x="117" y="686" on="0"/>
        <pt x="153" y="684" on="0"/>
        <pt x="176" y="684" on="1"/>
        <pt x="199" y="684" on="0"/>
        <pt x="235" y="686" on="0"/>
        <pt x="269" y="688" on="0"/>
        <pt x="306" y="690" on="0"/>
        <pt x="331" y="690" on="1"/>
        <pt x="334" y="690" on="0"/>
        <pt x="339" y="681" on="0"/>
        <pt x="339" y="676" on="1"/>
        <pt x="339" y="662" on="0"/>
        <pt x="331" y="662" on="1"/>
        <pt x="295" y="657" on="0"/>
        <pt x="253" y="644" on="0"/>
        <pt x="232" y="625" on="0"/>
        <pt x="227" y="596" on="0"/>
        <pt x="227" y="577" on="1"/>
        <pt x="227" y="261" on="1"/>
        <pt x="227" y="189" on="0"/>
        <pt x="256" y="97" on="0"/>
        <pt x="309" y="44" on="0"/>
        <pt x="381" y="23" on="0"/>
        <pt x="425" y="23" on="1"/>
        <pt x="518" y="23" on="0"/>
        <pt x="623" y="144" on="0"/>
        <pt x="623" y="273" on="1"/>
        <pt x="623" y="577" on="1"/>
        <pt x="623" y="596" on="0"/>
        <pt x="617" y="625" on="0"/>
        <pt x="596" y="644" on="0"/>
        <pt x="553" y="657" on="0"/>
        <pt x="517" y="662" on="1"/>
        <pt x="509" y="662" on="0"/>
        <pt x="509" y="676" on="1"/>
        <pt x="509" y="681" on="0"/>
        <pt x="514" y="690" on="0"/>
        <pt x="517" y="690" on="1"/>
        <pt x="551" y="690" on="0"/>
        <pt x="604" y="684" on="0"/>
        <pt x="640" y="684" on="1"/>
        <pt x="658" y="684" on="0"/>
        <pt x="687" y="686" on="0"/>
        <pt x="714" y="688" on="0"/>
        <pt x="743" y="690" on="0"/>
        <pt x="762" y="690" on="1"/>
        <pt x="765" y="690" on="0"/>
        <pt x="770" y="681" on="0"/>
      </contour>
    </TTGlyph>
    <TTGlyph name="Uogonek.sc" xMin="28" yMin="-225" xMax="571" yMax="456">
      <component glyphName="uogonek.sc" x="0" y="0" flags="0x204"/>
    </TTGlyph>
    <TTGlyph name="Uring" xMin="14" yMin="-22" xMax="770" yMax="932">
      <component glyphName="U" x="0" y="0" flags="0x204"/>
      <component glyphName="ring.cap" x="237" y="0" flags="0x4"/>
    </TTGlyph>
    <TTGlyph name="Uring.sc" xMin="28" yMin="-19" xMax="571" yMax="717">
      <component glyphName="u.sc" x="0" y="0" flags="0x204"/>
      <component glyphName="ring" x="138" y="15" flags="0x4"/>
    </TTGlyph>
</ttFont>
